%TF.GenerationSoftware,KiCad,Pcbnew,(6.0.1-0)*%
%TF.CreationDate,2023-09-14T22:16:03-07:00*%
%TF.ProjectId,pizzapad-base,70697a7a-6170-4616-942d-626173652e6b,rev?*%
%TF.SameCoordinates,Original*%
%TF.FileFunction,Copper,L2,Bot*%
%TF.FilePolarity,Positive*%
%FSLAX46Y46*%
G04 Gerber Fmt 4.6, Leading zero omitted, Abs format (unit mm)*
G04 Created by KiCad (PCBNEW (6.0.1-0)) date 2023-09-14 22:16:03*
%MOMM*%
%LPD*%
G01*
G04 APERTURE LIST*
G04 APERTURE END LIST*
%TA.AperFunction,NonConductor*%
G36*
X142188153Y-71007317D02*
G01*
X142343642Y-71011421D01*
X142358529Y-71012701D01*
X142393890Y-71017871D01*
X142402780Y-71016624D01*
X142411756Y-71016651D01*
X142411754Y-71017317D01*
X142423143Y-71017023D01*
X142594585Y-71032036D01*
X142604380Y-71033283D01*
X142802436Y-71066412D01*
X142813198Y-71068699D01*
X142850667Y-71078391D01*
X142989174Y-71114218D01*
X143000702Y-71117797D01*
X143156608Y-71174522D01*
X143168545Y-71179575D01*
X143307145Y-71246847D01*
X143319016Y-71253420D01*
X143443476Y-71331384D01*
X143454748Y-71339337D01*
X143568273Y-71429128D01*
X143578464Y-71438124D01*
X143649541Y-71508057D01*
X143683708Y-71541674D01*
X143692517Y-71551288D01*
X143707871Y-71569892D01*
X143781833Y-71659512D01*
X143791259Y-71670934D01*
X143798538Y-71680676D01*
X143891622Y-71818676D01*
X143897410Y-71828128D01*
X143984900Y-71986232D01*
X143989358Y-71995095D01*
X144068626Y-72169466D01*
X144070904Y-72174478D01*
X144074249Y-72182572D01*
X144149343Y-72383814D01*
X144151793Y-72391041D01*
X144217855Y-72607353D01*
X144219995Y-72614360D01*
X144221765Y-72620754D01*
X144223806Y-72628960D01*
X144282729Y-72865906D01*
X144283971Y-72871434D01*
X144311758Y-73009716D01*
X144337571Y-73138173D01*
X144338445Y-73143008D01*
X144384694Y-73430861D01*
X144385291Y-73435022D01*
X144424361Y-73743604D01*
X144424760Y-73747163D01*
X144435822Y-73860238D01*
X144456717Y-74073825D01*
X144456928Y-74075984D01*
X144457185Y-74078983D01*
X144481266Y-74406457D01*
X144482841Y-74427876D01*
X144483002Y-74430422D01*
X144502511Y-74797746D01*
X144502571Y-74798883D01*
X144502665Y-74801005D01*
X144515607Y-75160122D01*
X144516633Y-75188604D01*
X144516684Y-75190358D01*
X144520838Y-75380073D01*
X144525590Y-75597104D01*
X144525613Y-75598550D01*
X144530001Y-76023494D01*
X144530005Y-76023887D01*
X144530011Y-76024970D01*
X144530148Y-76157876D01*
X144530466Y-76468947D01*
X144530464Y-76469864D01*
X144527571Y-76932157D01*
X144527564Y-76932847D01*
X144525471Y-77111206D01*
X144521925Y-77413397D01*
X144514448Y-77892764D01*
X144514150Y-77911842D01*
X144514145Y-77912145D01*
X144504858Y-78427894D01*
X144504855Y-78428032D01*
X144496397Y-78870932D01*
X144495404Y-78922917D01*
X144495399Y-78922944D01*
X144495090Y-78939226D01*
X144494719Y-78958752D01*
X144494719Y-78958766D01*
X144494422Y-78974343D01*
X144493952Y-78998931D01*
X144493955Y-78998957D01*
X144489547Y-79231021D01*
X144484930Y-79474114D01*
X144484917Y-79474334D01*
X144484874Y-79474583D01*
X144484251Y-79509595D01*
X144484175Y-79513838D01*
X144484172Y-79513986D01*
X144483713Y-79538189D01*
X144483488Y-79550020D01*
X144483519Y-79550270D01*
X144483522Y-79550480D01*
X144474761Y-80042555D01*
X144474751Y-80042729D01*
X144474715Y-80042940D01*
X144474704Y-80043569D01*
X144474704Y-80043577D01*
X144474064Y-80081736D01*
X144474062Y-80081866D01*
X144473597Y-80107981D01*
X144473410Y-80118464D01*
X144473437Y-80118683D01*
X144473441Y-80118858D01*
X144472527Y-80173341D01*
X144471794Y-80217016D01*
X144471792Y-80217056D01*
X144471784Y-80217097D01*
X144471782Y-80217214D01*
X144471782Y-80217215D01*
X144471161Y-80254666D01*
X144471155Y-80254666D01*
X144471161Y-80254691D01*
X144471093Y-80258727D01*
X144470663Y-80284361D01*
X144470517Y-80293038D01*
X144470523Y-80293088D01*
X144470524Y-80293106D01*
X144466384Y-80542848D01*
X144466204Y-80553692D01*
X144466202Y-80553731D01*
X144466189Y-80553803D01*
X144466186Y-80554009D01*
X144465543Y-80593548D01*
X144465530Y-80593590D01*
X144465542Y-80593590D01*
X144464943Y-80629692D01*
X144464951Y-80629752D01*
X144464952Y-80629818D01*
X144463534Y-80716996D01*
X144460977Y-80874155D01*
X144460958Y-80875296D01*
X144460954Y-80875365D01*
X144460941Y-80875440D01*
X144460319Y-80914525D01*
X144459721Y-80951296D01*
X144459731Y-80951374D01*
X144459732Y-80951438D01*
X144456062Y-81182211D01*
X144456058Y-81182289D01*
X144456042Y-81182379D01*
X144455438Y-81221406D01*
X144454853Y-81258203D01*
X144454864Y-81258295D01*
X144454866Y-81258374D01*
X144451518Y-81474795D01*
X144451513Y-81474887D01*
X144451495Y-81474995D01*
X144450894Y-81515195D01*
X144450343Y-81550781D01*
X144450356Y-81550887D01*
X144450358Y-81550971D01*
X144447329Y-81753435D01*
X144447324Y-81753536D01*
X144447302Y-81753661D01*
X144447155Y-81763893D01*
X144446753Y-81791882D01*
X144446752Y-81791956D01*
X144446299Y-81822274D01*
X144446192Y-81829409D01*
X144446208Y-81829531D01*
X144446210Y-81829635D01*
X144443495Y-82018497D01*
X144443489Y-82018618D01*
X144443464Y-82018762D01*
X144443458Y-82019200D01*
X144442931Y-82057682D01*
X144442930Y-82057767D01*
X144442691Y-82074437D01*
X144442403Y-82094458D01*
X144442422Y-82094604D01*
X144442425Y-82094722D01*
X144440035Y-82269350D01*
X144440021Y-82270358D01*
X144440014Y-82270500D01*
X144439986Y-82270664D01*
X144439914Y-82276218D01*
X144439493Y-82308867D01*
X144439471Y-82308867D01*
X144439492Y-82308964D01*
X144438981Y-82346312D01*
X144439004Y-82346486D01*
X144439007Y-82346610D01*
X144438738Y-82367448D01*
X144436906Y-82509406D01*
X144436898Y-82509562D01*
X144436866Y-82509753D01*
X144436859Y-82510333D01*
X144436859Y-82510334D01*
X144436400Y-82548631D01*
X144436399Y-82548746D01*
X144435966Y-82582352D01*
X144435927Y-82585337D01*
X144435951Y-82585523D01*
X144435955Y-82585696D01*
X144435492Y-82624346D01*
X144434290Y-82724690D01*
X144434154Y-82736007D01*
X144434145Y-82736182D01*
X144434108Y-82736407D01*
X144434101Y-82737069D01*
X144433853Y-82759757D01*
X144433682Y-82775355D01*
X144433244Y-82811921D01*
X144433273Y-82812141D01*
X144433278Y-82812346D01*
X144431768Y-82950524D01*
X144431757Y-82950748D01*
X144431715Y-82951001D01*
X144431582Y-82964648D01*
X144431330Y-82990552D01*
X144431328Y-82990701D01*
X144430946Y-83025689D01*
X144430938Y-83026440D01*
X144430971Y-83026689D01*
X144430976Y-83026898D01*
X144429745Y-83153429D01*
X144429730Y-83153747D01*
X144429670Y-83154115D01*
X144429661Y-83155195D01*
X144429661Y-83155204D01*
X144429607Y-83162050D01*
X144429359Y-83193220D01*
X144429008Y-83229270D01*
X144429058Y-83229643D01*
X144429066Y-83229961D01*
X144427444Y-83433775D01*
X144427422Y-83436484D01*
X144427401Y-83436953D01*
X144427314Y-83437493D01*
X144427110Y-83475256D01*
X144427104Y-83476342D01*
X144427102Y-83476663D01*
X144426891Y-83503254D01*
X144426819Y-83512247D01*
X144426891Y-83512779D01*
X144426904Y-83513246D01*
X144425919Y-83695548D01*
X144425894Y-83696133D01*
X144425791Y-83696785D01*
X144425777Y-83703131D01*
X144425704Y-83735350D01*
X144425702Y-83735748D01*
X144425591Y-83756345D01*
X144425510Y-83771240D01*
X144425602Y-83771904D01*
X144425620Y-83772482D01*
X144425260Y-83931435D01*
X144425255Y-83931555D01*
X144425233Y-83931699D01*
X144425232Y-83932127D01*
X144425232Y-83932135D01*
X144425172Y-83970317D01*
X144425172Y-83970601D01*
X144425089Y-84007399D01*
X144425110Y-84007549D01*
X144425114Y-84007671D01*
X144425052Y-84047855D01*
X144425050Y-84048981D01*
X144425032Y-84049429D01*
X144424952Y-84049949D01*
X144424953Y-84051441D01*
X144424953Y-84051450D01*
X144424987Y-84088645D01*
X144424987Y-84088956D01*
X144424938Y-84120518D01*
X144424931Y-84124752D01*
X144425004Y-84125265D01*
X144425020Y-84125719D01*
X144425136Y-84254705D01*
X144425052Y-84257361D01*
X144424694Y-84259874D01*
X144424758Y-84264747D01*
X144425163Y-84295569D01*
X144425174Y-84297061D01*
X144425203Y-84329711D01*
X144425565Y-84332221D01*
X144425679Y-84334913D01*
X144426381Y-84388309D01*
X144426643Y-84408263D01*
X144426279Y-84419633D01*
X144425809Y-84425710D01*
X144423854Y-84434475D01*
X144426294Y-84471911D01*
X144427565Y-84491423D01*
X144427821Y-84497961D01*
X144428073Y-84517191D01*
X144428767Y-84521620D01*
X144428767Y-84521623D01*
X144429197Y-84524369D01*
X144430447Y-84535668D01*
X144432296Y-84564048D01*
X144433315Y-84579681D01*
X144437086Y-84590027D01*
X144443185Y-84613670D01*
X144444889Y-84624548D01*
X144448712Y-84632671D01*
X144448712Y-84632672D01*
X144463669Y-84664454D01*
X144468042Y-84674953D01*
X144480074Y-84707959D01*
X144483150Y-84716397D01*
X144488468Y-84723629D01*
X144489668Y-84725261D01*
X144502160Y-84746246D01*
X144503028Y-84748091D01*
X144503030Y-84748094D01*
X144506850Y-84756211D01*
X144512796Y-84762931D01*
X144536077Y-84789244D01*
X144543219Y-84798090D01*
X144544927Y-84800412D01*
X144549384Y-84806473D01*
X144552834Y-84809901D01*
X144552837Y-84809905D01*
X144562570Y-84819577D01*
X144568119Y-84825457D01*
X144603275Y-84865191D01*
X144610875Y-84869976D01*
X144617713Y-84875785D01*
X144617460Y-84876083D01*
X144627262Y-84883879D01*
X144638700Y-84895236D01*
X144664608Y-84920984D01*
X144664686Y-84921042D01*
X144664742Y-84921094D01*
X144753730Y-85009451D01*
X144754089Y-85009835D01*
X144754455Y-85010329D01*
X144782067Y-85037587D01*
X144807458Y-85062798D01*
X144807950Y-85063164D01*
X144808343Y-85063526D01*
X144889395Y-85143540D01*
X144914346Y-85168171D01*
X144914842Y-85168698D01*
X144915325Y-85169344D01*
X144916943Y-85170929D01*
X144916957Y-85170944D01*
X144942699Y-85196162D01*
X144943043Y-85196500D01*
X144966556Y-85219712D01*
X144966574Y-85219728D01*
X144968172Y-85221306D01*
X144968818Y-85221784D01*
X144969361Y-85222281D01*
X145082091Y-85332718D01*
X145082485Y-85333134D01*
X145082874Y-85333652D01*
X145110532Y-85360580D01*
X145136163Y-85385690D01*
X145136691Y-85386077D01*
X145137125Y-85386472D01*
X145253074Y-85499363D01*
X145253351Y-85499654D01*
X145253625Y-85500016D01*
X145254559Y-85500922D01*
X145254570Y-85500933D01*
X145276730Y-85522415D01*
X145281638Y-85527173D01*
X145307391Y-85552246D01*
X145307756Y-85552512D01*
X145308049Y-85552777D01*
X145443376Y-85683965D01*
X145443619Y-85684201D01*
X145636982Y-85872662D01*
X145637590Y-85873259D01*
X145816119Y-86049959D01*
X145821844Y-86055625D01*
X145822610Y-86056390D01*
X145999497Y-86234498D01*
X146000339Y-86235354D01*
X146169816Y-86409285D01*
X146170663Y-86410162D01*
X146274781Y-86519284D01*
X146333246Y-86580559D01*
X146334188Y-86581557D01*
X146490139Y-86748803D01*
X146491019Y-86749759D01*
X146540600Y-86804275D01*
X146640451Y-86914065D01*
X146641557Y-86915297D01*
X146784858Y-87077172D01*
X146785985Y-87078465D01*
X146923405Y-87238268D01*
X146924594Y-87239672D01*
X147056559Y-87397955D01*
X147057845Y-87399523D01*
X147184613Y-87556649D01*
X147185934Y-87558315D01*
X147307846Y-87714752D01*
X147309187Y-87716505D01*
X147426615Y-87872759D01*
X147427968Y-87874593D01*
X147541210Y-88031093D01*
X147542557Y-88032992D01*
X147574507Y-88078909D01*
X147640342Y-88173525D01*
X147651972Y-88190240D01*
X147653301Y-88192188D01*
X147675924Y-88226040D01*
X147759260Y-88350737D01*
X147760535Y-88352685D01*
X147863341Y-88512987D01*
X147864503Y-88514837D01*
X147954396Y-88660999D01*
X147964547Y-88677504D01*
X147965740Y-88679486D01*
X148018358Y-88768734D01*
X148063191Y-88844778D01*
X148064347Y-88846779D01*
X148159613Y-89015357D01*
X148160703Y-89017328D01*
X148254056Y-89189642D01*
X148255077Y-89191565D01*
X148346874Y-89368227D01*
X148347821Y-89370088D01*
X148377535Y-89429665D01*
X148425071Y-89524974D01*
X148438273Y-89551445D01*
X148439131Y-89553199D01*
X148476444Y-89631064D01*
X148528652Y-89740014D01*
X148529450Y-89741714D01*
X148618090Y-89933993D01*
X148618817Y-89935597D01*
X148707066Y-90134286D01*
X148707722Y-90135790D01*
X148795685Y-90340995D01*
X148796273Y-90342390D01*
X148838297Y-90443774D01*
X148879790Y-90543875D01*
X148884253Y-90554643D01*
X148884779Y-90555932D01*
X148973098Y-90775839D01*
X148973564Y-90777016D01*
X149017561Y-90889830D01*
X149053694Y-90982479D01*
X149062406Y-91004819D01*
X149062817Y-91005889D01*
X149152395Y-91241900D01*
X149152756Y-91242863D01*
X149176093Y-91305894D01*
X149225674Y-91439808D01*
X149228172Y-91446556D01*
X149233243Y-91464038D01*
X149238897Y-91490566D01*
X149243156Y-91498465D01*
X149256524Y-91523258D01*
X149256707Y-91523626D01*
X149256878Y-91524089D01*
X149257553Y-91525333D01*
X149257553Y-91525334D01*
X149273506Y-91554757D01*
X149273646Y-91555015D01*
X149301304Y-91606310D01*
X149307956Y-91618648D01*
X149308384Y-91619082D01*
X149308674Y-91619616D01*
X149359525Y-91670883D01*
X149410189Y-91722201D01*
X149410719Y-91722496D01*
X149411148Y-91722928D01*
X149425584Y-91730908D01*
X149474298Y-91757837D01*
X149474556Y-91757980D01*
X149529689Y-91788626D01*
X149529691Y-91788627D01*
X149537375Y-91792898D01*
X149537966Y-91793032D01*
X149538500Y-91793327D01*
X149609077Y-91809145D01*
X149609367Y-91809211D01*
X149670742Y-91823119D01*
X149670744Y-91823119D01*
X149679291Y-91825056D01*
X149679897Y-91825019D01*
X149680492Y-91825152D01*
X149689233Y-91824592D01*
X149689236Y-91824592D01*
X149742535Y-91821176D01*
X149752657Y-91820527D01*
X149790544Y-91818189D01*
X149815733Y-91816634D01*
X149824530Y-91816091D01*
X149825101Y-91815885D01*
X149825709Y-91815846D01*
X149834003Y-91812833D01*
X149834006Y-91812832D01*
X149893639Y-91791166D01*
X149929705Y-91778158D01*
X149930140Y-91777920D01*
X149930511Y-91777770D01*
X149962476Y-91766156D01*
X149987499Y-91747796D01*
X150001560Y-91738848D01*
X150016073Y-91730908D01*
X150027289Y-91725474D01*
X150030236Y-91724222D01*
X150030241Y-91724219D01*
X150034722Y-91722316D01*
X150038857Y-91719745D01*
X150038864Y-91719742D01*
X150053380Y-91710719D01*
X150059415Y-91707195D01*
X150075975Y-91698136D01*
X150083080Y-91692815D01*
X150092096Y-91686654D01*
X150103117Y-91679804D01*
X150150456Y-91650379D01*
X150216625Y-91609250D01*
X150225381Y-91604281D01*
X150233676Y-91600002D01*
X150233678Y-91600001D01*
X150238007Y-91597768D01*
X150241937Y-91594899D01*
X150241945Y-91594894D01*
X150250893Y-91588362D01*
X150258658Y-91583124D01*
X150265773Y-91578701D01*
X150265778Y-91578698D01*
X150269580Y-91576334D01*
X150281095Y-91566667D01*
X150287813Y-91561405D01*
X150414421Y-91468970D01*
X150423664Y-91462827D01*
X150433542Y-91456873D01*
X150447794Y-91444946D01*
X150454352Y-91439815D01*
X150466862Y-91430682D01*
X150475686Y-91422076D01*
X150482790Y-91415656D01*
X150597626Y-91319547D01*
X150605423Y-91313734D01*
X150607984Y-91311741D01*
X150612049Y-91309053D01*
X150631503Y-91291337D01*
X150635474Y-91287870D01*
X150649853Y-91275837D01*
X150649858Y-91275832D01*
X150653290Y-91272960D01*
X150656288Y-91269621D01*
X150656376Y-91269536D01*
X150665169Y-91260680D01*
X150725868Y-91205407D01*
X150731493Y-91200858D01*
X150731451Y-91200808D01*
X150735175Y-91197680D01*
X150739133Y-91194845D01*
X150742602Y-91191441D01*
X150742609Y-91191435D01*
X150758928Y-91175421D01*
X150762341Y-91172195D01*
X150777267Y-91158603D01*
X150777278Y-91158592D01*
X150780584Y-91155581D01*
X150783433Y-91152128D01*
X150786323Y-91149094D01*
X150791428Y-91143529D01*
X150792933Y-91142053D01*
X150920380Y-91016992D01*
X150963863Y-90974323D01*
X150973768Y-90965575D01*
X150974741Y-90964803D01*
X150974747Y-90964798D01*
X150978562Y-90961769D01*
X150994778Y-90944201D01*
X150999092Y-90939753D01*
X151013954Y-90925169D01*
X151018155Y-90919673D01*
X151025670Y-90910733D01*
X151036463Y-90899040D01*
X151197444Y-90724636D01*
X151206972Y-90715350D01*
X151207752Y-90714666D01*
X151207760Y-90714657D01*
X151211418Y-90711451D01*
X151226358Y-90693591D01*
X151226883Y-90692964D01*
X151230938Y-90688349D01*
X151242160Y-90676191D01*
X151242161Y-90676190D01*
X151245192Y-90672906D01*
X151248998Y-90667381D01*
X151256114Y-90658020D01*
X151424303Y-90456956D01*
X151433464Y-90447120D01*
X151433964Y-90446637D01*
X151437469Y-90443256D01*
X151452252Y-90423765D01*
X151455984Y-90419082D01*
X151466815Y-90406134D01*
X151469692Y-90402695D01*
X151473039Y-90397289D01*
X151479776Y-90387477D01*
X151515032Y-90340995D01*
X151644242Y-90170639D01*
X151653044Y-90160251D01*
X151656542Y-90156550D01*
X151670665Y-90136024D01*
X151674075Y-90131306D01*
X151684550Y-90117495D01*
X151687261Y-90113921D01*
X151690110Y-90108786D01*
X151696481Y-90098502D01*
X151714556Y-90072233D01*
X151808568Y-89935597D01*
X151857098Y-89865065D01*
X151864857Y-89855018D01*
X151865342Y-89854360D01*
X151868522Y-89850680D01*
X151882024Y-89829056D01*
X151885085Y-89824389D01*
X151886940Y-89821692D01*
X151897763Y-89805962D01*
X151900128Y-89801193D01*
X151906119Y-89790466D01*
X151929970Y-89752266D01*
X152062795Y-89539536D01*
X152068872Y-89530918D01*
X152070308Y-89528787D01*
X152073329Y-89524974D01*
X152082211Y-89509304D01*
X152086196Y-89502272D01*
X152088927Y-89497683D01*
X152093189Y-89490857D01*
X152098743Y-89481963D01*
X152098747Y-89481955D01*
X152101113Y-89478166D01*
X152103006Y-89473880D01*
X152108642Y-89462668D01*
X152115726Y-89450170D01*
X152162168Y-89368227D01*
X152261255Y-89193400D01*
X152265629Y-89186615D01*
X152268066Y-89182663D01*
X152270932Y-89178729D01*
X152273158Y-89174403D01*
X152273161Y-89174398D01*
X152283190Y-89154906D01*
X152285596Y-89150453D01*
X152297267Y-89129861D01*
X152298905Y-89125680D01*
X152299435Y-89124567D01*
X152304005Y-89114453D01*
X152451509Y-88827784D01*
X152454432Y-88822426D01*
X152456199Y-88819366D01*
X152458953Y-88815348D01*
X152461054Y-88810958D01*
X152461057Y-88810953D01*
X152472089Y-88787902D01*
X152473685Y-88784687D01*
X152486216Y-88760333D01*
X152487681Y-88756098D01*
X152489445Y-88751973D01*
X152489604Y-88752041D01*
X152491734Y-88746856D01*
X152547427Y-88630492D01*
X152549512Y-88626445D01*
X152551592Y-88623285D01*
X152553607Y-88618866D01*
X152553611Y-88618859D01*
X152565571Y-88592631D01*
X152566561Y-88590513D01*
X152577842Y-88566943D01*
X152577845Y-88566936D01*
X152579774Y-88562905D01*
X152580903Y-88559310D01*
X152582748Y-88554964D01*
X152638537Y-88432622D01*
X152640462Y-88428710D01*
X152642429Y-88425604D01*
X152644367Y-88421142D01*
X152644375Y-88421128D01*
X152655940Y-88394506D01*
X152656843Y-88392478D01*
X152669619Y-88364462D01*
X152670652Y-88360942D01*
X152672338Y-88356762D01*
X152674956Y-88350737D01*
X152727827Y-88229043D01*
X152729609Y-88225257D01*
X152731466Y-88222207D01*
X152744498Y-88190721D01*
X152745351Y-88188712D01*
X152755892Y-88164449D01*
X152755895Y-88164441D01*
X152757680Y-88160332D01*
X152758619Y-88156908D01*
X152760156Y-88152892D01*
X152815317Y-88019621D01*
X152816959Y-88015971D01*
X152818705Y-88012990D01*
X152831265Y-87981135D01*
X152832011Y-87979287D01*
X152843961Y-87950415D01*
X152844815Y-87947073D01*
X152846229Y-87943182D01*
X152900984Y-87804303D01*
X152902501Y-87800775D01*
X152904149Y-87797854D01*
X152905966Y-87793017D01*
X152916257Y-87765613D01*
X152916960Y-87763784D01*
X152928464Y-87734606D01*
X152929235Y-87731364D01*
X152930517Y-87727643D01*
X152984863Y-87582923D01*
X152986253Y-87579541D01*
X152987803Y-87576690D01*
X152999436Y-87544162D01*
X153000116Y-87542308D01*
X153009617Y-87517008D01*
X153009619Y-87517002D01*
X153011196Y-87512802D01*
X153011893Y-87509638D01*
X153013064Y-87506056D01*
X153022277Y-87480294D01*
X153066933Y-87355430D01*
X153068211Y-87352178D01*
X153069672Y-87349390D01*
X153080874Y-87316492D01*
X153081496Y-87314711D01*
X153090651Y-87289111D01*
X153092159Y-87284895D01*
X153092785Y-87281829D01*
X153093849Y-87278392D01*
X153147209Y-87121690D01*
X153148385Y-87118560D01*
X153149754Y-87115851D01*
X153160528Y-87082613D01*
X153161105Y-87080879D01*
X153169911Y-87055018D01*
X153171357Y-87050772D01*
X153171916Y-87047802D01*
X153172880Y-87044513D01*
X153225689Y-86881605D01*
X153226769Y-86878601D01*
X153228056Y-86875962D01*
X153238391Y-86842464D01*
X153238932Y-86840753D01*
X153244029Y-86825032D01*
X153248794Y-86810332D01*
X153249293Y-86807445D01*
X153250173Y-86804275D01*
X153280689Y-86705366D01*
X153302378Y-86635065D01*
X153303370Y-86632179D01*
X153304580Y-86629610D01*
X153314513Y-86595772D01*
X153314988Y-86594196D01*
X153324472Y-86563456D01*
X153324915Y-86560658D01*
X153325709Y-86557635D01*
X153347183Y-86484484D01*
X153377278Y-86381962D01*
X153378191Y-86379186D01*
X153379327Y-86376688D01*
X153381185Y-86370035D01*
X153388855Y-86342570D01*
X153389313Y-86340972D01*
X153397128Y-86314348D01*
X153397131Y-86314334D01*
X153398393Y-86310035D01*
X153398783Y-86307333D01*
X153399504Y-86304428D01*
X153427326Y-86204789D01*
X153450396Y-86122166D01*
X153451231Y-86119512D01*
X153452297Y-86117086D01*
X153461443Y-86082642D01*
X153461831Y-86081217D01*
X153469353Y-86054278D01*
X153470559Y-86049959D01*
X153470901Y-86047344D01*
X153471554Y-86044559D01*
X153521725Y-85855599D01*
X153522495Y-85853039D01*
X153523494Y-85850686D01*
X153532237Y-85816042D01*
X153532624Y-85814550D01*
X153539819Y-85787454D01*
X153539821Y-85787446D01*
X153540971Y-85783113D01*
X153541270Y-85780576D01*
X153541856Y-85777926D01*
X153591271Y-85582126D01*
X153591981Y-85579657D01*
X153592915Y-85577382D01*
X153601278Y-85542505D01*
X153601632Y-85541069D01*
X153608529Y-85513739D01*
X153609629Y-85509382D01*
X153609887Y-85506932D01*
X153610419Y-85504382D01*
X153667568Y-85266051D01*
X153667762Y-85265256D01*
X153723327Y-85039989D01*
X153724194Y-85036669D01*
X153786972Y-84809009D01*
X153788104Y-84805144D01*
X153791716Y-84793511D01*
X153860134Y-84573143D01*
X153861595Y-84568725D01*
X153872799Y-84536850D01*
X153943651Y-84335277D01*
X153945528Y-84330281D01*
X153958236Y-84298502D01*
X154038248Y-84098409D01*
X154040643Y-84092816D01*
X154042040Y-84089761D01*
X154144584Y-83865422D01*
X154147628Y-83859218D01*
X154153045Y-83848904D01*
X154263221Y-83639136D01*
X154267069Y-83632333D01*
X154268489Y-83629995D01*
X154394597Y-83422317D01*
X154399424Y-83414960D01*
X154399489Y-83414869D01*
X154483083Y-83296680D01*
X154539102Y-83217479D01*
X154545098Y-83209667D01*
X154697172Y-83026824D01*
X154704508Y-83018743D01*
X154869308Y-82852297D01*
X154878107Y-82844216D01*
X154917588Y-82811263D01*
X155056387Y-82695415D01*
X155066657Y-82687697D01*
X155259790Y-82557444D01*
X155271432Y-82550473D01*
X155481539Y-82439616D01*
X155494272Y-82433778D01*
X155586633Y-82397500D01*
X155724328Y-82343416D01*
X155737700Y-82339009D01*
X155978405Y-82274356D01*
X155997043Y-82269350D01*
X156008208Y-82266888D01*
X156174364Y-82238086D01*
X156183044Y-82236891D01*
X156325330Y-82222315D01*
X156366665Y-82218081D01*
X156375150Y-82217500D01*
X156431007Y-82215572D01*
X156567840Y-82210849D01*
X156576289Y-82210841D01*
X156775183Y-82217320D01*
X156783705Y-82217887D01*
X156908389Y-82230443D01*
X156986174Y-82238276D01*
X156994848Y-82239454D01*
X157057657Y-82250230D01*
X157198276Y-82274356D01*
X157207184Y-82276218D01*
X157287844Y-82296141D01*
X157409166Y-82326108D01*
X157418313Y-82328738D01*
X157535967Y-82367448D01*
X157616611Y-82393981D01*
X157626024Y-82397500D01*
X157818620Y-82478392D01*
X157828228Y-82482912D01*
X158013370Y-82579753D01*
X158023053Y-82585380D01*
X158199309Y-82698577D01*
X158208897Y-82705389D01*
X158375054Y-82835519D01*
X158384341Y-82843552D01*
X158539504Y-82991587D01*
X158548216Y-83000779D01*
X158691533Y-83168077D01*
X158699400Y-83178272D01*
X158829992Y-83366715D01*
X158836785Y-83377678D01*
X158957587Y-83596986D01*
X158961788Y-83605330D01*
X158970419Y-83624183D01*
X158974305Y-83633674D01*
X159035469Y-83802331D01*
X159038789Y-83812917D01*
X159094948Y-84024174D01*
X159096698Y-84031674D01*
X159148778Y-84290325D01*
X159149628Y-84294998D01*
X159180320Y-84483988D01*
X159180765Y-84486951D01*
X159209077Y-84691992D01*
X159209389Y-84694432D01*
X159234945Y-84910573D01*
X159235167Y-84912584D01*
X159258151Y-85137951D01*
X159258309Y-85139607D01*
X159267237Y-85240299D01*
X159278148Y-85363354D01*
X159278927Y-85372142D01*
X159279033Y-85373425D01*
X159288108Y-85490057D01*
X159297546Y-85611366D01*
X159297626Y-85612456D01*
X159314310Y-85853945D01*
X159314366Y-85854797D01*
X159329526Y-86098215D01*
X159329564Y-86098848D01*
X159343420Y-86340972D01*
X159343491Y-86342217D01*
X159343515Y-86342641D01*
X159356576Y-86585182D01*
X159356587Y-86585397D01*
X159366993Y-86784984D01*
X159366994Y-86785063D01*
X159366986Y-86785142D01*
X159366998Y-86785368D01*
X159366998Y-86785379D01*
X159367991Y-86804275D01*
X159369083Y-86825078D01*
X159370951Y-86860898D01*
X159370966Y-86860974D01*
X159370972Y-86861039D01*
X159380662Y-87045538D01*
X159380666Y-87045789D01*
X159380635Y-87046097D01*
X159380683Y-87046984D01*
X159380683Y-87046995D01*
X159380887Y-87050772D01*
X159382744Y-87085184D01*
X159384642Y-87121313D01*
X159384702Y-87121616D01*
X159384724Y-87121867D01*
X159394011Y-87293963D01*
X159394016Y-87294250D01*
X159393983Y-87294584D01*
X159396154Y-87333649D01*
X159398100Y-87369715D01*
X159398166Y-87370048D01*
X159398192Y-87370330D01*
X159399931Y-87401632D01*
X159407079Y-87530276D01*
X159407084Y-87530583D01*
X159407048Y-87530954D01*
X159409271Y-87569730D01*
X159411286Y-87605993D01*
X159411359Y-87606357D01*
X159411390Y-87606692D01*
X159419880Y-87754781D01*
X159419887Y-87755145D01*
X159419848Y-87755557D01*
X159421053Y-87775869D01*
X159422086Y-87793291D01*
X159422172Y-87794745D01*
X159424221Y-87830491D01*
X159424302Y-87830893D01*
X159424336Y-87831254D01*
X159432438Y-87967887D01*
X159432447Y-87968290D01*
X159432404Y-87968746D01*
X159432485Y-87970061D01*
X159432485Y-87970068D01*
X159434804Y-88007791D01*
X159434817Y-88008002D01*
X159436925Y-88043562D01*
X159437017Y-88044016D01*
X159437054Y-88044392D01*
X159438105Y-88061500D01*
X159444778Y-88170065D01*
X159444795Y-88170752D01*
X159444725Y-88171537D01*
X159446657Y-88201166D01*
X159447217Y-88209762D01*
X159447247Y-88210228D01*
X159448943Y-88237813D01*
X159449419Y-88245560D01*
X159449576Y-88246320D01*
X159449645Y-88247019D01*
X159457318Y-88364713D01*
X159468125Y-88530478D01*
X159468862Y-88541789D01*
X159468896Y-88542945D01*
X159468791Y-88544198D01*
X159470911Y-88573973D01*
X159471470Y-88581832D01*
X159471521Y-88582583D01*
X159472632Y-88599623D01*
X159473768Y-88617055D01*
X159474027Y-88618282D01*
X159474147Y-88619439D01*
X159492261Y-88873942D01*
X159492314Y-88875412D01*
X159492196Y-88876962D01*
X159492519Y-88881069D01*
X159495114Y-88914069D01*
X159495176Y-88914894D01*
X159497607Y-88949046D01*
X159497937Y-88950567D01*
X159498100Y-88952039D01*
X159501807Y-88999189D01*
X159515153Y-89168917D01*
X159515238Y-89170825D01*
X159515109Y-89172758D01*
X159518321Y-89209276D01*
X159518417Y-89210430D01*
X159521046Y-89243856D01*
X159521468Y-89245739D01*
X159521697Y-89247660D01*
X159537707Y-89429665D01*
X159537845Y-89432172D01*
X159537712Y-89434587D01*
X159538195Y-89439430D01*
X159538195Y-89439431D01*
X159541271Y-89470279D01*
X159541408Y-89471739D01*
X159543689Y-89497663D01*
X159544282Y-89504408D01*
X159544835Y-89506767D01*
X159545163Y-89509293D01*
X159548693Y-89544695D01*
X159560105Y-89659134D01*
X159560434Y-89663815D01*
X159560295Y-89667668D01*
X159560869Y-89672495D01*
X159564256Y-89700988D01*
X159564515Y-89703357D01*
X159567541Y-89733695D01*
X159568462Y-89737433D01*
X159569162Y-89742241D01*
X159591233Y-89927851D01*
X159593652Y-89948198D01*
X159594002Y-89954354D01*
X159594197Y-89954340D01*
X159594551Y-89959196D01*
X159594530Y-89964064D01*
X159595258Y-89968877D01*
X159598950Y-89993296D01*
X159599484Y-89997253D01*
X159602598Y-90023437D01*
X159603753Y-90027770D01*
X159604597Y-90032171D01*
X159604489Y-90032192D01*
X159605745Y-90038223D01*
X159629306Y-90194011D01*
X159630564Y-90206529D01*
X159630954Y-90214292D01*
X159635483Y-90236107D01*
X159636696Y-90242878D01*
X159639560Y-90261815D01*
X159642018Y-90269980D01*
X159642027Y-90270011D01*
X159644741Y-90280707D01*
X159667893Y-90392229D01*
X159682967Y-90464841D01*
X159683718Y-90468775D01*
X159688916Y-90498538D01*
X159690479Y-90503140D01*
X159690583Y-90503547D01*
X159691845Y-90507605D01*
X159692684Y-90511646D01*
X159703519Y-90541614D01*
X159704298Y-90543839D01*
X159753371Y-90688353D01*
X159756660Y-90699784D01*
X159757326Y-90702590D01*
X159758139Y-90711532D01*
X159770806Y-90743697D01*
X159779564Y-90765937D01*
X159781634Y-90771585D01*
X159788209Y-90790948D01*
X159790899Y-90796249D01*
X159795767Y-90807082D01*
X159797323Y-90811031D01*
X159799108Y-90815562D01*
X159801565Y-90819759D01*
X159801566Y-90819761D01*
X159809148Y-90832713D01*
X159812772Y-90839352D01*
X159825806Y-90865036D01*
X159837383Y-90887851D01*
X159839497Y-90890102D01*
X159839740Y-90890516D01*
X159840732Y-90893655D01*
X159845734Y-90901115D01*
X159845735Y-90901117D01*
X159870843Y-90938563D01*
X159874930Y-90945081D01*
X159880978Y-90955414D01*
X159880990Y-90955432D01*
X159883247Y-90959287D01*
X159886032Y-90962789D01*
X159886037Y-90962796D01*
X159889556Y-90967220D01*
X159895598Y-90975484D01*
X159902997Y-90986519D01*
X159906296Y-90990095D01*
X159913709Y-90998131D01*
X159919711Y-91005135D01*
X159942230Y-91033449D01*
X159950887Y-91044334D01*
X159958223Y-91049510D01*
X159964749Y-91055671D01*
X159964739Y-91055682D01*
X159975538Y-91065155D01*
X160023041Y-91116649D01*
X160030903Y-91127284D01*
X160031103Y-91127125D01*
X160036681Y-91134163D01*
X160041203Y-91141918D01*
X160078963Y-91177689D01*
X160084919Y-91183725D01*
X160088543Y-91187653D01*
X160094767Y-91194400D01*
X160102178Y-91200435D01*
X160104188Y-91202072D01*
X160111265Y-91208291D01*
X160146840Y-91241993D01*
X160154826Y-91246089D01*
X160161434Y-91250768D01*
X160165134Y-91253185D01*
X160172068Y-91257353D01*
X160179026Y-91263019D01*
X160207994Y-91275231D01*
X160224169Y-91282050D01*
X160232722Y-91286040D01*
X160268327Y-91304300D01*
X160268329Y-91304301D01*
X160276320Y-91308399D01*
X160285135Y-91310089D01*
X160292786Y-91312724D01*
X160297008Y-91314003D01*
X160304845Y-91316060D01*
X160313113Y-91319545D01*
X160361764Y-91325138D01*
X160371095Y-91326567D01*
X160381345Y-91328532D01*
X160381355Y-91328533D01*
X160386127Y-91329448D01*
X160390985Y-91329618D01*
X160390986Y-91329618D01*
X160398242Y-91329872D01*
X160399970Y-91329932D01*
X160409957Y-91330680D01*
X160457675Y-91336166D01*
X160466523Y-91334647D01*
X160469661Y-91334560D01*
X160491038Y-91333115D01*
X160778115Y-91343147D01*
X160886957Y-91346950D01*
X160893276Y-91347538D01*
X160898673Y-91349164D01*
X160907645Y-91349238D01*
X160907647Y-91349238D01*
X160932834Y-91349445D01*
X160964540Y-91349705D01*
X160967858Y-91349777D01*
X160994318Y-91350702D01*
X160998773Y-91350222D01*
X161001253Y-91350132D01*
X161006851Y-91350053D01*
X161023425Y-91350189D01*
X161044182Y-91350360D01*
X161055600Y-91347123D01*
X161062532Y-91345158D01*
X161083403Y-91341105D01*
X161102358Y-91339063D01*
X161135714Y-91325282D01*
X161149449Y-91320516D01*
X161175540Y-91313119D01*
X161175543Y-91313118D01*
X161184180Y-91310669D01*
X161191781Y-91305895D01*
X161191784Y-91305894D01*
X161200335Y-91300524D01*
X161219233Y-91290775D01*
X161222201Y-91289549D01*
X161236846Y-91283498D01*
X161259971Y-91264939D01*
X161264989Y-91260912D01*
X161270856Y-91256737D01*
X161270827Y-91256698D01*
X161274745Y-91253793D01*
X161278863Y-91251207D01*
X161298645Y-91234024D01*
X161302403Y-91230886D01*
X161343333Y-91198038D01*
X161343334Y-91198037D01*
X161350333Y-91192420D01*
X161354930Y-91185843D01*
X161356399Y-91184427D01*
X161356319Y-91184347D01*
X161359483Y-91181177D01*
X161362871Y-91178234D01*
X161370407Y-91169526D01*
X161377148Y-91162326D01*
X161474107Y-91066610D01*
X161479034Y-91062304D01*
X161478935Y-91062195D01*
X161482540Y-91058933D01*
X161486394Y-91055953D01*
X161506265Y-91034965D01*
X161509182Y-91031987D01*
X161527552Y-91013852D01*
X161530263Y-91010283D01*
X161533222Y-91006914D01*
X161533271Y-91006957D01*
X161537509Y-91001964D01*
X161638734Y-90895049D01*
X161641601Y-90892198D01*
X161644341Y-90890003D01*
X161667364Y-90864836D01*
X161668768Y-90863326D01*
X161690208Y-90840681D01*
X161692228Y-90837825D01*
X161694993Y-90834634D01*
X161798388Y-90721611D01*
X161800273Y-90719680D01*
X161802260Y-90718048D01*
X161818557Y-90699784D01*
X161825987Y-90691458D01*
X161827032Y-90690301D01*
X161845981Y-90669587D01*
X161849010Y-90666276D01*
X161850457Y-90664155D01*
X161852231Y-90662046D01*
X161855824Y-90658020D01*
X161994012Y-90503153D01*
X161995268Y-90501839D01*
X161996697Y-90500643D01*
X161999862Y-90497031D01*
X161999875Y-90497018D01*
X162020945Y-90472976D01*
X162021692Y-90472131D01*
X162041086Y-90450397D01*
X162044070Y-90447053D01*
X162045099Y-90445503D01*
X162046271Y-90444079D01*
X162112404Y-90368621D01*
X162147315Y-90328788D01*
X162148174Y-90327875D01*
X162149210Y-90326997D01*
X162173934Y-90298417D01*
X162174323Y-90297971D01*
X162194612Y-90274822D01*
X162194614Y-90274820D01*
X162196994Y-90272104D01*
X162197735Y-90270967D01*
X162198534Y-90269980D01*
X162220284Y-90244838D01*
X162319157Y-90130544D01*
X162319925Y-90129718D01*
X162320870Y-90128908D01*
X162330627Y-90117495D01*
X162345404Y-90100208D01*
X162345887Y-90099646D01*
X162366329Y-90076016D01*
X162366332Y-90076013D01*
X162368501Y-90073505D01*
X162369170Y-90072464D01*
X162369887Y-90071567D01*
X162414838Y-90018984D01*
X162461786Y-89964064D01*
X162511166Y-89906299D01*
X162511866Y-89905537D01*
X162512724Y-89904793D01*
X162514723Y-89902429D01*
X162514732Y-89902419D01*
X162537254Y-89875782D01*
X162537587Y-89875390D01*
X162560204Y-89848933D01*
X162560814Y-89847970D01*
X162561454Y-89847161D01*
X162569976Y-89837083D01*
X162641692Y-89752266D01*
X162724392Y-89654460D01*
X162725028Y-89653761D01*
X162725813Y-89653073D01*
X162750267Y-89623861D01*
X162750571Y-89623499D01*
X162771298Y-89598985D01*
X162771300Y-89598983D01*
X162773147Y-89596798D01*
X162773701Y-89595914D01*
X162774292Y-89595158D01*
X162960401Y-89372825D01*
X162984524Y-89344007D01*
X163117472Y-89185777D01*
X163118038Y-89185109D01*
X163251981Y-89028320D01*
X163252641Y-89027553D01*
X163346247Y-88919747D01*
X163388952Y-88870564D01*
X163389580Y-88869847D01*
X163395317Y-88863345D01*
X163527966Y-88712993D01*
X163528623Y-88712254D01*
X163550168Y-88688216D01*
X163669052Y-88555579D01*
X163669607Y-88554964D01*
X163763725Y-88451588D01*
X163811903Y-88398671D01*
X163812565Y-88397950D01*
X163893808Y-88310096D01*
X163956246Y-88242578D01*
X163956875Y-88241903D01*
X163957443Y-88241299D01*
X164102043Y-88087352D01*
X164102550Y-88086817D01*
X164248886Y-87933443D01*
X164249566Y-87932737D01*
X164396616Y-87781030D01*
X164397320Y-87780309D01*
X164545335Y-87630031D01*
X164546057Y-87629304D01*
X164620139Y-87555302D01*
X164694564Y-87480959D01*
X164695162Y-87480366D01*
X164844015Y-87334123D01*
X164844677Y-87333479D01*
X164993470Y-87189761D01*
X164994266Y-87188999D01*
X165143124Y-87047716D01*
X165143953Y-87046936D01*
X165153267Y-87038255D01*
X165285156Y-86915322D01*
X165292341Y-86908625D01*
X165293117Y-86907908D01*
X165441217Y-86772434D01*
X165441901Y-86771815D01*
X165587918Y-86640835D01*
X165589353Y-86639568D01*
X165881596Y-86385469D01*
X165883693Y-86383686D01*
X166081042Y-86219738D01*
X166169039Y-86146634D01*
X166171508Y-86144636D01*
X166449041Y-85925658D01*
X166451918Y-85923454D01*
X166468820Y-85910890D01*
X166520245Y-85872662D01*
X166719612Y-85724459D01*
X166723031Y-85722005D01*
X166881965Y-85611904D01*
X166978559Y-85544989D01*
X166982684Y-85542250D01*
X167223302Y-85389274D01*
X167228458Y-85386166D01*
X167248779Y-85374572D01*
X167454473Y-85257212D01*
X167459603Y-85254440D01*
X167475148Y-85246501D01*
X167676756Y-85143536D01*
X167680669Y-85141623D01*
X167686726Y-85138790D01*
X167885663Y-85045731D01*
X167912862Y-85033008D01*
X167916508Y-85031372D01*
X168041433Y-84977695D01*
X168160380Y-84926587D01*
X168163736Y-84925203D01*
X168332498Y-84858466D01*
X168418105Y-84824613D01*
X168421303Y-84823398D01*
X168572887Y-84768164D01*
X168685215Y-84727235D01*
X168688169Y-84726201D01*
X168960375Y-84634774D01*
X168963242Y-84633849D01*
X168993296Y-84624548D01*
X169242782Y-84547339D01*
X169245512Y-84546528D01*
X169531405Y-84465109D01*
X169533951Y-84464414D01*
X169825020Y-84388303D01*
X169827522Y-84387676D01*
X170122875Y-84316995D01*
X170125278Y-84316446D01*
X170423769Y-84251372D01*
X170426131Y-84250881D01*
X170726741Y-84191550D01*
X170729107Y-84191106D01*
X171030870Y-84137635D01*
X171033218Y-84137243D01*
X171335048Y-84089761D01*
X171337464Y-84089405D01*
X171638365Y-84048026D01*
X171640807Y-84047714D01*
X171943333Y-84012117D01*
X171944410Y-84011995D01*
X171986593Y-84007399D01*
X172249231Y-83978784D01*
X172250045Y-83978725D01*
X172250986Y-83978764D01*
X172266735Y-83976977D01*
X172288933Y-83974459D01*
X172289490Y-83974397D01*
X172311835Y-83971962D01*
X172324332Y-83970601D01*
X172325238Y-83970368D01*
X172326076Y-83970245D01*
X172555199Y-83944252D01*
X172556770Y-83944129D01*
X172558421Y-83944184D01*
X172571519Y-83942593D01*
X172595186Y-83939720D01*
X172596169Y-83939604D01*
X172605210Y-83938578D01*
X172629979Y-83935768D01*
X172631572Y-83935352D01*
X172633162Y-83935108D01*
X172823787Y-83911960D01*
X172826562Y-83911713D01*
X172829184Y-83911768D01*
X172833994Y-83911122D01*
X172834011Y-83911121D01*
X172864501Y-83907025D01*
X172866046Y-83906827D01*
X172898241Y-83902918D01*
X172900771Y-83902237D01*
X172903549Y-83901780D01*
X173005429Y-83888097D01*
X173059382Y-83880851D01*
X173064124Y-83880354D01*
X173068039Y-83880361D01*
X173072852Y-83879620D01*
X173072855Y-83879620D01*
X173101102Y-83875272D01*
X173103499Y-83874926D01*
X173129198Y-83871475D01*
X173129203Y-83871474D01*
X173133648Y-83870877D01*
X173137404Y-83869814D01*
X173142247Y-83868939D01*
X173186851Y-83862074D01*
X173267583Y-83849649D01*
X173274656Y-83848983D01*
X173274647Y-83848904D01*
X173279481Y-83848360D01*
X173284345Y-83848190D01*
X173289120Y-83847275D01*
X173289127Y-83847274D01*
X173311790Y-83842930D01*
X173316346Y-83842143D01*
X173336489Y-83839043D01*
X173336491Y-83839043D01*
X173340926Y-83838360D01*
X173345224Y-83837054D01*
X173349578Y-83836063D01*
X173349580Y-83836071D01*
X173356491Y-83834363D01*
X173546540Y-83797939D01*
X173555442Y-83796562D01*
X173572185Y-83794585D01*
X173585048Y-83790997D01*
X173595178Y-83788618D01*
X173600860Y-83787529D01*
X173600862Y-83787529D01*
X173605263Y-83786685D01*
X173609494Y-83785228D01*
X173609498Y-83785227D01*
X173622008Y-83780919D01*
X173629176Y-83778688D01*
X173857973Y-83714869D01*
X173859371Y-83714488D01*
X173892305Y-83705709D01*
X173892309Y-83705707D01*
X173897019Y-83704452D01*
X173899956Y-83703158D01*
X173900053Y-83703131D01*
X173999527Y-83659391D01*
X173999718Y-83659231D01*
X173999989Y-83659087D01*
X174065498Y-83630227D01*
X174066213Y-83629970D01*
X174066978Y-83629867D01*
X174144869Y-83595260D01*
X174165376Y-83586225D01*
X174165806Y-83585957D01*
X174169153Y-83584470D01*
X174196125Y-83567084D01*
X174197756Y-83566050D01*
X174250271Y-83533329D01*
X174257604Y-83528760D01*
X174259823Y-83526277D01*
X174262508Y-83524294D01*
X174362225Y-83460016D01*
X174367586Y-83456748D01*
X174388342Y-83444800D01*
X174393412Y-83440727D01*
X174400768Y-83435423D01*
X174403149Y-83433637D01*
X174406924Y-83431203D01*
X174425743Y-83414869D01*
X174429420Y-83411798D01*
X174568199Y-83300305D01*
X174572936Y-83296680D01*
X174576524Y-83294067D01*
X174580672Y-83291511D01*
X174603578Y-83271953D01*
X174606481Y-83269549D01*
X174624016Y-83255462D01*
X174624018Y-83255460D01*
X174627506Y-83252658D01*
X174630563Y-83249388D01*
X174633852Y-83246337D01*
X174633954Y-83246447D01*
X174638149Y-83242437D01*
X174738736Y-83156553D01*
X174743885Y-83152385D01*
X174744121Y-83152204D01*
X174748197Y-83149552D01*
X174771881Y-83128301D01*
X174774147Y-83126317D01*
X174795989Y-83107668D01*
X174798948Y-83104306D01*
X174800198Y-83103075D01*
X174804469Y-83099059D01*
X174844206Y-83063403D01*
X174925049Y-82990864D01*
X174934859Y-82982912D01*
X174941018Y-82978412D01*
X174956864Y-82962564D01*
X174961811Y-82957878D01*
X174972851Y-82947972D01*
X174972858Y-82947965D01*
X174976190Y-82944975D01*
X174981600Y-82938516D01*
X174989090Y-82930335D01*
X175115125Y-82804285D01*
X175124104Y-82796131D01*
X175127221Y-82793563D01*
X175127228Y-82793556D01*
X175130985Y-82790461D01*
X175145036Y-82774671D01*
X175150069Y-82769336D01*
X175159648Y-82759757D01*
X175159653Y-82759751D01*
X175162824Y-82756580D01*
X175168647Y-82748810D01*
X175175345Y-82740612D01*
X175302592Y-82597623D01*
X175311013Y-82589024D01*
X175317728Y-82582793D01*
X175320747Y-82578970D01*
X175320751Y-82578965D01*
X175330677Y-82566393D01*
X175335440Y-82560711D01*
X175341730Y-82553643D01*
X175347287Y-82547398D01*
X175350268Y-82542898D01*
X175352783Y-82539099D01*
X175358939Y-82530597D01*
X175487329Y-82367982D01*
X175495399Y-82358726D01*
X175501300Y-82352591D01*
X175513669Y-82334948D01*
X175517935Y-82329217D01*
X175529379Y-82314723D01*
X175532723Y-82308965D01*
X175534051Y-82306677D01*
X175539845Y-82297613D01*
X175546687Y-82287855D01*
X175601230Y-82210058D01*
X175669651Y-82112468D01*
X175677520Y-82102377D01*
X175679053Y-82100605D01*
X175679055Y-82100602D01*
X175682233Y-82096928D01*
X175694330Y-82077573D01*
X175698007Y-82072023D01*
X175706758Y-82059541D01*
X175709329Y-82055874D01*
X175712941Y-82048749D01*
X175718483Y-82038931D01*
X175850336Y-81827983D01*
X175858062Y-81816977D01*
X175858474Y-81816452D01*
X175858478Y-81816445D01*
X175861483Y-81812617D01*
X175863866Y-81808367D01*
X175873441Y-81791289D01*
X175876498Y-81786127D01*
X175887829Y-81767998D01*
X175889641Y-81763900D01*
X175889645Y-81763893D01*
X175890395Y-81762198D01*
X175895722Y-81751544D01*
X176030487Y-81511156D01*
X176035915Y-81502634D01*
X176037444Y-81500118D01*
X176040278Y-81496176D01*
X176042472Y-81491846D01*
X176042475Y-81491840D01*
X176052144Y-81472753D01*
X176054637Y-81468078D01*
X176063754Y-81451814D01*
X176065943Y-81447910D01*
X176067574Y-81443691D01*
X176072705Y-81432162D01*
X176095032Y-81388088D01*
X176171821Y-81236498D01*
X176210753Y-81159642D01*
X176213699Y-81154166D01*
X176215079Y-81151745D01*
X176217806Y-81147721D01*
X176230916Y-81119948D01*
X176232455Y-81116803D01*
X176242936Y-81096111D01*
X176242940Y-81096102D01*
X176244966Y-81092102D01*
X176246404Y-81087856D01*
X176248107Y-81083804D01*
X176250327Y-81078825D01*
X176304939Y-80963131D01*
X176306759Y-80959558D01*
X176308663Y-80956643D01*
X176322779Y-80925375D01*
X176323622Y-80923551D01*
X176336909Y-80895403D01*
X176337929Y-80892093D01*
X176339532Y-80888270D01*
X176396939Y-80761114D01*
X176398537Y-80757846D01*
X176400258Y-80755118D01*
X176413997Y-80723367D01*
X176414788Y-80721578D01*
X176425472Y-80697914D01*
X176427760Y-80692845D01*
X176428656Y-80689751D01*
X176430045Y-80686279D01*
X176489802Y-80548177D01*
X176491202Y-80545202D01*
X176492762Y-80542647D01*
X176494631Y-80538150D01*
X176494634Y-80538144D01*
X176506190Y-80510337D01*
X176506868Y-80508738D01*
X176519559Y-80479406D01*
X176520345Y-80476522D01*
X176521550Y-80473375D01*
X176527566Y-80458901D01*
X176583706Y-80323813D01*
X176584936Y-80321101D01*
X176586350Y-80318714D01*
X176599508Y-80285816D01*
X176600101Y-80284361D01*
X176610755Y-80258727D01*
X176610757Y-80258720D01*
X176612477Y-80254582D01*
X176613166Y-80251903D01*
X176614203Y-80249076D01*
X176678839Y-80087473D01*
X176679911Y-80085026D01*
X176681190Y-80082805D01*
X176691234Y-80056766D01*
X176694014Y-80049558D01*
X176694583Y-80048108D01*
X176696650Y-80042940D01*
X176706686Y-80017849D01*
X176707289Y-80015367D01*
X176708201Y-80012778D01*
X176774161Y-79841772D01*
X176775342Y-79838710D01*
X176776292Y-79836471D01*
X176777449Y-79834408D01*
X176779148Y-79829849D01*
X176779151Y-79829843D01*
X176790019Y-79800686D01*
X176790525Y-79799351D01*
X176800736Y-79772878D01*
X176800740Y-79772866D01*
X176802350Y-79768691D01*
X176802876Y-79766399D01*
X176803675Y-79764044D01*
X176873403Y-79576960D01*
X176874244Y-79574916D01*
X176875291Y-79573003D01*
X176884851Y-79546510D01*
X176887611Y-79538861D01*
X176888064Y-79537625D01*
X176898068Y-79510782D01*
X176899631Y-79506589D01*
X176900093Y-79504468D01*
X176900787Y-79502347D01*
X176973189Y-79301691D01*
X176973926Y-79299847D01*
X176974874Y-79298075D01*
X176986992Y-79263452D01*
X176987299Y-79262589D01*
X176998689Y-79231021D01*
X176999096Y-79229053D01*
X176999705Y-79227124D01*
X177029302Y-79142557D01*
X177074846Y-79012426D01*
X177075496Y-79010754D01*
X177076358Y-79009108D01*
X177088194Y-78974303D01*
X177088544Y-78973290D01*
X177098201Y-78945696D01*
X177098202Y-78945691D01*
X177099681Y-78941466D01*
X177100039Y-78939648D01*
X177100578Y-78937884D01*
X177100622Y-78937757D01*
X177178534Y-78708645D01*
X177179117Y-78707107D01*
X177179898Y-78705584D01*
X177191624Y-78670157D01*
X177191843Y-78669505D01*
X177201335Y-78641594D01*
X177201336Y-78641590D01*
X177202759Y-78637406D01*
X177203075Y-78635724D01*
X177203541Y-78634150D01*
X177279239Y-78405444D01*
X177284416Y-78389802D01*
X177284937Y-78388394D01*
X177285643Y-78386992D01*
X177297072Y-78351573D01*
X177297366Y-78350675D01*
X177306777Y-78322242D01*
X177306780Y-78322232D01*
X177308074Y-78318322D01*
X177308352Y-78316773D01*
X177308771Y-78315316D01*
X177392641Y-78055394D01*
X177393103Y-78054117D01*
X177393748Y-78052815D01*
X177405057Y-78016920D01*
X177405173Y-78016557D01*
X177415776Y-77983697D01*
X177416022Y-77982266D01*
X177416391Y-77980948D01*
X177503360Y-77704909D01*
X177503772Y-77703747D01*
X177504359Y-77702543D01*
X177515412Y-77666668D01*
X177515649Y-77665905D01*
X177518219Y-77657747D01*
X177526012Y-77633012D01*
X177526229Y-77631692D01*
X177526552Y-77630510D01*
X177616723Y-77337831D01*
X177617090Y-77336776D01*
X177617623Y-77335664D01*
X177628604Y-77299264D01*
X177638927Y-77265759D01*
X177639119Y-77264539D01*
X177639413Y-77263437D01*
X177707589Y-77037455D01*
X177732869Y-76953662D01*
X177733197Y-76952701D01*
X177733685Y-76951670D01*
X177744400Y-76915448D01*
X177744593Y-76914801D01*
X177753774Y-76884368D01*
X177754664Y-76881419D01*
X177754835Y-76880294D01*
X177755099Y-76879278D01*
X177757452Y-76871326D01*
X177851902Y-76552043D01*
X177852106Y-76551439D01*
X177852413Y-76550784D01*
X177863236Y-76513731D01*
X177873366Y-76479487D01*
X177873470Y-76478772D01*
X177873630Y-76478148D01*
X177891080Y-76418405D01*
X177891207Y-76418023D01*
X177891403Y-76417604D01*
X177892018Y-76415484D01*
X177902298Y-76380000D01*
X177902375Y-76379737D01*
X177911959Y-76346924D01*
X177912334Y-76345641D01*
X177912400Y-76345178D01*
X177912494Y-76344806D01*
X177966654Y-76157876D01*
X177966751Y-76157583D01*
X177966906Y-76157249D01*
X177977648Y-76119929D01*
X177987758Y-76085034D01*
X177987809Y-76084667D01*
X177987889Y-76084350D01*
X178039776Y-75904083D01*
X178039791Y-75904036D01*
X178039812Y-75903991D01*
X178050549Y-75866653D01*
X178060804Y-75831025D01*
X178060812Y-75830968D01*
X178060822Y-75830926D01*
X178121443Y-75620116D01*
X178121491Y-75619952D01*
X178190715Y-75380452D01*
X178190825Y-75380073D01*
X178229462Y-75247949D01*
X178258475Y-75148734D01*
X178285260Y-75058812D01*
X178325154Y-74924882D01*
X178325411Y-74924031D01*
X178391301Y-74708402D01*
X178391648Y-74707286D01*
X178405543Y-74663279D01*
X178457170Y-74499771D01*
X178457570Y-74498528D01*
X178523089Y-74299156D01*
X178523662Y-74297454D01*
X178589480Y-74106400D01*
X178590197Y-74104374D01*
X178642505Y-73960551D01*
X178655988Y-73923481D01*
X178657127Y-73920471D01*
X178674345Y-73876668D01*
X178758896Y-73661565D01*
X178760700Y-73657217D01*
X178771698Y-73632055D01*
X178856665Y-73437650D01*
X178864641Y-73419401D01*
X178867062Y-73414188D01*
X178898913Y-73349523D01*
X178971544Y-73202065D01*
X178975985Y-73193836D01*
X178999844Y-73153309D01*
X179133017Y-72927093D01*
X179139736Y-72916854D01*
X179300181Y-72696477D01*
X179315079Y-72676014D01*
X179322824Y-72666403D01*
X179341095Y-72645878D01*
X179517527Y-72447673D01*
X179526354Y-72438702D01*
X179586044Y-72383814D01*
X179737589Y-72244460D01*
X179747562Y-72236195D01*
X179972364Y-72068630D01*
X179983592Y-72061160D01*
X180017712Y-72041010D01*
X180219062Y-71922099D01*
X180231594Y-71915617D01*
X180474938Y-71806570D01*
X180488822Y-71801307D01*
X180737657Y-71723416D01*
X180752807Y-71719686D01*
X180817185Y-71708007D01*
X181005371Y-71673870D01*
X181021548Y-71672007D01*
X181233328Y-71661406D01*
X181276850Y-71659228D01*
X181293688Y-71659512D01*
X181551660Y-71681166D01*
X181568590Y-71683755D01*
X181829792Y-71742102D01*
X181846173Y-71746947D01*
X182111296Y-71845366D01*
X182126516Y-71852195D01*
X182404617Y-71999798D01*
X182414951Y-72005931D01*
X182542487Y-72090101D01*
X182548823Y-72094568D01*
X182685592Y-72197443D01*
X182691423Y-72202107D01*
X182761755Y-72261873D01*
X182828649Y-72318718D01*
X182834000Y-72323535D01*
X182975123Y-72458101D01*
X182978552Y-72461501D01*
X183034866Y-72519520D01*
X183037857Y-72522710D01*
X183157137Y-72654455D01*
X183161117Y-72659071D01*
X183266022Y-72786851D01*
X183270775Y-72793019D01*
X183422746Y-73003392D01*
X183427025Y-73009709D01*
X183516521Y-73150897D01*
X183519473Y-73155798D01*
X183607460Y-73309712D01*
X183609979Y-73314342D01*
X183695536Y-73479695D01*
X183697613Y-73483898D01*
X183781845Y-73662689D01*
X183783513Y-73666382D01*
X183867335Y-73860238D01*
X183868643Y-73863379D01*
X183952970Y-74073825D01*
X183953973Y-74076412D01*
X184039665Y-74304702D01*
X184040416Y-74306757D01*
X184128374Y-74554053D01*
X184128877Y-74555495D01*
X184220133Y-74823183D01*
X184220468Y-74824182D01*
X184315958Y-75113243D01*
X184316204Y-75113997D01*
X184416805Y-75425091D01*
X184416938Y-75425506D01*
X184511997Y-75723097D01*
X184512207Y-75723847D01*
X184512348Y-75724724D01*
X184513111Y-75727077D01*
X184513113Y-75727086D01*
X184524175Y-75761224D01*
X184524331Y-75761709D01*
X184534997Y-75795098D01*
X184535384Y-75795896D01*
X184535647Y-75796625D01*
X184587213Y-75955755D01*
X184587737Y-75957582D01*
X184588063Y-75959502D01*
X184589606Y-75964117D01*
X184589608Y-75964125D01*
X184599709Y-75994335D01*
X184600076Y-75995450D01*
X184608999Y-76022988D01*
X184609002Y-76022995D01*
X184610381Y-76027251D01*
X184611234Y-76028992D01*
X184611897Y-76030790D01*
X184620314Y-76055962D01*
X184665887Y-76192267D01*
X184666353Y-76193841D01*
X184666653Y-76195521D01*
X184668099Y-76199731D01*
X184668101Y-76199738D01*
X184678685Y-76230554D01*
X184678935Y-76231293D01*
X184689743Y-76263617D01*
X184690511Y-76265149D01*
X184691103Y-76266712D01*
X184742489Y-76416325D01*
X184745825Y-76426039D01*
X184746258Y-76427460D01*
X184746545Y-76429002D01*
X184758879Y-76464061D01*
X184759183Y-76464934D01*
X184770285Y-76497258D01*
X184770994Y-76498644D01*
X184771538Y-76500046D01*
X184789669Y-76551581D01*
X184824328Y-76650095D01*
X184825468Y-76653336D01*
X184825886Y-76654672D01*
X184826170Y-76656141D01*
X184827516Y-76659881D01*
X184827518Y-76659888D01*
X184838821Y-76691300D01*
X184839106Y-76692102D01*
X184850463Y-76724384D01*
X184851156Y-76725713D01*
X184851675Y-76727022D01*
X184903234Y-76870312D01*
X184903666Y-76871657D01*
X184903961Y-76873130D01*
X184905336Y-76876866D01*
X184916886Y-76908261D01*
X184917193Y-76909106D01*
X184928736Y-76941185D01*
X184929438Y-76942508D01*
X184929970Y-76943823D01*
X184977602Y-77073290D01*
X184978180Y-77075045D01*
X184978568Y-77076890D01*
X184980288Y-77081438D01*
X184991546Y-77111206D01*
X184991938Y-77112254D01*
X185003560Y-77143843D01*
X185004455Y-77145502D01*
X185005172Y-77147234D01*
X185068540Y-77314784D01*
X185069459Y-77317472D01*
X185070043Y-77320082D01*
X185071821Y-77324605D01*
X185071822Y-77324609D01*
X185083051Y-77353177D01*
X185083637Y-77354698D01*
X185095064Y-77384913D01*
X185096351Y-77387248D01*
X185097489Y-77389914D01*
X185100351Y-77397195D01*
X185127359Y-77465910D01*
X185146877Y-77515570D01*
X185149001Y-77521389D01*
X185149939Y-77524171D01*
X185151136Y-77528895D01*
X185153044Y-77533376D01*
X185153045Y-77533379D01*
X185163150Y-77557111D01*
X185164478Y-77560354D01*
X185174583Y-77586063D01*
X185176798Y-77589961D01*
X185178729Y-77594005D01*
X185178593Y-77594070D01*
X185180975Y-77598974D01*
X185238833Y-77734851D01*
X185242488Y-77744518D01*
X185245212Y-77752725D01*
X185245217Y-77752737D01*
X185246748Y-77757349D01*
X185254347Y-77772127D01*
X185258214Y-77780366D01*
X185263515Y-77792816D01*
X185270959Y-77805100D01*
X185275236Y-77812750D01*
X185355170Y-77968196D01*
X185358498Y-77974668D01*
X185363386Y-77985376D01*
X185365238Y-77989992D01*
X185367051Y-77994511D01*
X185369532Y-77998689D01*
X185369537Y-77998698D01*
X185377387Y-78011914D01*
X185381108Y-78018638D01*
X185386888Y-78029879D01*
X185386893Y-78029888D01*
X185388940Y-78033868D01*
X185391531Y-78037519D01*
X185391536Y-78037527D01*
X185395098Y-78042546D01*
X185400677Y-78051125D01*
X185503084Y-78223541D01*
X185508991Y-78234732D01*
X185512185Y-78241596D01*
X185514892Y-78245639D01*
X185524676Y-78260253D01*
X185528308Y-78266009D01*
X185538194Y-78282654D01*
X185540998Y-78286134D01*
X185541009Y-78286150D01*
X185543454Y-78289184D01*
X185550036Y-78298134D01*
X185674990Y-78484774D01*
X185678790Y-78491229D01*
X185678820Y-78491211D01*
X185681373Y-78495363D01*
X185683594Y-78499692D01*
X185686455Y-78503628D01*
X185699669Y-78521807D01*
X185702449Y-78525790D01*
X185715935Y-78545933D01*
X185718941Y-78549277D01*
X185720699Y-78551537D01*
X185726423Y-78558611D01*
X185809800Y-78673312D01*
X185813389Y-78678520D01*
X185814458Y-78680158D01*
X185816797Y-78684431D01*
X185819766Y-78688293D01*
X185819767Y-78688295D01*
X185835737Y-78709071D01*
X185837757Y-78711773D01*
X185851580Y-78730789D01*
X185851584Y-78730794D01*
X185854217Y-78734416D01*
X185857339Y-78737630D01*
X185859578Y-78740290D01*
X185863082Y-78744645D01*
X185959339Y-78869871D01*
X185963041Y-78874965D01*
X185965393Y-78879033D01*
X185985613Y-78904106D01*
X185987390Y-78906363D01*
X186005141Y-78929456D01*
X186008350Y-78932588D01*
X186008858Y-78933159D01*
X186012750Y-78937757D01*
X186125416Y-79077464D01*
X186128498Y-79081517D01*
X186130616Y-79085016D01*
X186133747Y-79088742D01*
X186151963Y-79110423D01*
X186153572Y-79112378D01*
X186169659Y-79132326D01*
X186169664Y-79132331D01*
X186172475Y-79135817D01*
X186175456Y-79138593D01*
X186178963Y-79142557D01*
X186256838Y-79235241D01*
X186306019Y-79293774D01*
X186309299Y-79297678D01*
X186311861Y-79300921D01*
X186313747Y-79303918D01*
X186316941Y-79307589D01*
X186316942Y-79307590D01*
X186336121Y-79329631D01*
X186337533Y-79331283D01*
X186357483Y-79355026D01*
X186360113Y-79357379D01*
X186363007Y-79360529D01*
X186512293Y-79532091D01*
X186514425Y-79534702D01*
X186516085Y-79537256D01*
X186519334Y-79540880D01*
X186519340Y-79540888D01*
X186539357Y-79563217D01*
X186540587Y-79564608D01*
X186561472Y-79588609D01*
X186563775Y-79590598D01*
X186566150Y-79593101D01*
X186735715Y-79782244D01*
X186737485Y-79784351D01*
X186738941Y-79786531D01*
X186763131Y-79812837D01*
X186763996Y-79813790D01*
X186785768Y-79838076D01*
X186787768Y-79839752D01*
X186789737Y-79841772D01*
X186980897Y-80049662D01*
X186982374Y-80051379D01*
X186983635Y-80053224D01*
X187008462Y-80079648D01*
X187009241Y-80080486D01*
X187028672Y-80101619D01*
X187028678Y-80101624D01*
X187031708Y-80104920D01*
X187033439Y-80106335D01*
X187035081Y-80107980D01*
X187169691Y-80251248D01*
X187249033Y-80335694D01*
X187249953Y-80336745D01*
X187250791Y-80337953D01*
X187253498Y-80340794D01*
X187276671Y-80365116D01*
X187277240Y-80365717D01*
X187300628Y-80390609D01*
X187301769Y-80391521D01*
X187302760Y-80392496D01*
X187392828Y-80487024D01*
X187393350Y-80487614D01*
X187393860Y-80488342D01*
X187420530Y-80516098D01*
X187444966Y-80541744D01*
X187445665Y-80542295D01*
X187446233Y-80542848D01*
X187542257Y-80642781D01*
X187542731Y-80643312D01*
X187543206Y-80643985D01*
X187570129Y-80671788D01*
X187594645Y-80697302D01*
X187595290Y-80697806D01*
X187595804Y-80698303D01*
X187698124Y-80803966D01*
X187698555Y-80804445D01*
X187698994Y-80805062D01*
X187700477Y-80806583D01*
X187700481Y-80806587D01*
X187725755Y-80832501D01*
X187726068Y-80832823D01*
X187729089Y-80835943D01*
X187750737Y-80858298D01*
X187751335Y-80858761D01*
X187751821Y-80859227D01*
X187860578Y-80970739D01*
X187860981Y-80971184D01*
X187861386Y-80971749D01*
X187888418Y-80999284D01*
X187913412Y-81024911D01*
X187913966Y-81025337D01*
X187914414Y-81025763D01*
X188005300Y-81118340D01*
X188029797Y-81143293D01*
X188030173Y-81143706D01*
X188030547Y-81144224D01*
X188031818Y-81145511D01*
X188031820Y-81145513D01*
X188045775Y-81159642D01*
X188057657Y-81171672D01*
X188082833Y-81197316D01*
X188083349Y-81197710D01*
X188083747Y-81198087D01*
X188205961Y-81321823D01*
X188206287Y-81322178D01*
X188206637Y-81322661D01*
X188207820Y-81323852D01*
X188207830Y-81323863D01*
X188234038Y-81350249D01*
X188234285Y-81350499D01*
X188257980Y-81374490D01*
X188257990Y-81374500D01*
X188259164Y-81375688D01*
X188259635Y-81376045D01*
X188260004Y-81376392D01*
X188389059Y-81506330D01*
X188389186Y-81506468D01*
X188389311Y-81506639D01*
X188396986Y-81514351D01*
X188416923Y-81534383D01*
X188417012Y-81534473D01*
X188437818Y-81555421D01*
X188442569Y-81560204D01*
X188442743Y-81560336D01*
X188442873Y-81560457D01*
X190659358Y-83787529D01*
X190664061Y-83792254D01*
X190697938Y-83854647D01*
X190700751Y-83881972D01*
X190683866Y-86428199D01*
X190681523Y-86781587D01*
X190681408Y-86798922D01*
X190681390Y-86799322D01*
X190681320Y-86799758D01*
X190681140Y-86838918D01*
X190680901Y-86874744D01*
X190680962Y-86875189D01*
X190680973Y-86875550D01*
X190680490Y-86980732D01*
X190680228Y-87037813D01*
X190680204Y-87038397D01*
X190680099Y-87039064D01*
X190680096Y-87040973D01*
X190680096Y-87040980D01*
X190680082Y-87050772D01*
X190680044Y-87077893D01*
X190679881Y-87113503D01*
X190679973Y-87114166D01*
X190679992Y-87114760D01*
X190679971Y-87129781D01*
X190679795Y-87255255D01*
X190679786Y-87261604D01*
X190679766Y-87262107D01*
X190679677Y-87262688D01*
X190679726Y-87298587D01*
X190679729Y-87301155D01*
X190679729Y-87301501D01*
X190679711Y-87314711D01*
X190679679Y-87337342D01*
X190679762Y-87337924D01*
X190679780Y-87338417D01*
X190679922Y-87444025D01*
X190679961Y-87473019D01*
X190679947Y-87473393D01*
X190679879Y-87473844D01*
X190679991Y-87506056D01*
X190680013Y-87512537D01*
X190680014Y-87512802D01*
X190680057Y-87544173D01*
X190680063Y-87548820D01*
X190680127Y-87549262D01*
X190680142Y-87549656D01*
X190680577Y-87675251D01*
X190680568Y-87675507D01*
X190680526Y-87675789D01*
X190680530Y-87676629D01*
X190680530Y-87676631D01*
X190680715Y-87714844D01*
X190680678Y-87714844D01*
X190680716Y-87715016D01*
X190680841Y-87751151D01*
X190680883Y-87751440D01*
X190680892Y-87751662D01*
X190681705Y-87920027D01*
X190681701Y-87920053D01*
X190681701Y-87920124D01*
X190681884Y-87957206D01*
X190681881Y-87957217D01*
X190681884Y-87957217D01*
X190682072Y-87996060D01*
X190682074Y-87996073D01*
X190682075Y-87996109D01*
X190683028Y-88189700D01*
X190683085Y-88201200D01*
X190683661Y-88368545D01*
X190683699Y-88379705D01*
X190682247Y-88393786D01*
X190682305Y-88393790D01*
X190681707Y-88402749D01*
X190679845Y-88411530D01*
X190683655Y-88461840D01*
X190684012Y-88470902D01*
X190684057Y-88483946D01*
X190685326Y-88492593D01*
X190686042Y-88497471D01*
X190687017Y-88506250D01*
X190690831Y-88556629D01*
X190693993Y-88565029D01*
X190695934Y-88573797D01*
X190695777Y-88573832D01*
X190695825Y-88574019D01*
X190695981Y-88573973D01*
X190698528Y-88582575D01*
X190699832Y-88591460D01*
X190703576Y-88599621D01*
X190703577Y-88599623D01*
X190720899Y-88637375D01*
X190724299Y-88645527D01*
X190738938Y-88684412D01*
X190738940Y-88684415D01*
X190742101Y-88692812D01*
X190747492Y-88699984D01*
X190751816Y-88707856D01*
X190751674Y-88707934D01*
X190751773Y-88708100D01*
X190751910Y-88708012D01*
X190756772Y-88715558D01*
X190760516Y-88723717D01*
X190792834Y-88760964D01*
X190793616Y-88761865D01*
X190799165Y-88768734D01*
X190824135Y-88801954D01*
X190824139Y-88801958D01*
X190829532Y-88809133D01*
X190836722Y-88814506D01*
X190843078Y-88820844D01*
X190842966Y-88820957D01*
X190843110Y-88821091D01*
X190843215Y-88820970D01*
X190849996Y-88826844D01*
X190855881Y-88833627D01*
X190863433Y-88838485D01*
X190863434Y-88838486D01*
X190898368Y-88860960D01*
X190905620Y-88865993D01*
X190916258Y-88873942D01*
X190946095Y-88896238D01*
X190954501Y-88899376D01*
X190962387Y-88903679D01*
X190962311Y-88903818D01*
X190962483Y-88903905D01*
X190962550Y-88903759D01*
X190970713Y-88907497D01*
X190978260Y-88912352D01*
X190986866Y-88914894D01*
X190986867Y-88914894D01*
X191026706Y-88926659D01*
X191035086Y-88929457D01*
X191074008Y-88943987D01*
X191074014Y-88943988D01*
X191082422Y-88947127D01*
X191091377Y-88947780D01*
X191100141Y-88949694D01*
X191100107Y-88949851D01*
X191100303Y-88949887D01*
X191100326Y-88949729D01*
X191109212Y-88951026D01*
X191117817Y-88953567D01*
X191126787Y-88953591D01*
X191126788Y-88953591D01*
X191141915Y-88953631D01*
X191168351Y-88953701D01*
X191177165Y-88954035D01*
X191227551Y-88957709D01*
X191236326Y-88955823D01*
X191245284Y-88955200D01*
X191245295Y-88955359D01*
X191245488Y-88955339D01*
X191245466Y-88955180D01*
X191254356Y-88953931D01*
X191263330Y-88953955D01*
X191271948Y-88951460D01*
X191271954Y-88951459D01*
X191311871Y-88939902D01*
X191320432Y-88937746D01*
X191361038Y-88929018D01*
X191361039Y-88929017D01*
X191369816Y-88927131D01*
X191377710Y-88922858D01*
X191386129Y-88919747D01*
X191386184Y-88919897D01*
X191386370Y-88919821D01*
X191386304Y-88919675D01*
X191394482Y-88915983D01*
X191403105Y-88913486D01*
X191445731Y-88886385D01*
X191453347Y-88881910D01*
X191489891Y-88862127D01*
X191489894Y-88862125D01*
X191497783Y-88857854D01*
X191504159Y-88851538D01*
X191511368Y-88846188D01*
X191511464Y-88846317D01*
X191511617Y-88846195D01*
X191511512Y-88846072D01*
X191518325Y-88840233D01*
X191525903Y-88835415D01*
X191547358Y-88810953D01*
X191559213Y-88797437D01*
X191565261Y-88791010D01*
X191573757Y-88782593D01*
X191573759Y-88782591D01*
X191577213Y-88779169D01*
X191584544Y-88769233D01*
X191591201Y-88760964D01*
X191615933Y-88732765D01*
X191615934Y-88732764D01*
X191621852Y-88726016D01*
X191625775Y-88717585D01*
X191638622Y-88695937D01*
X191644319Y-88688216D01*
X191804643Y-88470915D01*
X191805505Y-88469764D01*
X192006993Y-88203968D01*
X192008336Y-88202228D01*
X192209303Y-87946565D01*
X192211079Y-87944357D01*
X192411695Y-87700631D01*
X192413969Y-87697946D01*
X192516487Y-87580255D01*
X192614178Y-87468106D01*
X192617030Y-87464941D01*
X192636721Y-87443828D01*
X192816921Y-87250609D01*
X192820488Y-87246937D01*
X192861321Y-87206576D01*
X193019777Y-87049949D01*
X193024194Y-87045789D01*
X193222629Y-86867696D01*
X193228059Y-86863093D01*
X193425146Y-86705366D01*
X193431776Y-86700408D01*
X193627098Y-86564124D01*
X193635106Y-86558975D01*
X193828244Y-86444869D01*
X193837781Y-86439773D01*
X194028685Y-86348078D01*
X194039809Y-86343377D01*
X194228956Y-86273927D01*
X194241573Y-86270031D01*
X194430416Y-86222412D01*
X194444240Y-86219738D01*
X194635189Y-86193763D01*
X194649722Y-86192637D01*
X194853350Y-86188675D01*
X194865111Y-86188995D01*
X194962398Y-86196203D01*
X195078299Y-86204790D01*
X195087538Y-86205820D01*
X195287465Y-86235608D01*
X195297428Y-86237505D01*
X195387955Y-86258557D01*
X195477087Y-86279285D01*
X195487610Y-86282218D01*
X195572914Y-86310035D01*
X195645614Y-86333742D01*
X195648665Y-86334737D01*
X195659477Y-86338821D01*
X195803987Y-86401136D01*
X195814801Y-86406426D01*
X195945085Y-86478060D01*
X195955530Y-86484484D01*
X196074019Y-86565559D01*
X196083737Y-86572923D01*
X196192617Y-86664087D01*
X196201351Y-86672132D01*
X196302330Y-86774364D01*
X196309936Y-86782793D01*
X196404189Y-86897206D01*
X196410593Y-86905685D01*
X196498757Y-87033261D01*
X196503996Y-87041510D01*
X196557496Y-87133455D01*
X196586289Y-87182939D01*
X196590489Y-87190781D01*
X196666909Y-87346443D01*
X196670204Y-87353731D01*
X196740586Y-87523561D01*
X196743128Y-87530219D01*
X196807387Y-87714055D01*
X196809308Y-87720028D01*
X196838914Y-87820645D01*
X196867357Y-87917311D01*
X196868808Y-87922678D01*
X196920679Y-88132782D01*
X196921755Y-88137530D01*
X196932727Y-88190729D01*
X196966140Y-88352727D01*
X196967625Y-88359929D01*
X196968409Y-88364085D01*
X196986728Y-88471001D01*
X197008470Y-88597892D01*
X197009039Y-88601529D01*
X197043631Y-88846147D01*
X197044035Y-88849291D01*
X197073526Y-89103891D01*
X197073809Y-89106586D01*
X197098645Y-89370544D01*
X197098839Y-89372825D01*
X197119503Y-89645483D01*
X197119632Y-89647384D01*
X197123024Y-89703357D01*
X197135729Y-89913042D01*
X197136626Y-89927851D01*
X197136709Y-89929368D01*
X197150604Y-90217469D01*
X197150648Y-90218491D01*
X197161612Y-90503547D01*
X197161989Y-90513350D01*
X197162017Y-90514151D01*
X197167773Y-90699053D01*
X197171378Y-90814867D01*
X197171396Y-90815501D01*
X197172138Y-90843934D01*
X197179393Y-91122077D01*
X197186555Y-91430682D01*
X197186613Y-91433199D01*
X197186615Y-91433300D01*
X197192798Y-91709280D01*
X197192795Y-91709503D01*
X197192761Y-91709755D01*
X197193190Y-91727911D01*
X197193683Y-91748784D01*
X197193686Y-91748937D01*
X197193887Y-91757911D01*
X197194498Y-91785173D01*
X197194542Y-91785434D01*
X197194554Y-91785633D01*
X197195487Y-91825152D01*
X197200281Y-92028193D01*
X197200273Y-92028785D01*
X197200188Y-92029451D01*
X197201224Y-92068083D01*
X197202069Y-92103861D01*
X197202180Y-92104529D01*
X197202216Y-92105114D01*
X197208775Y-92349776D01*
X197208772Y-92350015D01*
X197208736Y-92350302D01*
X197208760Y-92351150D01*
X197209563Y-92379646D01*
X197209844Y-92389640D01*
X197210809Y-92425639D01*
X197210857Y-92425921D01*
X197210872Y-92426167D01*
X197220956Y-92784180D01*
X197220960Y-92784341D01*
X197230810Y-93150595D01*
X197230811Y-93150621D01*
X197238797Y-93449880D01*
X197238795Y-93450081D01*
X197238764Y-93450321D01*
X197239867Y-93489999D01*
X197240822Y-93525781D01*
X197240861Y-93526010D01*
X197240873Y-93526207D01*
X197247557Y-93766635D01*
X197247552Y-93767140D01*
X197247481Y-93767712D01*
X197248657Y-93806223D01*
X197248667Y-93806566D01*
X197248874Y-93813992D01*
X197249662Y-93842346D01*
X197249760Y-93842919D01*
X197249793Y-93843421D01*
X197256472Y-94062195D01*
X197256467Y-94063089D01*
X197256350Y-94064066D01*
X197257700Y-94102388D01*
X197258778Y-94137701D01*
X197258948Y-94138680D01*
X197259009Y-94139566D01*
X197266024Y-94338733D01*
X197266024Y-94340112D01*
X197265860Y-94341571D01*
X197266025Y-94345474D01*
X197267436Y-94378898D01*
X197267470Y-94379778D01*
X197268676Y-94414018D01*
X197268936Y-94415464D01*
X197269039Y-94416851D01*
X197274922Y-94556170D01*
X197276705Y-94598406D01*
X197276722Y-94600392D01*
X197276515Y-94602395D01*
X197277465Y-94620703D01*
X197278407Y-94638866D01*
X197278464Y-94640079D01*
X197279874Y-94673479D01*
X197280243Y-94675455D01*
X197280409Y-94677460D01*
X197283345Y-94734065D01*
X197289014Y-94843353D01*
X197289068Y-94846098D01*
X197288833Y-94848695D01*
X197290055Y-94867647D01*
X197291126Y-94884256D01*
X197291217Y-94885817D01*
X197292899Y-94918251D01*
X197293399Y-94920795D01*
X197293660Y-94923580D01*
X197303200Y-95071534D01*
X197303470Y-95075728D01*
X197303592Y-95079364D01*
X197303352Y-95082589D01*
X197303741Y-95087436D01*
X197303741Y-95087439D01*
X197306118Y-95117053D01*
X197306261Y-95119026D01*
X197308289Y-95150479D01*
X197308950Y-95153632D01*
X197309353Y-95157360D01*
X197320518Y-95296462D01*
X197320855Y-95302430D01*
X197320996Y-95306742D01*
X197320779Y-95311597D01*
X197321312Y-95316429D01*
X197321312Y-95316437D01*
X197324084Y-95341579D01*
X197324439Y-95345303D01*
X197326604Y-95372274D01*
X197327591Y-95376638D01*
X197328268Y-95381083D01*
X197328114Y-95381106D01*
X197329069Y-95386789D01*
X197339746Y-95483642D01*
X197365481Y-95717085D01*
X197366239Y-95730309D01*
X197366244Y-95731491D01*
X197366245Y-95731500D01*
X197366267Y-95736365D01*
X197367038Y-95741174D01*
X197367039Y-95741182D01*
X197370063Y-95760033D01*
X197370890Y-95766140D01*
X197373180Y-95786918D01*
X197374297Y-95791257D01*
X197374299Y-95791266D01*
X197374886Y-95793545D01*
X197377276Y-95805008D01*
X197402801Y-95964154D01*
X197427224Y-96116423D01*
X197427782Y-96119905D01*
X197429141Y-96132236D01*
X197429343Y-96135576D01*
X197429344Y-96135582D01*
X197429638Y-96140433D01*
X197430677Y-96145190D01*
X197430677Y-96145191D01*
X197434292Y-96161745D01*
X197435604Y-96168677D01*
X197437860Y-96182747D01*
X197437862Y-96182757D01*
X197438571Y-96187175D01*
X197439903Y-96191460D01*
X197439903Y-96191462D01*
X197441249Y-96195796D01*
X197444021Y-96206297D01*
X197511608Y-96515767D01*
X197513662Y-96528060D01*
X197514596Y-96536067D01*
X197515897Y-96540758D01*
X197515898Y-96540763D01*
X197520463Y-96557222D01*
X197522144Y-96564010D01*
X197525218Y-96578086D01*
X197525222Y-96578099D01*
X197526176Y-96582468D01*
X197527742Y-96586663D01*
X197529278Y-96590778D01*
X197532651Y-96601168D01*
X197613966Y-96894364D01*
X197619356Y-96913800D01*
X197620875Y-96920861D01*
X197620940Y-96920846D01*
X197622050Y-96925575D01*
X197622795Y-96930397D01*
X197624273Y-96935046D01*
X197631200Y-96956838D01*
X197632538Y-96961334D01*
X197639138Y-96985130D01*
X197640937Y-96989238D01*
X197642364Y-96993251D01*
X197644992Y-97000226D01*
X197685381Y-97127280D01*
X197686933Y-97132677D01*
X197687692Y-97136975D01*
X197689266Y-97141580D01*
X197698283Y-97167962D01*
X197699132Y-97170539D01*
X197704639Y-97187860D01*
X197708113Y-97198789D01*
X197710006Y-97202708D01*
X197712034Y-97208195D01*
X197756872Y-97339378D01*
X197757757Y-97341968D01*
X197759109Y-97346337D01*
X197759841Y-97350074D01*
X197771319Y-97381719D01*
X197772096Y-97383926D01*
X197779255Y-97404868D01*
X197781992Y-97412875D01*
X197783710Y-97416245D01*
X197785435Y-97420637D01*
X197837835Y-97565101D01*
X197838967Y-97568549D01*
X197839635Y-97571697D01*
X197841365Y-97576243D01*
X197841367Y-97576250D01*
X197851965Y-97604100D01*
X197852648Y-97605939D01*
X197863380Y-97635527D01*
X197864890Y-97638357D01*
X197866311Y-97641800D01*
X197925811Y-97798160D01*
X197926007Y-97798676D01*
X197926921Y-97801333D01*
X197927505Y-97803920D01*
X197940623Y-97837112D01*
X197941141Y-97838448D01*
X197952677Y-97868763D01*
X197953957Y-97871075D01*
X197955079Y-97873687D01*
X198022719Y-98044825D01*
X198023425Y-98046803D01*
X198023912Y-98048865D01*
X198025747Y-98053372D01*
X198025748Y-98053377D01*
X198037616Y-98082537D01*
X198038091Y-98083721D01*
X198048670Y-98110486D01*
X198050322Y-98114665D01*
X198051369Y-98116499D01*
X198052236Y-98118455D01*
X198093454Y-98219726D01*
X198128423Y-98305645D01*
X198128956Y-98307096D01*
X198129344Y-98308683D01*
X198143603Y-98342951D01*
X198143920Y-98343722D01*
X198155192Y-98371418D01*
X198155200Y-98371435D01*
X198156796Y-98375357D01*
X198157616Y-98376761D01*
X198158274Y-98378210D01*
X198218237Y-98522321D01*
X198243619Y-98583321D01*
X198244011Y-98584368D01*
X198244304Y-98585534D01*
X198245581Y-98588553D01*
X198245582Y-98588557D01*
X198259058Y-98620430D01*
X198259336Y-98621093D01*
X198272607Y-98652987D01*
X198273222Y-98654020D01*
X198273687Y-98655027D01*
X198368835Y-98880064D01*
X198369100Y-98880761D01*
X198369307Y-98881572D01*
X198370224Y-98883716D01*
X198384363Y-98916792D01*
X198384556Y-98917247D01*
X198393780Y-98939062D01*
X198398283Y-98949711D01*
X198398713Y-98950425D01*
X198399031Y-98951104D01*
X198504576Y-99198002D01*
X198504740Y-99198429D01*
X198504872Y-99198940D01*
X198520322Y-99234836D01*
X198534361Y-99267676D01*
X198534635Y-99268127D01*
X198534820Y-99268518D01*
X198597613Y-99414406D01*
X198651376Y-99539314D01*
X198651451Y-99539509D01*
X198651518Y-99539768D01*
X198666880Y-99575334D01*
X198681377Y-99609016D01*
X198681520Y-99609249D01*
X198681613Y-99609446D01*
X198731115Y-99724056D01*
X198809735Y-99906081D01*
X198809745Y-99906106D01*
X198809761Y-99906169D01*
X198825988Y-99943712D01*
X198825992Y-99943745D01*
X198826001Y-99943741D01*
X198837417Y-99970171D01*
X198839873Y-99975858D01*
X198839901Y-99975903D01*
X198839924Y-99975952D01*
X198990959Y-100325375D01*
X198996382Y-100337922D01*
X199178871Y-100760734D01*
X199374785Y-101216103D01*
X199536231Y-101593933D01*
X199613823Y-101777388D01*
X199691393Y-101960790D01*
X199691592Y-101961262D01*
X199840838Y-102318170D01*
X199841048Y-102318676D01*
X199856738Y-102356672D01*
X199984204Y-102665367D01*
X199984439Y-102665940D01*
X200121809Y-103003304D01*
X200122063Y-103003933D01*
X200253305Y-103331283D01*
X200253579Y-103331971D01*
X200379041Y-103650311D01*
X200379335Y-103651066D01*
X200477425Y-103904724D01*
X200498757Y-103959889D01*
X200499073Y-103960716D01*
X200612580Y-104260483D01*
X200612918Y-104261385D01*
X200720485Y-104552161D01*
X200720846Y-104553148D01*
X200822534Y-104835239D01*
X200822916Y-104836314D01*
X200918687Y-105109726D01*
X200919091Y-105110900D01*
X201008912Y-105375660D01*
X201009339Y-105376940D01*
X201093315Y-105633466D01*
X201093762Y-105634859D01*
X201168997Y-105874039D01*
X201171823Y-105883024D01*
X201172271Y-105884480D01*
X201197732Y-105969137D01*
X201244484Y-106124589D01*
X201244968Y-106126240D01*
X201311325Y-106358323D01*
X201311824Y-106360118D01*
X201372367Y-106584360D01*
X201372878Y-106586312D01*
X201427639Y-106802858D01*
X201428155Y-106804978D01*
X201477124Y-107013766D01*
X201477641Y-107016064D01*
X201520929Y-107217501D01*
X201521438Y-107219993D01*
X201558345Y-107410367D01*
X201559074Y-107414495D01*
X201605627Y-107706253D01*
X201618018Y-107783914D01*
X201618858Y-107790189D01*
X201651476Y-108091393D01*
X201655476Y-108128333D01*
X201656049Y-108135580D01*
X201671352Y-108440952D01*
X201671643Y-108446763D01*
X201671786Y-108455021D01*
X201669116Y-108626259D01*
X201667332Y-108740646D01*
X201666847Y-108749899D01*
X201660636Y-108819386D01*
X201644126Y-109004090D01*
X201642763Y-109019333D01*
X201641918Y-109026477D01*
X201627816Y-109122186D01*
X201622306Y-109159582D01*
X201621317Y-109165363D01*
X201564642Y-109455568D01*
X201558494Y-109487048D01*
X201557102Y-109493318D01*
X201469445Y-109845430D01*
X201468408Y-109849329D01*
X201416835Y-110031412D01*
X201416164Y-110033698D01*
X201357791Y-110225860D01*
X201357140Y-110227938D01*
X201293144Y-110426219D01*
X201292514Y-110428119D01*
X201223110Y-110632018D01*
X201222503Y-110633761D01*
X201147823Y-110843057D01*
X201147236Y-110844667D01*
X201088934Y-111001301D01*
X201067538Y-111058782D01*
X201067010Y-111060172D01*
X200982498Y-111278722D01*
X200981955Y-111280103D01*
X200926878Y-111417676D01*
X200892850Y-111502671D01*
X200892359Y-111503878D01*
X200802986Y-111720131D01*
X200798764Y-111730347D01*
X200798254Y-111731562D01*
X200700483Y-111961298D01*
X200699990Y-111962441D01*
X200598248Y-112195099D01*
X200597822Y-112196062D01*
X200521298Y-112366677D01*
X200492176Y-112431606D01*
X200491711Y-112432630D01*
X200382611Y-112670171D01*
X200382158Y-112671146D01*
X200269601Y-112910800D01*
X200269159Y-112911731D01*
X200153435Y-113152979D01*
X200153002Y-113153873D01*
X200034323Y-113396362D01*
X200033898Y-113397221D01*
X199912501Y-113640561D01*
X199912084Y-113641390D01*
X199787976Y-113885641D01*
X199787564Y-113886444D01*
X199661232Y-114130724D01*
X199660824Y-114131506D01*
X199532245Y-114375925D01*
X199531841Y-114376686D01*
X199401410Y-114620560D01*
X199401008Y-114621307D01*
X199268699Y-114864736D01*
X199268327Y-114865415D01*
X199136709Y-115103791D01*
X199134543Y-115107713D01*
X199134195Y-115108339D01*
X198999062Y-115349320D01*
X198998682Y-115349991D01*
X198973150Y-115394834D01*
X198862451Y-115589256D01*
X198862043Y-115589968D01*
X198724873Y-115827272D01*
X198724459Y-115827982D01*
X198605578Y-116030585D01*
X198605556Y-116030620D01*
X198605523Y-116030661D01*
X198587325Y-116061695D01*
X198587118Y-116062047D01*
X198587092Y-116062071D01*
X198587101Y-116062076D01*
X198567110Y-116096146D01*
X198567088Y-116096200D01*
X198567064Y-116096244D01*
X198548331Y-116128190D01*
X198487113Y-116232582D01*
X198486122Y-116234242D01*
X198454170Y-116286862D01*
X198449491Y-116294567D01*
X198447174Y-116303235D01*
X198447173Y-116303237D01*
X198441102Y-116325948D01*
X198436004Y-116341093D01*
X198423716Y-116371146D01*
X198422788Y-116380070D01*
X198422787Y-116380073D01*
X198421368Y-116393720D01*
X198417770Y-116413222D01*
X198411909Y-116435146D01*
X198412118Y-116444121D01*
X198412664Y-116467612D01*
X198412022Y-116483574D01*
X198408662Y-116515880D01*
X198410277Y-116524712D01*
X198410277Y-116524714D01*
X198412743Y-116538204D01*
X198414764Y-116557933D01*
X198415292Y-116580621D01*
X198425130Y-116611572D01*
X198428994Y-116627073D01*
X198434836Y-116659021D01*
X198438865Y-116667044D01*
X198445017Y-116679297D01*
X198452495Y-116697670D01*
X198456649Y-116710741D01*
X198456653Y-116710749D01*
X198459370Y-116719298D01*
X198464379Y-116726743D01*
X198477498Y-116746242D01*
X198485557Y-116760036D01*
X198491865Y-116772599D01*
X198500132Y-116789063D01*
X198506248Y-116795630D01*
X198506249Y-116795632D01*
X198515596Y-116805668D01*
X198527927Y-116821199D01*
X198540598Y-116840032D01*
X198565566Y-116860811D01*
X198577166Y-116871781D01*
X198585633Y-116880874D01*
X198593184Y-116888982D01*
X198593186Y-116888984D01*
X198599303Y-116895552D01*
X198672234Y-116938920D01*
X198920199Y-117087427D01*
X198922733Y-117088986D01*
X199169037Y-117244807D01*
X199171652Y-117246508D01*
X199316741Y-117343502D01*
X199410674Y-117406298D01*
X199413367Y-117408150D01*
X199552845Y-117506736D01*
X199645143Y-117571975D01*
X199647876Y-117573962D01*
X199872271Y-117741773D01*
X199874997Y-117743871D01*
X200091935Y-117915651D01*
X200094626Y-117917846D01*
X200179275Y-117988886D01*
X200303941Y-118093511D01*
X200306735Y-118095926D01*
X200508389Y-118275492D01*
X200511188Y-118278062D01*
X200705037Y-118461453D01*
X200707832Y-118464180D01*
X200893847Y-118651417D01*
X200896628Y-118654307D01*
X201074742Y-118845387D01*
X201077497Y-118848441D01*
X201247636Y-119043353D01*
X201250354Y-119046574D01*
X201412420Y-119245275D01*
X201415087Y-119248662D01*
X201476126Y-119328958D01*
X201569038Y-119451184D01*
X201571631Y-119454721D01*
X201664307Y-119585910D01*
X201717415Y-119661087D01*
X201719940Y-119664800D01*
X201857494Y-119875029D01*
X201859925Y-119878896D01*
X201989182Y-120093002D01*
X201991504Y-120097014D01*
X202107594Y-120306362D01*
X202112407Y-120315042D01*
X202114600Y-120319177D01*
X202175455Y-120439279D01*
X202227075Y-120541156D01*
X202229144Y-120545438D01*
X202333162Y-120771500D01*
X202335084Y-120775895D01*
X202430540Y-121006039D01*
X202432304Y-121010533D01*
X202519149Y-121244910D01*
X202520745Y-121249486D01*
X202576912Y-121421048D01*
X202598856Y-121488078D01*
X202600273Y-121492707D01*
X202658433Y-121696604D01*
X202669589Y-121735716D01*
X202670827Y-121740394D01*
X202730577Y-121985199D01*
X202731236Y-121987900D01*
X202732291Y-121992614D01*
X202783652Y-122244627D01*
X202784521Y-122249346D01*
X202793368Y-122303153D01*
X202817772Y-122451572D01*
X202826726Y-122506032D01*
X202827407Y-122510729D01*
X202842445Y-122630212D01*
X202860316Y-122772206D01*
X202860816Y-122776884D01*
X202884272Y-123043163D01*
X202884594Y-123047792D01*
X202898444Y-123318984D01*
X202898594Y-123323541D01*
X202902487Y-123587212D01*
X202902672Y-123599755D01*
X202902659Y-123604220D01*
X202896820Y-123884185D01*
X202896767Y-123886716D01*
X202896623Y-123890630D01*
X202883127Y-124149020D01*
X202882895Y-124152525D01*
X202871644Y-124292532D01*
X202862742Y-124403303D01*
X202862386Y-124407036D01*
X202845203Y-124562548D01*
X202835575Y-124649677D01*
X202835081Y-124653586D01*
X202801509Y-124889274D01*
X202800862Y-124893340D01*
X202760402Y-125123295D01*
X202759600Y-125127441D01*
X202712096Y-125352877D01*
X202711145Y-125357042D01*
X202664995Y-125544341D01*
X202656340Y-125579465D01*
X202655250Y-125583585D01*
X202592945Y-125804058D01*
X202591739Y-125808072D01*
X202521591Y-126028061D01*
X202520295Y-126031910D01*
X202485989Y-126128612D01*
X202442595Y-126250931D01*
X202442012Y-126252573D01*
X202440657Y-126256213D01*
X202353886Y-126478779D01*
X202352507Y-126482169D01*
X202256928Y-126707739D01*
X202255570Y-126710827D01*
X202169432Y-126899734D01*
X202150824Y-126940542D01*
X202149503Y-126943348D01*
X202077512Y-127091390D01*
X202035280Y-127178237D01*
X202034023Y-127180748D01*
X201934121Y-127374969D01*
X201910060Y-127421745D01*
X201908918Y-127423913D01*
X201778968Y-127664531D01*
X201775031Y-127671821D01*
X201773906Y-127673858D01*
X201627695Y-127933017D01*
X201626486Y-127935111D01*
X201479696Y-128183663D01*
X201478372Y-128185852D01*
X201452146Y-128228182D01*
X201330126Y-128425124D01*
X201328616Y-128427501D01*
X201177922Y-128659002D01*
X201176304Y-128661426D01*
X201164092Y-128679270D01*
X201029214Y-128876349D01*
X201022098Y-128886746D01*
X201020431Y-128889121D01*
X200861614Y-129109851D01*
X200859878Y-129112204D01*
X200695417Y-129329800D01*
X200693672Y-129332055D01*
X200522394Y-129548120D01*
X200520703Y-129550205D01*
X200448708Y-129636992D01*
X200341594Y-129766111D01*
X200339879Y-129768135D01*
X200151797Y-129985380D01*
X200150161Y-129987232D01*
X199952022Y-130207225D01*
X199950494Y-130208891D01*
X199763097Y-130409596D01*
X199741325Y-130432914D01*
X199739954Y-130434359D01*
X199670214Y-130506673D01*
X199518601Y-130663883D01*
X199517341Y-130665172D01*
X199282866Y-130901444D01*
X199281756Y-130902548D01*
X199102106Y-131079121D01*
X199033304Y-131146744D01*
X199032358Y-131147664D01*
X198808787Y-131362767D01*
X198769900Y-131400181D01*
X198768706Y-131401315D01*
X198391583Y-131754519D01*
X198367996Y-131776610D01*
X198366329Y-131778143D01*
X198174949Y-131950951D01*
X197967620Y-132138161D01*
X197965800Y-132139774D01*
X197567467Y-132485733D01*
X197565515Y-132487393D01*
X197501128Y-132541057D01*
X197210545Y-132783245D01*
X197166744Y-132819751D01*
X197164681Y-132821434D01*
X196764568Y-133140718D01*
X196762395Y-133142413D01*
X196360189Y-133449020D01*
X196357870Y-133450746D01*
X195952773Y-133745112D01*
X195950348Y-133746831D01*
X195541400Y-134029499D01*
X195538881Y-134031195D01*
X195125361Y-134302532D01*
X195122763Y-134304192D01*
X194703577Y-134564804D01*
X194700917Y-134566413D01*
X194275372Y-134816634D01*
X194272667Y-134818180D01*
X193839759Y-135058528D01*
X193837028Y-135060000D01*
X193395938Y-135290870D01*
X193393205Y-135292258D01*
X192942923Y-135514140D01*
X192940295Y-135515397D01*
X192479972Y-135728680D01*
X192477336Y-135729864D01*
X192185672Y-135856799D01*
X192006137Y-135934934D01*
X192003497Y-135936047D01*
X191960473Y-135953619D01*
X191520546Y-136133294D01*
X191518031Y-136134289D01*
X191307382Y-136214973D01*
X191022396Y-136324129D01*
X191019914Y-136325051D01*
X190510700Y-136507872D01*
X190508436Y-136508658D01*
X189984772Y-136684835D01*
X189982587Y-136685547D01*
X189571813Y-136815038D01*
X189443750Y-136855408D01*
X189441565Y-136856074D01*
X188943412Y-137003239D01*
X188886784Y-137019968D01*
X188884730Y-137020556D01*
X188312963Y-137178906D01*
X188311069Y-137179415D01*
X188112431Y-137231021D01*
X187721537Y-137332573D01*
X187719712Y-137333032D01*
X187487313Y-137389718D01*
X187111830Y-137481304D01*
X187110177Y-137481695D01*
X186482866Y-137625511D01*
X186481363Y-137625845D01*
X185833994Y-137765530D01*
X185832675Y-137765806D01*
X185164350Y-137901746D01*
X185163056Y-137902002D01*
X184472994Y-138034564D01*
X184471836Y-138034781D01*
X183759557Y-138164279D01*
X183758509Y-138164464D01*
X183088361Y-138280041D01*
X183023003Y-138291313D01*
X183021996Y-138291483D01*
X182262053Y-138416128D01*
X182261368Y-138416237D01*
X181863393Y-138478786D01*
X181647088Y-138512782D01*
X181646366Y-138512893D01*
X181048744Y-138603273D01*
X181032140Y-138605784D01*
X181031410Y-138605892D01*
X180416740Y-138695147D01*
X180416217Y-138695221D01*
X179800398Y-138780888D01*
X179799767Y-138780974D01*
X179182162Y-138863093D01*
X179181416Y-138863189D01*
X178561400Y-138941800D01*
X178560974Y-138941852D01*
X177937644Y-139017031D01*
X177936954Y-139017113D01*
X177309206Y-139088956D01*
X177308694Y-139089013D01*
X176857588Y-139137876D01*
X176676443Y-139157497D01*
X176675690Y-139157576D01*
X176038128Y-139222765D01*
X176037384Y-139222839D01*
X175393505Y-139284815D01*
X175392771Y-139284884D01*
X174741765Y-139343703D01*
X174741044Y-139343766D01*
X174347108Y-139377078D01*
X174082426Y-139399460D01*
X174081825Y-139399509D01*
X173905388Y-139413429D01*
X173414664Y-139452144D01*
X173413974Y-139452196D01*
X172737907Y-139501798D01*
X172737234Y-139501846D01*
X172209962Y-139537697D01*
X172050809Y-139548518D01*
X172050269Y-139548553D01*
X171353202Y-139592311D01*
X171352882Y-139592331D01*
X170644150Y-139633247D01*
X170643896Y-139633260D01*
X170132975Y-139660267D01*
X169923387Y-139671346D01*
X169922799Y-139671376D01*
X169600121Y-139686921D01*
X169189363Y-139706709D01*
X169188944Y-139706729D01*
X168908807Y-139718963D01*
X168441775Y-139739360D01*
X168441233Y-139739382D01*
X167680338Y-139769334D01*
X167679820Y-139769354D01*
X166903167Y-139796729D01*
X166902674Y-139796745D01*
X166110759Y-139821549D01*
X166110289Y-139821563D01*
X165301977Y-139843863D01*
X165301531Y-139843875D01*
X164475530Y-139863735D01*
X164475107Y-139863744D01*
X163631358Y-139881199D01*
X163630959Y-139881207D01*
X162889091Y-139894202D01*
X162768504Y-139896314D01*
X162768216Y-139896318D01*
X161886180Y-139909129D01*
X161885826Y-139909133D01*
X160984233Y-139919692D01*
X160983899Y-139919696D01*
X160061006Y-139928063D01*
X160060694Y-139928065D01*
X159117126Y-139934282D01*
X159116473Y-139934285D01*
X158765564Y-139934778D01*
X158764787Y-139934777D01*
X158355222Y-139932827D01*
X158354658Y-139932823D01*
X157890241Y-139928531D01*
X157889806Y-139928526D01*
X157611750Y-139924998D01*
X157374573Y-139921988D01*
X156813291Y-139913317D01*
X156546158Y-139908581D01*
X156209944Y-139902619D01*
X156209699Y-139902615D01*
X155568897Y-139890006D01*
X155568683Y-139890001D01*
X154894208Y-139875583D01*
X154894017Y-139875579D01*
X154190789Y-139859478D01*
X154190614Y-139859474D01*
X153982680Y-139854425D01*
X153460871Y-139841754D01*
X152711761Y-139822600D01*
X151944053Y-139802032D01*
X151249295Y-139782602D01*
X151165073Y-139780247D01*
X151164928Y-139780243D01*
X150376686Y-139757291D01*
X150376687Y-139757258D01*
X150376543Y-139757287D01*
X149995047Y-139745740D01*
X149583844Y-139733294D01*
X149583698Y-139733290D01*
X148791154Y-139708382D01*
X148791004Y-139708377D01*
X148002291Y-139682651D01*
X148002135Y-139682646D01*
X147221292Y-139656206D01*
X147221127Y-139656200D01*
X146452160Y-139629151D01*
X146451982Y-139629145D01*
X145699483Y-139601611D01*
X145699289Y-139601604D01*
X144967225Y-139573690D01*
X144967010Y-139573681D01*
X144259828Y-139545508D01*
X144259587Y-139545498D01*
X143581282Y-139517172D01*
X143581005Y-139517160D01*
X142935775Y-139488795D01*
X142935452Y-139488781D01*
X142327279Y-139460479D01*
X142326893Y-139460460D01*
X142067105Y-139447572D01*
X141760330Y-139432354D01*
X141760223Y-139432348D01*
X141516125Y-139419320D01*
X141239121Y-139404535D01*
X141238526Y-139404502D01*
X140767543Y-139377126D01*
X140766763Y-139377078D01*
X140517364Y-139361031D01*
X140350773Y-139350311D01*
X140349865Y-139350249D01*
X140125353Y-139333879D01*
X139993559Y-139324270D01*
X139991988Y-139324146D01*
X139701079Y-139299272D01*
X139698534Y-139299028D01*
X139476720Y-139275521D01*
X139473958Y-139275198D01*
X138972539Y-139210840D01*
X138971029Y-139210637D01*
X138459701Y-139138711D01*
X138458253Y-139138498D01*
X138133938Y-139089029D01*
X137940748Y-139059561D01*
X137939475Y-139059360D01*
X137416127Y-138973523D01*
X137414951Y-138973323D01*
X136886393Y-138880747D01*
X136885231Y-138880537D01*
X136352019Y-138781369D01*
X136350840Y-138781143D01*
X135813681Y-138675564D01*
X135812454Y-138675317D01*
X135573109Y-138625800D01*
X135271817Y-138563467D01*
X135270787Y-138563248D01*
X134727044Y-138445240D01*
X134726096Y-138445030D01*
X134179829Y-138321023D01*
X134178781Y-138320780D01*
X133963230Y-138269726D01*
X133630725Y-138190970D01*
X133629598Y-138190697D01*
X133080290Y-138055240D01*
X133079226Y-138054973D01*
X132892396Y-138007095D01*
X132528860Y-137913933D01*
X132527763Y-137913646D01*
X132243340Y-137838024D01*
X131977227Y-137767270D01*
X131976364Y-137767037D01*
X131513888Y-137639633D01*
X131425959Y-137615410D01*
X131424879Y-137615107D01*
X130875448Y-137458474D01*
X130874372Y-137458162D01*
X130556917Y-137364602D01*
X130326219Y-137296611D01*
X130325287Y-137296332D01*
X129939524Y-137178899D01*
X129778785Y-137129967D01*
X129777710Y-137129634D01*
X129233936Y-136958778D01*
X129232857Y-136958434D01*
X128763110Y-136806187D01*
X128691724Y-136783050D01*
X128690667Y-136782702D01*
X128679828Y-136779080D01*
X128153048Y-136603050D01*
X128152153Y-136602747D01*
X127618390Y-136418922D01*
X127617481Y-136418605D01*
X127088224Y-136230801D01*
X127087196Y-136230430D01*
X126821435Y-136133283D01*
X126563295Y-136038921D01*
X126562154Y-136038498D01*
X126043677Y-135843275D01*
X126042514Y-135842830D01*
X125530378Y-135644193D01*
X125529190Y-135643726D01*
X125023677Y-135441744D01*
X125022461Y-135441251D01*
X125007447Y-135435070D01*
X124524123Y-135236091D01*
X124522945Y-135235599D01*
X124032337Y-135027430D01*
X124031161Y-135026922D01*
X123984944Y-135006703D01*
X130986743Y-135006703D01*
X130987302Y-135010947D01*
X130987302Y-135010951D01*
X130989650Y-135028784D01*
X131024268Y-135291734D01*
X131100129Y-135569036D01*
X131101813Y-135572984D01*
X131181046Y-135758741D01*
X131212923Y-135833476D01*
X131224693Y-135853142D01*
X131335748Y-136038701D01*
X131360561Y-136080161D01*
X131540313Y-136304528D01*
X131748851Y-136502423D01*
X131982317Y-136670186D01*
X131986112Y-136672195D01*
X131986113Y-136672196D01*
X132007869Y-136683715D01*
X132236392Y-136804712D01*
X132506373Y-136903511D01*
X132787264Y-136964755D01*
X132815841Y-136967004D01*
X133010282Y-136982307D01*
X133010291Y-136982307D01*
X133012739Y-136982500D01*
X133168271Y-136982500D01*
X133170407Y-136982354D01*
X133170418Y-136982354D01*
X133378548Y-136968165D01*
X133378554Y-136968164D01*
X133382825Y-136967873D01*
X133387020Y-136967004D01*
X133387022Y-136967004D01*
X133523583Y-136938724D01*
X133664342Y-136909574D01*
X133935343Y-136813607D01*
X134190812Y-136681750D01*
X134194313Y-136679289D01*
X134194317Y-136679287D01*
X134343186Y-136574660D01*
X134426023Y-136516441D01*
X134631980Y-136325054D01*
X134633479Y-136323661D01*
X134633481Y-136323658D01*
X134636622Y-136320740D01*
X134818713Y-136098268D01*
X134968927Y-135853142D01*
X135023933Y-135727836D01*
X135082757Y-135593830D01*
X135084483Y-135589898D01*
X135163244Y-135313406D01*
X135203751Y-135028784D01*
X135203845Y-135010951D01*
X135205235Y-134745583D01*
X135205235Y-134745576D01*
X135205257Y-134741297D01*
X135167732Y-134456266D01*
X135091871Y-134178964D01*
X135028481Y-134030350D01*
X134980763Y-133918476D01*
X134980761Y-133918472D01*
X134979077Y-133914524D01*
X134878715Y-133746831D01*
X134833643Y-133671521D01*
X134833640Y-133671517D01*
X134831439Y-133667839D01*
X134651687Y-133443472D01*
X134526057Y-133324254D01*
X134446258Y-133248527D01*
X134446255Y-133248525D01*
X134443149Y-133245577D01*
X134209683Y-133077814D01*
X134187843Y-133066250D01*
X134043000Y-132989560D01*
X133955608Y-132943288D01*
X133779717Y-132878921D01*
X133689658Y-132845964D01*
X133689656Y-132845963D01*
X133685627Y-132844489D01*
X133404736Y-132783245D01*
X133373685Y-132780801D01*
X133181718Y-132765693D01*
X133181709Y-132765693D01*
X133179261Y-132765500D01*
X133023729Y-132765500D01*
X133021593Y-132765646D01*
X133021582Y-132765646D01*
X132813452Y-132779835D01*
X132813446Y-132779836D01*
X132809175Y-132780127D01*
X132804980Y-132780996D01*
X132804978Y-132780996D01*
X132668416Y-132809277D01*
X132527658Y-132838426D01*
X132256657Y-132934393D01*
X132001188Y-133066250D01*
X131997687Y-133068711D01*
X131997683Y-133068713D01*
X131936572Y-133111663D01*
X131765977Y-133231559D01*
X131555378Y-133427260D01*
X131373287Y-133649732D01*
X131223073Y-133894858D01*
X131221347Y-133898791D01*
X131221346Y-133898792D01*
X131192756Y-133963922D01*
X131107517Y-134158102D01*
X131028756Y-134434594D01*
X130988249Y-134719216D01*
X130988227Y-134723505D01*
X130988226Y-134723512D01*
X130987343Y-134892103D01*
X130986743Y-135006703D01*
X123984944Y-135006703D01*
X123548775Y-134815890D01*
X123547599Y-134815368D01*
X123074076Y-134601682D01*
X123072876Y-134601131D01*
X122608059Y-134384639D01*
X122606909Y-134384096D01*
X122436306Y-134302532D01*
X122268248Y-134222185D01*
X122267506Y-134221827D01*
X122128739Y-134154170D01*
X121926601Y-134055615D01*
X121925755Y-134055198D01*
X121699425Y-133942744D01*
X121584154Y-133885470D01*
X121583487Y-133885136D01*
X121241234Y-133711944D01*
X121240429Y-133711533D01*
X120898275Y-133535282D01*
X120897480Y-133534869D01*
X120555822Y-133355788D01*
X120555038Y-133355373D01*
X120214619Y-133173875D01*
X120213841Y-133173457D01*
X120065060Y-133092789D01*
X119874587Y-132989516D01*
X119873952Y-132989169D01*
X119706799Y-132897022D01*
X119536562Y-132803174D01*
X119535790Y-132802745D01*
X119200812Y-132615006D01*
X119200038Y-132614568D01*
X118868072Y-132425428D01*
X118867294Y-132424981D01*
X118538713Y-132234654D01*
X118537926Y-132234195D01*
X118441883Y-132177632D01*
X118212769Y-132042699D01*
X118212163Y-132042338D01*
X117891593Y-131850349D01*
X117890931Y-131849950D01*
X117770541Y-131776610D01*
X117574911Y-131657435D01*
X117574081Y-131656924D01*
X117347070Y-131516213D01*
X117263545Y-131464440D01*
X117262824Y-131463989D01*
X117080284Y-131348814D01*
X116958076Y-131271705D01*
X116957197Y-131271146D01*
X116782652Y-131158987D01*
X116658273Y-131079063D01*
X116657566Y-131078604D01*
X116388708Y-130902551D01*
X116365508Y-130887359D01*
X116364561Y-130886733D01*
X116079725Y-130696530D01*
X116078738Y-130695864D01*
X116012730Y-130650878D01*
X115801608Y-130506994D01*
X115800743Y-130506399D01*
X115531614Y-130319020D01*
X115530535Y-130318260D01*
X115270086Y-130132800D01*
X115268933Y-130131969D01*
X115017821Y-129948853D01*
X115016595Y-129947948D01*
X114839023Y-129815140D01*
X114775017Y-129767270D01*
X114773790Y-129766339D01*
X114542279Y-129588438D01*
X114540949Y-129587401D01*
X114320112Y-129412685D01*
X114318764Y-129411601D01*
X114109310Y-129240579D01*
X114107671Y-129239218D01*
X113909966Y-129072138D01*
X113908182Y-129070602D01*
X113737784Y-128921055D01*
X113722829Y-128907930D01*
X113720900Y-128906200D01*
X113700967Y-128887957D01*
X113548480Y-128748405D01*
X113546381Y-128746439D01*
X113389014Y-128595521D01*
X113386100Y-128592632D01*
X113225028Y-128427501D01*
X113219902Y-128422246D01*
X113216713Y-128418854D01*
X113046802Y-128231270D01*
X113044096Y-128228182D01*
X112870646Y-128023678D01*
X112868282Y-128020806D01*
X112693417Y-127801844D01*
X112691295Y-127799111D01*
X112516958Y-127568075D01*
X112515005Y-127565416D01*
X112412384Y-127421745D01*
X112343014Y-127324626D01*
X112341189Y-127322001D01*
X112339166Y-127319009D01*
X112173342Y-127073827D01*
X112171583Y-127071152D01*
X112149375Y-127036434D01*
X112118281Y-126987826D01*
X112009647Y-126818002D01*
X112007908Y-126815204D01*
X111867290Y-126582177D01*
X111853492Y-126559312D01*
X111851786Y-126556395D01*
X111706567Y-126300166D01*
X111704802Y-126296942D01*
X111570481Y-126042942D01*
X111568663Y-126039369D01*
X111446844Y-125790134D01*
X111444956Y-125786089D01*
X111337231Y-125544341D01*
X111335257Y-125539662D01*
X111243192Y-125308416D01*
X111241139Y-125302885D01*
X111179922Y-125125355D01*
X111166180Y-125085505D01*
X111164085Y-125078830D01*
X111105496Y-124872294D01*
X111104067Y-124866785D01*
X111077026Y-124751937D01*
X111076155Y-124747950D01*
X111038794Y-124562548D01*
X111037935Y-124557823D01*
X111008274Y-124374878D01*
X111007613Y-124370260D01*
X111002459Y-124328804D01*
X110984872Y-124187368D01*
X110984398Y-124182913D01*
X110984277Y-124181536D01*
X110968206Y-123999553D01*
X110967902Y-123995282D01*
X110957929Y-123811101D01*
X110957775Y-123807056D01*
X110955869Y-123720337D01*
X110953701Y-123621646D01*
X110953675Y-123617885D01*
X110953823Y-123599755D01*
X110955193Y-123430961D01*
X110955271Y-123427447D01*
X110959097Y-123321260D01*
X110962074Y-123238665D01*
X110962230Y-123235462D01*
X110974013Y-123044509D01*
X110974224Y-123041626D01*
X110990536Y-122849862D01*
X110990853Y-122846630D01*
X111008069Y-122691647D01*
X111008674Y-122686992D01*
X111043322Y-122454421D01*
X111044306Y-122448721D01*
X111088814Y-122221941D01*
X111090070Y-122216242D01*
X111109429Y-122137176D01*
X111145278Y-121990759D01*
X111146775Y-121985199D01*
X111153651Y-121961805D01*
X111213266Y-121758984D01*
X111214953Y-121753679D01*
X111218937Y-121742055D01*
X111293401Y-121524757D01*
X111295220Y-121519792D01*
X111386350Y-121286301D01*
X111388215Y-121281785D01*
X111492770Y-121041983D01*
X111494634Y-121037909D01*
X111546254Y-120930184D01*
X111614005Y-120788796D01*
X111615513Y-120785756D01*
X111701945Y-120617226D01*
X111703103Y-120615021D01*
X111797140Y-120440257D01*
X111798206Y-120438317D01*
X111899100Y-120258700D01*
X111900118Y-120256924D01*
X112013781Y-120062425D01*
X112014935Y-120060489D01*
X112038611Y-120021589D01*
X112129890Y-119871618D01*
X112131053Y-119869747D01*
X112247368Y-119686452D01*
X112248662Y-119684457D01*
X112262917Y-119662933D01*
X112281393Y-119635034D01*
X112366622Y-119506339D01*
X112368048Y-119504232D01*
X112487804Y-119331098D01*
X112489318Y-119328958D01*
X112501053Y-119312726D01*
X112611227Y-119160323D01*
X112612778Y-119158224D01*
X112737002Y-118993886D01*
X112738661Y-118991741D01*
X112865491Y-118831331D01*
X112867217Y-118829196D01*
X112996943Y-118672363D01*
X112998754Y-118670223D01*
X113131553Y-118516758D01*
X113133358Y-118514717D01*
X113269674Y-118364112D01*
X113271530Y-118362108D01*
X113411412Y-118214311D01*
X113413344Y-118212313D01*
X113557267Y-118066813D01*
X113559216Y-118064886D01*
X113707381Y-117921476D01*
X113709333Y-117919626D01*
X113712467Y-117916720D01*
X113820351Y-117816668D01*
X113862060Y-117777987D01*
X113864002Y-117776224D01*
X114021500Y-117636144D01*
X114023419Y-117634472D01*
X114186143Y-117495528D01*
X114188027Y-117493950D01*
X114356082Y-117356029D01*
X114357919Y-117354550D01*
X114531716Y-117217281D01*
X114533499Y-117215898D01*
X114607961Y-117159221D01*
X114713318Y-117079029D01*
X114714958Y-117077804D01*
X114900948Y-116941178D01*
X114902501Y-116940056D01*
X115094992Y-116803379D01*
X115096494Y-116802329D01*
X115295726Y-116665375D01*
X115297143Y-116664416D01*
X115503285Y-116526999D01*
X115504559Y-116526162D01*
X115717969Y-116387978D01*
X115719098Y-116387256D01*
X115940089Y-116248022D01*
X115941212Y-116247324D01*
X116169521Y-116107123D01*
X116170663Y-116106430D01*
X116367444Y-115988445D01*
X116407106Y-115964665D01*
X116408047Y-115964107D01*
X116652514Y-115820754D01*
X116653262Y-115820319D01*
X116906068Y-115675086D01*
X116906876Y-115674627D01*
X117167907Y-115527473D01*
X117168714Y-115527021D01*
X117407274Y-115394834D01*
X117420776Y-115388370D01*
X117445217Y-115378406D01*
X117445218Y-115378406D01*
X117453532Y-115375016D01*
X117460557Y-115369431D01*
X117460560Y-115369430D01*
X117504700Y-115334343D01*
X117507029Y-115332536D01*
X117551944Y-115298517D01*
X117559103Y-115293095D01*
X117562708Y-115288233D01*
X117567444Y-115284469D01*
X117605139Y-115231073D01*
X117606865Y-115228688D01*
X117640432Y-115183423D01*
X117640433Y-115183421D01*
X117645779Y-115176212D01*
X117647873Y-115170538D01*
X117651365Y-115165592D01*
X117672556Y-115103766D01*
X117673535Y-115101014D01*
X117693060Y-115048117D01*
X117693060Y-115048116D01*
X117696167Y-115039699D01*
X117696585Y-115033661D01*
X117698546Y-115027939D01*
X117701534Y-114962642D01*
X117701703Y-114959703D01*
X117705593Y-114903486D01*
X117706213Y-114894532D01*
X117704921Y-114888627D01*
X117705198Y-114882576D01*
X117703075Y-114873856D01*
X117703075Y-114873852D01*
X117689737Y-114819056D01*
X117689073Y-114816187D01*
X117677031Y-114761147D01*
X117675113Y-114752379D01*
X117656276Y-114717889D01*
X117650478Y-114705778D01*
X117600374Y-114584996D01*
X117600150Y-114584451D01*
X117522648Y-114394791D01*
X117522025Y-114393239D01*
X117447344Y-114203321D01*
X117447163Y-114202857D01*
X117373013Y-114012081D01*
X117372893Y-114011770D01*
X117282216Y-113776631D01*
X117282055Y-113776212D01*
X117195790Y-113550117D01*
X117195608Y-113549637D01*
X117113843Y-113332685D01*
X117113637Y-113332135D01*
X117036222Y-113123787D01*
X117035992Y-113123163D01*
X116962841Y-112923065D01*
X116962586Y-112922361D01*
X116893960Y-112731125D01*
X116893528Y-112729902D01*
X116767389Y-112366677D01*
X116766724Y-112364710D01*
X116656530Y-112029683D01*
X116655767Y-112027283D01*
X116560483Y-111716817D01*
X116559641Y-111713952D01*
X116478438Y-111425126D01*
X116477545Y-111421773D01*
X116409545Y-111151563D01*
X116408646Y-111147742D01*
X116352896Y-110892919D01*
X116352046Y-110888685D01*
X116307579Y-110645847D01*
X116306833Y-110641308D01*
X116275652Y-110427168D01*
X116272678Y-110406744D01*
X116272085Y-110402055D01*
X116247364Y-110171926D01*
X116246950Y-110167257D01*
X116230892Y-109937604D01*
X116230660Y-109933152D01*
X116222632Y-109700037D01*
X116222557Y-109695974D01*
X116222035Y-109455568D01*
X116222077Y-109452024D01*
X116228622Y-109199951D01*
X116228718Y-109197331D01*
X116232234Y-109122186D01*
X116237711Y-109005150D01*
X116237832Y-109002982D01*
X116239045Y-108984165D01*
X116249836Y-108816672D01*
X116250116Y-108813106D01*
X116284723Y-108440952D01*
X116285301Y-108435861D01*
X116333737Y-108074907D01*
X116334566Y-108069597D01*
X116398257Y-107711567D01*
X116399320Y-107706253D01*
X116480342Y-107342340D01*
X116481266Y-107338481D01*
X116527268Y-107158743D01*
X116527927Y-107156269D01*
X116534784Y-107131580D01*
X116579512Y-106970514D01*
X116580187Y-106968173D01*
X116591318Y-106930931D01*
X116636691Y-106779114D01*
X116637381Y-106776882D01*
X116699014Y-106583871D01*
X116699711Y-106581754D01*
X116766669Y-106384194D01*
X116767357Y-106382216D01*
X116839866Y-106179430D01*
X116840538Y-106177596D01*
X116918793Y-105969004D01*
X116919349Y-105967556D01*
X117003483Y-105752729D01*
X117004094Y-105751199D01*
X117051307Y-105635189D01*
X117094319Y-105529504D01*
X117094821Y-105528290D01*
X117191330Y-105299132D01*
X117191756Y-105298136D01*
X117294765Y-105060870D01*
X117295072Y-105060172D01*
X117404603Y-104814584D01*
X117405047Y-104813603D01*
X117521118Y-104559459D01*
X117521537Y-104558551D01*
X117644480Y-104294920D01*
X117644857Y-104294118D01*
X117660832Y-104260483D01*
X117774912Y-104020279D01*
X117775215Y-104019648D01*
X117912343Y-103735466D01*
X117912640Y-103734855D01*
X118057133Y-103439492D01*
X118057393Y-103438964D01*
X118209311Y-103132063D01*
X118209535Y-103131612D01*
X118273374Y-103003933D01*
X118369091Y-102812495D01*
X118536324Y-102480831D01*
X118616897Y-102322152D01*
X118711258Y-102136317D01*
X118711390Y-102136057D01*
X118894518Y-101777463D01*
X118894556Y-101777388D01*
X119058865Y-101456178D01*
X119058937Y-101456050D01*
X119059046Y-101455899D01*
X119077113Y-101420504D01*
X119093203Y-101389051D01*
X119093209Y-101389038D01*
X119093451Y-101388565D01*
X119093512Y-101388387D01*
X119093567Y-101388271D01*
X119230898Y-101119228D01*
X119231002Y-101119041D01*
X119231164Y-101118816D01*
X119249099Y-101083570D01*
X119265402Y-101051630D01*
X119265489Y-101051376D01*
X119265584Y-101051171D01*
X119392970Y-100800825D01*
X119393122Y-100800553D01*
X119393341Y-100800247D01*
X119411068Y-100765258D01*
X119427366Y-100733227D01*
X119427484Y-100732878D01*
X119427620Y-100732586D01*
X119545499Y-100499914D01*
X119545703Y-100499547D01*
X119545985Y-100499152D01*
X119563488Y-100464405D01*
X119579747Y-100432313D01*
X119579904Y-100431849D01*
X119580083Y-100431462D01*
X119688886Y-100215468D01*
X119689148Y-100214993D01*
X119689508Y-100214487D01*
X119706885Y-100179738D01*
X119722952Y-100147842D01*
X119723152Y-100147248D01*
X119723366Y-100146779D01*
X119773159Y-100047207D01*
X119823558Y-99946424D01*
X119823884Y-99945829D01*
X119824327Y-99945201D01*
X119841482Y-99910580D01*
X119857388Y-99878773D01*
X119857632Y-99878042D01*
X119857910Y-99877429D01*
X119949919Y-99691747D01*
X119950319Y-99691008D01*
X119950856Y-99690240D01*
X119952002Y-99687902D01*
X119952008Y-99687890D01*
X119967653Y-99655958D01*
X119967904Y-99655449D01*
X119982304Y-99626390D01*
X119982309Y-99626378D01*
X119983464Y-99624048D01*
X119983759Y-99623152D01*
X119984108Y-99622375D01*
X120007230Y-99575184D01*
X120068378Y-99450385D01*
X120068861Y-99449484D01*
X120069505Y-99448552D01*
X120070852Y-99445766D01*
X120070857Y-99445756D01*
X120086010Y-99414406D01*
X120086305Y-99413800D01*
X120100236Y-99385367D01*
X120100239Y-99385360D01*
X120101586Y-99382611D01*
X120101935Y-99381536D01*
X120102353Y-99380592D01*
X120179357Y-99221276D01*
X120179932Y-99220187D01*
X120180687Y-99219080D01*
X120196851Y-99185088D01*
X120197179Y-99184404D01*
X120202318Y-99173772D01*
X120212160Y-99153410D01*
X120212567Y-99152130D01*
X120213067Y-99150986D01*
X120283259Y-99003374D01*
X120283934Y-99002074D01*
X120284806Y-99000774D01*
X120300552Y-98967016D01*
X120300950Y-98966170D01*
X120308114Y-98951104D01*
X120315589Y-98935385D01*
X120316052Y-98933895D01*
X120316640Y-98932522D01*
X120341108Y-98880064D01*
X120380497Y-98795619D01*
X120381278Y-98794084D01*
X120382270Y-98792576D01*
X120397585Y-98758988D01*
X120397926Y-98758249D01*
X120412276Y-98727484D01*
X120412800Y-98725756D01*
X120413488Y-98724112D01*
X120471528Y-98596825D01*
X120473088Y-98593667D01*
X120474775Y-98591017D01*
X120477175Y-98585534D01*
X120488740Y-98559112D01*
X120489523Y-98557360D01*
X120500755Y-98532726D01*
X120502615Y-98528647D01*
X120503497Y-98525642D01*
X120504841Y-98522321D01*
X120583406Y-98342816D01*
X120634655Y-98225721D01*
X120637470Y-98219726D01*
X120637614Y-98219439D01*
X120640123Y-98215276D01*
X120652152Y-98185839D01*
X120653360Y-98182984D01*
X120664840Y-98156754D01*
X120666035Y-98152441D01*
X120666635Y-98150752D01*
X120668715Y-98145303D01*
X120778360Y-97876966D01*
X120780768Y-97871457D01*
X120782383Y-97867990D01*
X120784773Y-97863750D01*
X120786483Y-97859191D01*
X120795423Y-97835352D01*
X120796760Y-97831938D01*
X120805371Y-97810862D01*
X120807068Y-97806709D01*
X120808160Y-97802355D01*
X120809552Y-97798108D01*
X120809711Y-97798160D01*
X120811396Y-97792755D01*
X120904861Y-97543513D01*
X120907412Y-97537800D01*
X120907244Y-97537728D01*
X120909156Y-97533252D01*
X120911406Y-97528941D01*
X120920833Y-97501105D01*
X120922195Y-97497287D01*
X120931407Y-97472722D01*
X120932371Y-97468341D01*
X120933641Y-97464047D01*
X120933737Y-97464075D01*
X120935415Y-97458045D01*
X120936114Y-97455983D01*
X121016464Y-97218721D01*
X121018889Y-97212776D01*
X121018737Y-97212717D01*
X121020498Y-97208186D01*
X121022610Y-97203791D01*
X121031036Y-97175907D01*
X121032304Y-97171949D01*
X121039196Y-97151599D01*
X121040632Y-97147359D01*
X121041452Y-97142961D01*
X121042588Y-97138611D01*
X121042666Y-97138631D01*
X121044183Y-97132399D01*
X121115527Y-96896302D01*
X121117637Y-96890627D01*
X121117437Y-96890556D01*
X121119059Y-96885964D01*
X121121029Y-96881512D01*
X121128725Y-96852836D01*
X121129806Y-96849047D01*
X121136189Y-96827925D01*
X121137486Y-96823633D01*
X121138162Y-96819198D01*
X121139149Y-96814831D01*
X121139266Y-96814857D01*
X121140513Y-96808918D01*
X121205223Y-96567814D01*
X121207016Y-96561744D01*
X121207661Y-96559747D01*
X121209514Y-96555235D01*
X121213629Y-96538065D01*
X121216740Y-96525080D01*
X121217579Y-96521777D01*
X121223651Y-96499154D01*
X121223652Y-96499150D01*
X121224815Y-96494816D01*
X121225352Y-96490363D01*
X121226045Y-96486779D01*
X121227221Y-96481344D01*
X121271697Y-96295750D01*
X121288170Y-96227013D01*
X121289597Y-96221718D01*
X121291144Y-96217711D01*
X121293161Y-96208433D01*
X121298125Y-96185591D01*
X121298720Y-96182988D01*
X121304607Y-96158421D01*
X121304607Y-96158420D01*
X121305650Y-96154068D01*
X121306047Y-96149812D01*
X121307121Y-96144195D01*
X121367283Y-95867360D01*
X121368113Y-95864044D01*
X121369177Y-95861160D01*
X121376067Y-95827006D01*
X121376453Y-95825163D01*
X121382242Y-95798526D01*
X121383195Y-95794141D01*
X121383415Y-95791082D01*
X121384009Y-95787639D01*
X121445863Y-95481040D01*
X121446203Y-95479614D01*
X121446730Y-95478152D01*
X121453829Y-95441569D01*
X121454002Y-95440695D01*
X121459947Y-95411230D01*
X121459951Y-95411207D01*
X121460752Y-95407235D01*
X121460840Y-95405681D01*
X121461074Y-95404232D01*
X121482660Y-95292985D01*
X121486291Y-95274275D01*
X121486422Y-95273711D01*
X121486650Y-95273074D01*
X121493887Y-95235128D01*
X121497762Y-95215159D01*
X121500344Y-95201855D01*
X121500345Y-95201848D01*
X121500707Y-95199983D01*
X121500740Y-95199311D01*
X121500834Y-95198710D01*
X121527496Y-95058915D01*
X121527529Y-95058771D01*
X121527585Y-95058615D01*
X121534902Y-95020083D01*
X121541633Y-94984795D01*
X121541635Y-94984784D01*
X121541727Y-94984300D01*
X121541735Y-94984131D01*
X121541757Y-94983989D01*
X121563722Y-94868323D01*
X121563853Y-94867647D01*
X121624385Y-94558126D01*
X121624783Y-94556170D01*
X121640179Y-94483568D01*
X121691278Y-94242616D01*
X121691987Y-94239469D01*
X121724677Y-94102776D01*
X121766821Y-93926545D01*
X121767949Y-93922179D01*
X121811096Y-93766635D01*
X121853257Y-93614643D01*
X121854956Y-93609031D01*
X121875846Y-93545415D01*
X121952550Y-93311819D01*
X121955059Y-93304873D01*
X122003640Y-93181788D01*
X122041556Y-93085721D01*
X122066342Y-93022923D01*
X122069980Y-93014596D01*
X122195888Y-92752646D01*
X122201073Y-92742964D01*
X122342069Y-92505193D01*
X122349298Y-92494328D01*
X122505630Y-92283862D01*
X122515386Y-92272257D01*
X122669749Y-92109607D01*
X122687785Y-92090603D01*
X122700349Y-92079046D01*
X122891069Y-91926144D01*
X122906322Y-91915659D01*
X122979067Y-91873165D01*
X123120305Y-91790662D01*
X123137510Y-91782295D01*
X123382489Y-91685396D01*
X123400439Y-91679804D01*
X123696312Y-91611368D01*
X123709429Y-91609057D01*
X123858625Y-91590833D01*
X123867006Y-91590092D01*
X123921269Y-91587118D01*
X124040671Y-91580574D01*
X124048606Y-91580389D01*
X124151262Y-91581249D01*
X124225429Y-91581871D01*
X124237146Y-91582516D01*
X124505106Y-91609821D01*
X124520589Y-91612381D01*
X124762377Y-91668019D01*
X124777163Y-91672390D01*
X125007141Y-91755979D01*
X125020538Y-91761746D01*
X125145980Y-91824592D01*
X125242932Y-91873165D01*
X125254514Y-91879756D01*
X125389280Y-91966186D01*
X125472046Y-92019267D01*
X125481686Y-92026108D01*
X125588360Y-92109607D01*
X125695739Y-92193658D01*
X125703534Y-92200287D01*
X125914648Y-92395153D01*
X125920788Y-92401224D01*
X126123365Y-92615875D01*
X126129087Y-92621938D01*
X126133897Y-92627337D01*
X126339446Y-92871835D01*
X126343138Y-92876442D01*
X126546144Y-93142262D01*
X126548929Y-93146054D01*
X126574164Y-93181788D01*
X126686453Y-93340795D01*
X126749813Y-93430517D01*
X126751846Y-93433486D01*
X126814949Y-93528524D01*
X126951251Y-93733809D01*
X126952682Y-93736015D01*
X127151438Y-94049360D01*
X127152244Y-94050648D01*
X127351501Y-94374434D01*
X127351862Y-94375027D01*
X127534254Y-94675916D01*
X127551452Y-94704288D01*
X127728698Y-94996727D01*
X127734355Y-95006061D01*
X127734734Y-95006742D01*
X127735069Y-95007545D01*
X127736336Y-95009616D01*
X127755174Y-95040413D01*
X127755441Y-95040852D01*
X127766737Y-95059488D01*
X127773548Y-95070726D01*
X127774096Y-95071394D01*
X127774507Y-95072018D01*
X127819765Y-95146003D01*
X127821549Y-95148920D01*
X127822095Y-95149890D01*
X127822574Y-95151022D01*
X127842519Y-95183205D01*
X127842702Y-95183502D01*
X127860903Y-95213257D01*
X127861685Y-95214203D01*
X127862322Y-95215159D01*
X127980180Y-95405332D01*
X127988100Y-95418112D01*
X127988884Y-95419480D01*
X127989539Y-95420995D01*
X128009352Y-95452410D01*
X128009785Y-95453103D01*
X128025486Y-95478439D01*
X128025496Y-95478454D01*
X128027747Y-95482086D01*
X128028801Y-95483344D01*
X128029704Y-95484681D01*
X128145344Y-95668036D01*
X128146144Y-95669407D01*
X128146815Y-95670925D01*
X128149169Y-95674592D01*
X128149171Y-95674596D01*
X128166793Y-95702052D01*
X128167329Y-95702894D01*
X128180443Y-95723686D01*
X128185486Y-95731682D01*
X128186564Y-95732950D01*
X128187478Y-95734279D01*
X128271230Y-95864764D01*
X128292701Y-95898216D01*
X128293527Y-95899606D01*
X128294219Y-95901140D01*
X128296629Y-95904829D01*
X128296640Y-95904848D01*
X128314505Y-95932197D01*
X128315047Y-95933033D01*
X128333355Y-95961557D01*
X128334449Y-95962823D01*
X128335380Y-95964154D01*
X128430017Y-96109033D01*
X128430862Y-96110430D01*
X128431571Y-96111967D01*
X128434015Y-96115643D01*
X128434016Y-96115645D01*
X128452140Y-96142907D01*
X128452699Y-96143756D01*
X128471172Y-96172037D01*
X128472288Y-96173307D01*
X128473238Y-96174643D01*
X128557098Y-96300789D01*
X128557963Y-96302193D01*
X128558688Y-96303730D01*
X128561188Y-96307425D01*
X128561196Y-96307438D01*
X128579456Y-96334426D01*
X128579969Y-96335189D01*
X128598757Y-96363451D01*
X128599892Y-96364722D01*
X128600865Y-96366067D01*
X128673839Y-96473921D01*
X128674971Y-96475722D01*
X128675893Y-96477627D01*
X128678663Y-96481632D01*
X128678665Y-96481636D01*
X128696524Y-96507460D01*
X128697176Y-96508412D01*
X128715927Y-96536125D01*
X128717348Y-96537690D01*
X128718636Y-96539437D01*
X128828410Y-96698175D01*
X128829876Y-96700449D01*
X128831029Y-96702759D01*
X128851720Y-96731897D01*
X128852553Y-96733088D01*
X128868509Y-96756162D01*
X128868515Y-96756169D01*
X128871065Y-96759857D01*
X128872814Y-96761745D01*
X128874482Y-96763952D01*
X128945498Y-96863963D01*
X128959026Y-96883015D01*
X128960839Y-96885746D01*
X128962210Y-96888397D01*
X128968002Y-96896309D01*
X128982911Y-96916676D01*
X128983972Y-96918149D01*
X128992670Y-96930397D01*
X129002412Y-96944116D01*
X129004464Y-96946276D01*
X129006506Y-96948906D01*
X129012313Y-96956838D01*
X129093328Y-97067507D01*
X129096603Y-97072250D01*
X129098729Y-97076147D01*
X129101691Y-97080012D01*
X129118567Y-97102034D01*
X129120221Y-97104242D01*
X129137666Y-97128073D01*
X129140754Y-97131232D01*
X129144530Y-97135915D01*
X129236690Y-97256179D01*
X129239776Y-97260386D01*
X129269394Y-97302570D01*
X129269399Y-97302575D01*
X129274553Y-97309916D01*
X129281563Y-97315517D01*
X129306472Y-97335421D01*
X129315953Y-97343811D01*
X129345152Y-97372391D01*
X129357750Y-97379114D01*
X129377074Y-97391835D01*
X129388234Y-97400752D01*
X129426038Y-97416276D01*
X129437472Y-97421658D01*
X129473530Y-97440901D01*
X129482317Y-97442735D01*
X129482318Y-97442735D01*
X129487515Y-97443820D01*
X129509631Y-97450605D01*
X129511937Y-97451552D01*
X129522840Y-97456029D01*
X129563470Y-97460319D01*
X129575975Y-97462279D01*
X129607189Y-97468792D01*
X129607194Y-97468792D01*
X129615977Y-97470625D01*
X129624922Y-97469919D01*
X129624924Y-97469919D01*
X129630207Y-97469502D01*
X129653347Y-97469807D01*
X129658626Y-97470364D01*
X129658627Y-97470364D01*
X129667551Y-97471306D01*
X129676377Y-97469706D01*
X129676380Y-97469706D01*
X129707760Y-97464018D01*
X129720315Y-97462389D01*
X129729666Y-97461651D01*
X129761040Y-97459174D01*
X129769433Y-97455983D01*
X129769435Y-97455983D01*
X129814506Y-97438850D01*
X129840503Y-97432034D01*
X129951158Y-97415360D01*
X129954883Y-97414915D01*
X129958183Y-97414878D01*
X129962990Y-97414074D01*
X129962995Y-97414074D01*
X129992177Y-97409196D01*
X129994159Y-97408880D01*
X130000926Y-97407861D01*
X130020792Y-97404868D01*
X130020799Y-97404866D01*
X130025222Y-97404200D01*
X130028376Y-97403253D01*
X130032178Y-97402509D01*
X130106029Y-97390165D01*
X130111287Y-97389400D01*
X130132880Y-97386721D01*
X130132890Y-97386719D01*
X130137718Y-97386120D01*
X130142401Y-97384784D01*
X130144746Y-97384307D01*
X130147412Y-97383706D01*
X130147380Y-97383575D01*
X130151741Y-97382523D01*
X130156161Y-97381784D01*
X130160435Y-97380425D01*
X130182597Y-97373378D01*
X130186216Y-97372286D01*
X130419057Y-97305868D01*
X130422412Y-97304961D01*
X130425214Y-97304245D01*
X130453208Y-97297088D01*
X130457685Y-97295170D01*
X130458065Y-97295041D01*
X130460781Y-97293966D01*
X130463969Y-97293057D01*
X130494758Y-97279303D01*
X130496517Y-97278534D01*
X130668705Y-97204769D01*
X130674348Y-97202511D01*
X130692826Y-97195632D01*
X130692836Y-97195627D01*
X130697387Y-97193933D01*
X130701621Y-97191560D01*
X130701627Y-97191557D01*
X130702545Y-97191042D01*
X130709003Y-97187860D01*
X130709000Y-97187853D01*
X130712988Y-97185798D01*
X130717105Y-97184034D01*
X130738952Y-97170730D01*
X130742878Y-97168435D01*
X130816303Y-97127280D01*
X130912492Y-97073365D01*
X130918216Y-97070348D01*
X130939319Y-97059908D01*
X130943299Y-97057104D01*
X130943303Y-97057101D01*
X130944962Y-97055932D01*
X130953841Y-97050335D01*
X130955334Y-97049353D01*
X130959244Y-97047161D01*
X130962803Y-97044438D01*
X130962809Y-97044434D01*
X130978707Y-97032270D01*
X130982675Y-97029355D01*
X131152005Y-96910029D01*
X131157769Y-96906200D01*
X131176701Y-96894364D01*
X131181021Y-96890627D01*
X131182789Y-96889097D01*
X131192648Y-96881389D01*
X131196702Y-96878532D01*
X131199953Y-96875466D01*
X131199958Y-96875462D01*
X131213629Y-96862568D01*
X131217626Y-96858958D01*
X131384979Y-96714172D01*
X131390767Y-96709458D01*
X131403508Y-96699693D01*
X131407374Y-96696730D01*
X131413858Y-96689941D01*
X131422538Y-96681678D01*
X131423906Y-96680494D01*
X131427300Y-96677558D01*
X131441636Y-96661057D01*
X131445616Y-96656689D01*
X131503286Y-96596307D01*
X131609404Y-96485198D01*
X131615128Y-96479577D01*
X131629402Y-96466427D01*
X131632432Y-96462617D01*
X131632439Y-96462610D01*
X131636172Y-96457917D01*
X131643649Y-96449342D01*
X131649029Y-96443709D01*
X131660828Y-96427189D01*
X131664751Y-96421986D01*
X131734029Y-96334888D01*
X131820684Y-96225944D01*
X131827509Y-96218059D01*
X131836566Y-96208433D01*
X131846132Y-96194466D01*
X131851474Y-96187235D01*
X131857294Y-96179918D01*
X131857299Y-96179910D01*
X131860085Y-96176408D01*
X131862344Y-96172550D01*
X131862350Y-96172541D01*
X131867170Y-96164308D01*
X131871941Y-96156783D01*
X131958918Y-96029789D01*
X131966524Y-96019793D01*
X131968413Y-96017552D01*
X131968418Y-96017545D01*
X131971555Y-96013823D01*
X131974079Y-96009667D01*
X131974085Y-96009659D01*
X131983107Y-95994805D01*
X131986839Y-95989022D01*
X131997649Y-95973239D01*
X131999631Y-95969221D01*
X131999637Y-95969211D01*
X132001452Y-95965531D01*
X132006758Y-95955865D01*
X132029436Y-95918528D01*
X132089259Y-95820035D01*
X132096489Y-95809396D01*
X132097804Y-95807659D01*
X132100739Y-95803782D01*
X132111635Y-95783524D01*
X132114886Y-95777843D01*
X132125219Y-95760830D01*
X132128306Y-95753601D01*
X132133201Y-95743429D01*
X132213313Y-95594486D01*
X132220137Y-95583247D01*
X132220946Y-95582059D01*
X132223685Y-95578038D01*
X132233883Y-95556572D01*
X132236693Y-95551018D01*
X132246479Y-95532824D01*
X132248914Y-95526178D01*
X132253412Y-95515460D01*
X132268528Y-95483642D01*
X132328541Y-95357311D01*
X132331350Y-95351757D01*
X132332641Y-95349353D01*
X132335269Y-95345255D01*
X132347703Y-95317086D01*
X132349149Y-95313932D01*
X132359100Y-95292985D01*
X132359104Y-95292974D01*
X132361024Y-95288933D01*
X132362352Y-95284658D01*
X132363920Y-95280643D01*
X132366017Y-95275599D01*
X132459258Y-95064374D01*
X132461541Y-95059488D01*
X132484183Y-95013616D01*
X132484184Y-95013613D01*
X132488156Y-95005566D01*
X132491931Y-94984094D01*
X132495293Y-94964972D01*
X132498071Y-94952764D01*
X132506775Y-94921732D01*
X132509199Y-94913090D01*
X132508488Y-94848687D01*
X132508504Y-94844860D01*
X132508534Y-94843353D01*
X132512891Y-94620703D01*
X181278743Y-94620703D01*
X181279302Y-94624947D01*
X181279302Y-94624951D01*
X181289746Y-94704282D01*
X181316268Y-94905734D01*
X181317401Y-94909874D01*
X181317401Y-94909876D01*
X181332474Y-94964972D01*
X181392129Y-95183036D01*
X181393813Y-95186984D01*
X181502223Y-95441145D01*
X181504923Y-95447476D01*
X181523454Y-95478439D01*
X181640852Y-95674596D01*
X181652561Y-95694161D01*
X181832313Y-95918528D01*
X181893861Y-95976935D01*
X182034164Y-96110077D01*
X182040851Y-96116423D01*
X182274317Y-96284186D01*
X182278112Y-96286195D01*
X182278113Y-96286196D01*
X182307652Y-96301836D01*
X182528392Y-96418712D01*
X182798373Y-96517511D01*
X183079264Y-96578755D01*
X183107841Y-96581004D01*
X183302282Y-96596307D01*
X183302291Y-96596307D01*
X183304739Y-96596500D01*
X183460271Y-96596500D01*
X183462407Y-96596354D01*
X183462418Y-96596354D01*
X183670548Y-96582165D01*
X183670554Y-96582164D01*
X183674825Y-96581873D01*
X183679020Y-96581004D01*
X183679022Y-96581004D01*
X183896015Y-96536067D01*
X183956342Y-96523574D01*
X184227343Y-96427607D01*
X184482812Y-96295750D01*
X184486313Y-96293289D01*
X184486317Y-96293287D01*
X184625032Y-96195796D01*
X184718023Y-96130441D01*
X184848000Y-96009659D01*
X184925479Y-95937661D01*
X184925481Y-95937658D01*
X184928622Y-95934740D01*
X185110713Y-95712268D01*
X185260927Y-95467142D01*
X185272134Y-95441613D01*
X185374757Y-95207830D01*
X185376483Y-95203898D01*
X185400660Y-95119026D01*
X185446300Y-94958805D01*
X185455244Y-94927406D01*
X185495751Y-94642784D01*
X185495775Y-94638362D01*
X185497235Y-94359583D01*
X185497235Y-94359576D01*
X185497257Y-94355297D01*
X185495241Y-94339980D01*
X185469969Y-94148026D01*
X185459732Y-94070266D01*
X185383871Y-93792964D01*
X185318930Y-93640713D01*
X185272763Y-93532476D01*
X185272761Y-93532472D01*
X185271077Y-93528524D01*
X185165817Y-93352647D01*
X185125643Y-93285521D01*
X185125640Y-93285517D01*
X185123439Y-93281839D01*
X184943687Y-93057472D01*
X184750443Y-92874090D01*
X184738258Y-92862527D01*
X184738255Y-92862525D01*
X184735149Y-92859577D01*
X184501683Y-92691814D01*
X184479843Y-92680250D01*
X184414657Y-92645736D01*
X184247608Y-92557288D01*
X183977627Y-92458489D01*
X183696736Y-92397245D01*
X183665685Y-92394801D01*
X183473718Y-92379693D01*
X183473709Y-92379693D01*
X183471261Y-92379500D01*
X183315729Y-92379500D01*
X183313593Y-92379646D01*
X183313582Y-92379646D01*
X183105452Y-92393835D01*
X183105446Y-92393836D01*
X183101175Y-92394127D01*
X183096980Y-92394996D01*
X183096978Y-92394996D01*
X182960417Y-92423276D01*
X182819658Y-92452426D01*
X182548657Y-92548393D01*
X182293188Y-92680250D01*
X182289687Y-92682711D01*
X182289683Y-92682713D01*
X182279594Y-92689804D01*
X182057977Y-92845559D01*
X181979597Y-92918394D01*
X181871673Y-93018684D01*
X181847378Y-93041260D01*
X181665287Y-93263732D01*
X181515073Y-93508858D01*
X181513347Y-93512791D01*
X181513346Y-93512792D01*
X181416326Y-93733809D01*
X181399517Y-93772102D01*
X181320756Y-94048594D01*
X181297349Y-94213064D01*
X181282769Y-94315512D01*
X181280249Y-94333216D01*
X181280227Y-94337505D01*
X181280226Y-94337512D01*
X181278815Y-94606943D01*
X181278743Y-94620703D01*
X132512891Y-94620703D01*
X132538393Y-93317411D01*
X132552314Y-92606003D01*
X132552314Y-92605991D01*
X132555850Y-92426167D01*
X132562408Y-92092647D01*
X132572505Y-91606471D01*
X132572554Y-91604281D01*
X132582738Y-91142238D01*
X132582742Y-91142053D01*
X132588752Y-90886412D01*
X132593208Y-90696905D01*
X132597567Y-90523821D01*
X132603136Y-90302703D01*
X137590743Y-90302703D01*
X137591302Y-90306947D01*
X137591302Y-90306951D01*
X137594178Y-90328793D01*
X137628268Y-90587734D01*
X137629401Y-90591874D01*
X137629401Y-90591876D01*
X137640620Y-90632884D01*
X137704129Y-90865036D01*
X137705813Y-90868984D01*
X137811452Y-91116649D01*
X137816923Y-91129476D01*
X137859644Y-91200858D01*
X137948936Y-91350053D01*
X137964561Y-91376161D01*
X138144313Y-91600528D01*
X138249431Y-91700281D01*
X138349512Y-91795254D01*
X138352851Y-91798423D01*
X138586317Y-91966186D01*
X138590112Y-91968195D01*
X138590113Y-91968196D01*
X138610180Y-91978821D01*
X138840392Y-92100712D01*
X138860556Y-92108091D01*
X139103006Y-92196815D01*
X139110373Y-92199511D01*
X139391264Y-92260755D01*
X139419841Y-92263004D01*
X139614282Y-92278307D01*
X139614291Y-92278307D01*
X139616739Y-92278500D01*
X139772271Y-92278500D01*
X139774407Y-92278354D01*
X139774418Y-92278354D01*
X139982548Y-92264165D01*
X139982554Y-92264164D01*
X139986825Y-92263873D01*
X139991020Y-92263004D01*
X139991022Y-92263004D01*
X140244463Y-92210519D01*
X140268342Y-92205574D01*
X140539343Y-92109607D01*
X140794812Y-91977750D01*
X140798313Y-91975289D01*
X140798317Y-91975287D01*
X141011937Y-91825152D01*
X141030023Y-91812441D01*
X141123307Y-91725756D01*
X141237479Y-91619661D01*
X141237481Y-91619658D01*
X141240622Y-91616740D01*
X141422713Y-91394268D01*
X141572927Y-91149142D01*
X141587191Y-91116649D01*
X141686757Y-90889830D01*
X141688483Y-90885898D01*
X141693280Y-90869060D01*
X141748220Y-90676191D01*
X141767244Y-90609406D01*
X141807751Y-90324784D01*
X141807845Y-90306951D01*
X141809235Y-90041583D01*
X141809235Y-90041576D01*
X141809257Y-90037297D01*
X141807433Y-90023437D01*
X141787688Y-89873464D01*
X141771732Y-89752266D01*
X141768990Y-89742241D01*
X141736635Y-89623974D01*
X141695871Y-89474964D01*
X141650728Y-89369129D01*
X141584763Y-89214476D01*
X141584761Y-89214472D01*
X141583077Y-89210524D01*
X141467452Y-89017328D01*
X141437643Y-88967521D01*
X141437640Y-88967517D01*
X141435439Y-88963839D01*
X141255687Y-88739472D01*
X141132289Y-88622372D01*
X141050258Y-88544527D01*
X141050255Y-88544525D01*
X141047149Y-88541577D01*
X140821881Y-88379705D01*
X140817172Y-88376321D01*
X140817171Y-88376320D01*
X140813683Y-88373814D01*
X140791843Y-88362250D01*
X140746981Y-88338497D01*
X140559608Y-88239288D01*
X140374248Y-88171456D01*
X140293658Y-88141964D01*
X140293656Y-88141963D01*
X140289627Y-88140489D01*
X140008736Y-88079245D01*
X139977685Y-88076801D01*
X139785718Y-88061693D01*
X139785709Y-88061693D01*
X139783261Y-88061500D01*
X139627729Y-88061500D01*
X139625593Y-88061646D01*
X139625582Y-88061646D01*
X139417452Y-88075835D01*
X139417446Y-88075836D01*
X139413175Y-88076127D01*
X139408980Y-88076996D01*
X139408978Y-88076996D01*
X139342804Y-88090700D01*
X139131658Y-88134426D01*
X138860657Y-88230393D01*
X138856848Y-88232359D01*
X138623639Y-88352727D01*
X138605188Y-88362250D01*
X138601687Y-88364711D01*
X138601683Y-88364713D01*
X138521413Y-88421128D01*
X138369977Y-88527559D01*
X138340587Y-88554870D01*
X138165169Y-88717879D01*
X138159378Y-88723260D01*
X137977287Y-88945732D01*
X137827073Y-89190858D01*
X137825347Y-89194791D01*
X137825346Y-89194792D01*
X137748397Y-89370088D01*
X137711517Y-89454102D01*
X137710342Y-89458229D01*
X137710341Y-89458230D01*
X137689635Y-89530918D01*
X137632756Y-89730594D01*
X137613568Y-89865421D01*
X137593027Y-90009752D01*
X137592249Y-90015216D01*
X137592227Y-90019505D01*
X137592226Y-90019512D01*
X137590766Y-90298299D01*
X137590743Y-90302703D01*
X132603136Y-90302703D01*
X132603901Y-90272345D01*
X132603907Y-90272104D01*
X132614927Y-89865421D01*
X132614935Y-89865148D01*
X132626283Y-89477451D01*
X132626292Y-89477141D01*
X132638027Y-89107307D01*
X132638039Y-89106958D01*
X132643276Y-88955200D01*
X132650209Y-88754287D01*
X132662872Y-88417886D01*
X132676036Y-88098137D01*
X132679892Y-88012690D01*
X132689766Y-87793906D01*
X132689793Y-87793349D01*
X132704093Y-87504862D01*
X132704125Y-87504238D01*
X132719085Y-87229950D01*
X132719125Y-87229254D01*
X132725940Y-87115851D01*
X132734743Y-86969371D01*
X132734785Y-86968701D01*
X132734837Y-86967927D01*
X132746953Y-86785142D01*
X132751122Y-86722250D01*
X132751182Y-86721387D01*
X132768263Y-86487998D01*
X132768337Y-86487041D01*
X132779572Y-86348078D01*
X132786197Y-86266136D01*
X132786282Y-86265135D01*
X132786484Y-86262882D01*
X132804968Y-86056046D01*
X132805063Y-86055038D01*
X132805887Y-86046701D01*
X132824389Y-85859366D01*
X132824600Y-85857392D01*
X132824946Y-85854376D01*
X132866394Y-85493129D01*
X132866785Y-85490057D01*
X132866820Y-85489809D01*
X132911999Y-85166717D01*
X132912558Y-85163105D01*
X132915878Y-85143540D01*
X132952053Y-84930315D01*
X132961508Y-84874584D01*
X132962286Y-84870427D01*
X133015104Y-84612030D01*
X133016130Y-84607446D01*
X133073072Y-84373884D01*
X133074355Y-84369051D01*
X133136304Y-84153170D01*
X133137606Y-84148918D01*
X133238716Y-83838360D01*
X133254187Y-83790844D01*
X133255401Y-83787295D01*
X133261842Y-83769350D01*
X133349794Y-83524288D01*
X133381622Y-83435606D01*
X133382972Y-83432015D01*
X133438541Y-83290854D01*
X133518877Y-83086781D01*
X133520327Y-83083259D01*
X133666454Y-82743090D01*
X133668021Y-82739590D01*
X133825039Y-82402817D01*
X133826657Y-82399479D01*
X133928385Y-82197358D01*
X133995213Y-82064579D01*
X133996908Y-82061330D01*
X134178698Y-81724871D01*
X134179982Y-81722553D01*
X134214410Y-81661918D01*
X134274074Y-81556840D01*
X134274892Y-81555421D01*
X134276117Y-81553331D01*
X134373385Y-81387309D01*
X134374233Y-81385883D01*
X134476159Y-81217048D01*
X134476999Y-81215678D01*
X134582330Y-81046129D01*
X134583156Y-81044817D01*
X134602614Y-81014339D01*
X134692148Y-80874096D01*
X134692920Y-80872902D01*
X134701881Y-80859227D01*
X134805528Y-80701040D01*
X134806320Y-80699847D01*
X134922557Y-80526769D01*
X134923326Y-80525636D01*
X135043526Y-80350792D01*
X135044273Y-80349718D01*
X135062481Y-80323813D01*
X135168282Y-80173286D01*
X135168963Y-80172327D01*
X135173003Y-80166699D01*
X135296988Y-79993951D01*
X135297681Y-79992996D01*
X135429558Y-79812839D01*
X135430221Y-79811941D01*
X135566319Y-79629432D01*
X135566953Y-79628589D01*
X135707296Y-79443638D01*
X135707899Y-79442851D01*
X135852427Y-79255465D01*
X135852917Y-79254834D01*
X136001817Y-79064700D01*
X136002315Y-79064069D01*
X136043332Y-79012433D01*
X136155423Y-78871320D01*
X136155929Y-78870686D01*
X136313584Y-78674818D01*
X136314059Y-78674231D01*
X136436650Y-78523781D01*
X136477179Y-78474042D01*
X136549179Y-78385802D01*
X136550004Y-78384861D01*
X136551001Y-78383954D01*
X136574576Y-78354681D01*
X136575081Y-78354058D01*
X136594580Y-78330160D01*
X136596838Y-78327393D01*
X136597530Y-78326243D01*
X136598290Y-78325235D01*
X136739762Y-78149569D01*
X136740893Y-78148259D01*
X136742201Y-78147049D01*
X136765101Y-78118114D01*
X136765757Y-78117292D01*
X136784130Y-78094478D01*
X136784133Y-78094473D01*
X136786945Y-78090982D01*
X136787848Y-78089461D01*
X136788888Y-78088059D01*
X136924114Y-77917195D01*
X136925227Y-77915884D01*
X136926519Y-77914667D01*
X136949090Y-77885643D01*
X136949734Y-77884822D01*
X136968000Y-77861743D01*
X136968010Y-77861729D01*
X136970781Y-77858227D01*
X136971676Y-77856690D01*
X136972720Y-77855258D01*
X137101165Y-77690089D01*
X137102289Y-77688742D01*
X137103590Y-77687495D01*
X137126005Y-77658153D01*
X137126669Y-77657292D01*
X137144582Y-77634258D01*
X137144583Y-77634257D01*
X137147338Y-77630714D01*
X137148229Y-77629153D01*
X137149258Y-77627715D01*
X137270591Y-77468888D01*
X137271733Y-77467495D01*
X137273049Y-77466212D01*
X137295168Y-77436725D01*
X137295835Y-77435844D01*
X137313532Y-77412678D01*
X137316247Y-77409124D01*
X137317141Y-77407526D01*
X137318181Y-77406046D01*
X137432028Y-77254273D01*
X137433189Y-77252830D01*
X137434531Y-77251498D01*
X137437420Y-77247573D01*
X137437427Y-77247565D01*
X137456288Y-77221941D01*
X137456967Y-77221026D01*
X137474449Y-77197721D01*
X137477137Y-77194137D01*
X137478045Y-77192481D01*
X137479116Y-77190927D01*
X137585088Y-77046954D01*
X137586300Y-77045419D01*
X137587690Y-77044013D01*
X137609096Y-77014347D01*
X137609793Y-77013390D01*
X137629638Y-76986429D01*
X137630567Y-76984697D01*
X137631678Y-76983052D01*
X137729437Y-76847568D01*
X137730718Y-76845913D01*
X137732176Y-76844408D01*
X137734990Y-76840425D01*
X137753218Y-76814622D01*
X137753951Y-76813596D01*
X137770764Y-76790295D01*
X137770770Y-76790285D01*
X137773393Y-76786650D01*
X137774362Y-76784800D01*
X137775520Y-76783050D01*
X137864730Y-76656764D01*
X137866109Y-76654944D01*
X137867657Y-76653311D01*
X137888240Y-76623496D01*
X137888924Y-76622517D01*
X137908045Y-76595448D01*
X137909068Y-76593449D01*
X137910329Y-76591499D01*
X137990683Y-76475101D01*
X137992727Y-76472328D01*
X137994822Y-76470050D01*
X138014204Y-76441052D01*
X138015230Y-76439542D01*
X138030706Y-76417124D01*
X138030707Y-76417123D01*
X138033247Y-76413443D01*
X138034620Y-76410685D01*
X138036500Y-76407694D01*
X138160098Y-76222770D01*
X138163315Y-76218235D01*
X138166183Y-76214981D01*
X138183795Y-76187368D01*
X138185263Y-76185120D01*
X138199296Y-76164126D01*
X138199304Y-76164111D01*
X138201787Y-76160397D01*
X138203653Y-76156504D01*
X138206655Y-76151528D01*
X138219806Y-76130909D01*
X138307297Y-75993739D01*
X138310801Y-75988536D01*
X138312197Y-75986570D01*
X138315316Y-75982828D01*
X138317818Y-75978658D01*
X138317822Y-75978652D01*
X138331215Y-75956328D01*
X138333029Y-75953396D01*
X138345553Y-75933759D01*
X138347965Y-75929978D01*
X138349820Y-75925884D01*
X138351723Y-75922373D01*
X138354431Y-75917626D01*
X138433539Y-75785761D01*
X138441175Y-75774467D01*
X138441295Y-75774309D01*
X138441296Y-75774307D01*
X138444234Y-75770432D01*
X138456077Y-75748453D01*
X138458938Y-75743423D01*
X138470178Y-75724687D01*
X138471912Y-75720565D01*
X138471917Y-75720554D01*
X138472437Y-75719316D01*
X138477665Y-75708385D01*
X138562937Y-75550124D01*
X138568394Y-75540948D01*
X138572649Y-75534438D01*
X138575310Y-75530368D01*
X138582517Y-75514424D01*
X138586399Y-75506576D01*
X138591099Y-75497853D01*
X138593222Y-75493913D01*
X138594766Y-75489709D01*
X138594769Y-75489702D01*
X138597178Y-75483141D01*
X138604253Y-75468233D01*
X138604063Y-75468140D01*
X138606212Y-75463770D01*
X138608690Y-75459581D01*
X138618107Y-75435992D01*
X138620292Y-75430853D01*
X138629500Y-75410482D01*
X138630747Y-75406182D01*
X138630750Y-75406174D01*
X138631004Y-75405297D01*
X138634995Y-75393689D01*
X138688825Y-75258844D01*
X138691420Y-75252805D01*
X138691698Y-75252202D01*
X138694072Y-75247949D01*
X138695760Y-75243392D01*
X138695765Y-75243381D01*
X138705072Y-75218253D01*
X138706207Y-75215303D01*
X138715101Y-75193024D01*
X138715104Y-75193014D01*
X138716764Y-75188856D01*
X138717818Y-75184503D01*
X138718458Y-75182496D01*
X138720346Y-75177014D01*
X138767992Y-75048376D01*
X138769392Y-75044924D01*
X138770952Y-75042022D01*
X138782423Y-75009458D01*
X138783079Y-75007644D01*
X138792446Y-74982355D01*
X138792446Y-74982354D01*
X138794003Y-74978151D01*
X138794696Y-74974937D01*
X138795880Y-74971257D01*
X138847687Y-74824182D01*
X138852630Y-74810150D01*
X138853796Y-74807145D01*
X138855157Y-74804525D01*
X138866335Y-74771284D01*
X138866914Y-74769602D01*
X138876039Y-74743699D01*
X138876040Y-74743695D01*
X138877527Y-74739474D01*
X138878101Y-74736588D01*
X138879069Y-74733414D01*
X138887648Y-74707904D01*
X138922646Y-74603826D01*
X138923757Y-74600838D01*
X138925065Y-74598228D01*
X138935784Y-74564797D01*
X138936336Y-74563116D01*
X138945106Y-74537034D01*
X138945106Y-74537032D01*
X138946535Y-74532784D01*
X138947061Y-74529925D01*
X138947966Y-74526799D01*
X138991516Y-74390969D01*
X138992833Y-74387251D01*
X138994316Y-74384166D01*
X138998962Y-74368799D01*
X139004237Y-74351347D01*
X139004826Y-74349455D01*
X139014382Y-74319649D01*
X139014954Y-74316277D01*
X139016026Y-74312348D01*
X139043732Y-74220697D01*
X139068057Y-74140227D01*
X139068069Y-74140231D01*
X139068107Y-74140061D01*
X139078648Y-74105366D01*
X139147205Y-73879696D01*
X139148166Y-73876668D01*
X139234602Y-73616075D01*
X139235872Y-73612433D01*
X139332105Y-73349523D01*
X139333752Y-73345265D01*
X139440491Y-73083450D01*
X139442608Y-73078556D01*
X139560421Y-72821293D01*
X139563122Y-72815758D01*
X139692434Y-72566482D01*
X139695878Y-72560279D01*
X139836906Y-72322413D01*
X139841311Y-72315506D01*
X139919251Y-72201631D01*
X139994134Y-72092223D01*
X139999697Y-72084710D01*
X140017303Y-72062691D01*
X140164274Y-71878876D01*
X140171237Y-71870882D01*
X140185827Y-71855491D01*
X140279420Y-71756755D01*
X140347529Y-71684904D01*
X140356109Y-71676669D01*
X140544282Y-71512389D01*
X140554615Y-71504276D01*
X140755471Y-71362876D01*
X140767546Y-71355358D01*
X140982724Y-71237681D01*
X140996308Y-71231272D01*
X141228732Y-71138124D01*
X141243359Y-71133277D01*
X141496942Y-71066144D01*
X141511969Y-71063130D01*
X141804176Y-71022819D01*
X141813752Y-71021869D01*
X141854346Y-71019402D01*
X141985433Y-71011436D01*
X141990460Y-71011232D01*
X142182271Y-71007299D01*
X142188153Y-71007317D01*
G37*
%TD.AperFunction*%
M02*
