%TF.GenerationSoftware,KiCad,Pcbnew,(6.0.1-0)*%
%TF.CreationDate,2023-10-08T20:28:28-07:00*%
%TF.ProjectId,pizzapad,70697a7a-6170-4616-942e-6b696361645f,rev?*%
%TF.SameCoordinates,Original*%
%TF.FileFunction,Soldermask,Top*%
%TF.FilePolarity,Negative*%
%FSLAX46Y46*%
G04 Gerber Fmt 4.6, Leading zero omitted, Abs format (unit mm)*
G04 Created by KiCad (PCBNEW (6.0.1-0)) date 2023-10-08 20:28:28*
%MOMM*%
%LPD*%
G01*
G04 APERTURE LIST*
%ADD10R,0.700000X0.600000*%
%ADD11R,2.000000X2.000000*%
%ADD12C,2.000000*%
%ADD13R,3.200000X2.000000*%
%ADD14R,0.900000X1.700000*%
%ADD15C,3.200000*%
%ADD16C,4.100000*%
%ADD17C,1.700000*%
%ADD18C,3.600000*%
G04 APERTURE END LIST*
D10*
%TO.C,D5*%
X126492000Y-127062000D03*
X126492000Y-128462000D03*
%TD*%
%TO.C,D2*%
X126492000Y-103570000D03*
X126492000Y-102170000D03*
%TD*%
D11*
%TO.C,RE_3_1*%
X179694000Y-123738000D03*
D12*
X179694000Y-128738000D03*
X179694000Y-126238000D03*
D13*
X187194000Y-131838000D03*
X187194000Y-120638000D03*
D12*
X194194000Y-128738000D03*
X194194000Y-123738000D03*
%TD*%
D10*
%TO.C,D1*%
X130302000Y-103570000D03*
X130302000Y-102170000D03*
%TD*%
D14*
%TO.C,SW1*%
X116254000Y-122682000D03*
X112854000Y-122682000D03*
%TD*%
D15*
%TO.C,H1*%
X139700000Y-90170000D03*
%TD*%
%TO.C,H2*%
X183388000Y-94488000D03*
%TD*%
%TO.C,H0*%
X133096000Y-134874000D03*
%TD*%
D10*
%TO.C,D4*%
X130302000Y-127062000D03*
X130302000Y-128462000D03*
%TD*%
%TO.C,D3*%
X133604000Y-127062000D03*
X133604000Y-128462000D03*
%TD*%
%TO.C,D0*%
X133604000Y-103570000D03*
X133604000Y-102170000D03*
%TD*%
D16*
%TO.C,S4*%
X168148000Y-126238000D03*
D17*
X173228000Y-126238000D03*
X163068000Y-126238000D03*
D18*
X170688000Y-121158000D03*
X164338000Y-123698000D03*
%TD*%
D17*
%TO.C,S0*%
X144018000Y-107188000D03*
X154178000Y-107188000D03*
D16*
X149098000Y-107188000D03*
D18*
X151638000Y-102108000D03*
X145288000Y-104648000D03*
%TD*%
D17*
%TO.C,S3*%
X144018000Y-126238000D03*
X154178000Y-126238000D03*
D16*
X149098000Y-126238000D03*
D18*
X151638000Y-121158000D03*
X145288000Y-123698000D03*
%TD*%
D16*
%TO.C,S2*%
X187198000Y-107188000D03*
D17*
X192278000Y-107188000D03*
X182118000Y-107188000D03*
D18*
X189738000Y-102108000D03*
X183388000Y-104648000D03*
%TD*%
D17*
%TO.C,S1*%
X173228000Y-107188000D03*
D16*
X168148000Y-107188000D03*
D17*
X163068000Y-107188000D03*
D18*
X170688000Y-102108000D03*
X164338000Y-104648000D03*
%TD*%
M02*
