%TF.GenerationSoftware,KiCad,Pcbnew,(6.0.1-0)*%
%TF.CreationDate,2024-01-06T16:47:38-08:00*%
%TF.ProjectId,pizzapad,70697a7a-6170-4616-942e-6b696361645f,rev?*%
%TF.SameCoordinates,Original*%
%TF.FileFunction,Profile,NP*%
%FSLAX46Y46*%
G04 Gerber Fmt 4.6, Leading zero omitted, Abs format (unit mm)*
G04 Created by KiCad (PCBNEW (6.0.1-0)) date 2024-01-06 16:47:38*
%MOMM*%
%LPD*%
G01*
G04 APERTURE LIST*
%ADD10C,0.200000*%
%TA.AperFunction,Profile*%
%ADD11C,0.200000*%
%TD*%
G04 APERTURE END LIST*
D10*
X129648530Y-96958434D02*
X129526023Y-96798568D01*
X129395492Y-96620260D01*
X129268142Y-96440914D01*
X129116228Y-96221238D01*
X129001609Y-96051834D01*
X128876528Y-95863685D01*
X128741167Y-95656461D01*
X128595708Y-95429834D01*
X128440333Y-95183476D01*
X128275223Y-94917058D01*
X128189075Y-94776224D01*
X182342277Y-138917757D02*
X183106683Y-138792381D01*
X183847605Y-138664598D01*
X184565844Y-138534017D01*
X185262198Y-138400246D01*
X185937465Y-138262894D01*
X186592446Y-138121568D01*
X187227939Y-137975877D01*
X187844743Y-137825429D01*
X188443658Y-137669833D01*
X189025482Y-137508697D01*
X189591014Y-137341628D01*
X190141054Y-137168236D01*
X190676401Y-136988129D01*
X191197854Y-136800914D01*
X191706211Y-136606201D01*
X192202273Y-136403598D01*
X192686837Y-136192712D01*
X193160703Y-135973153D01*
X193624671Y-135744528D01*
X194079538Y-135506446D01*
X194526105Y-135258515D01*
X194965171Y-135000343D01*
X195397534Y-134731539D01*
X195823993Y-134451711D01*
X196245348Y-134160467D01*
X196662398Y-133857416D01*
X197075942Y-133542165D01*
X197486778Y-133214324D01*
X197895707Y-132873500D01*
X198303526Y-132519302D01*
X198711036Y-132151338D01*
X199119035Y-131769217D01*
X159118830Y-140442283D02*
X160064719Y-140436050D01*
X160989139Y-140427669D01*
X161892817Y-140417087D01*
X162776479Y-140404252D01*
X163640851Y-140389112D01*
X164486660Y-140371614D01*
X165314633Y-140351707D01*
X166125496Y-140329337D01*
X166919976Y-140304452D01*
X167698799Y-140277001D01*
X168462692Y-140246931D01*
X169212381Y-140214189D01*
X169948593Y-140178723D01*
X170672054Y-140140481D01*
X171383492Y-140099410D01*
X172083632Y-140055459D01*
X172773201Y-140008574D01*
X173452925Y-139958704D01*
X174123532Y-139905797D01*
X174785748Y-139849799D01*
X175440299Y-139790659D01*
X176087911Y-139728324D01*
X176729312Y-139662742D01*
X177365228Y-139593861D01*
X177996385Y-139521628D01*
X178623511Y-139445991D01*
X179247330Y-139366898D01*
X179868571Y-139284296D01*
X180487960Y-139198133D01*
X181106223Y-139108357D01*
X181724086Y-139014916D01*
X182342277Y-138917757D01*
X155893080Y-81771268D02*
X155571640Y-81857607D01*
X155275696Y-81973849D01*
X155004111Y-82117144D01*
X154755753Y-82284643D01*
X154529485Y-82473497D01*
X154324173Y-82680860D01*
X154138683Y-82903880D01*
X153971881Y-83139711D01*
X153822630Y-83385502D01*
X153689797Y-83638407D01*
X153572247Y-83895575D01*
X153468846Y-84154159D01*
X153378458Y-84411310D01*
X153299950Y-84664178D01*
X153232186Y-84909917D01*
X153174032Y-85145676D01*
X202219216Y-127918394D02*
X202358892Y-127659765D01*
X202489022Y-127406781D01*
X202609777Y-127158460D01*
X202721329Y-126913818D01*
X202823848Y-126671872D01*
X202917506Y-126431639D01*
X203002474Y-126192136D01*
X203078925Y-125952379D01*
X203147028Y-125711386D01*
X203206957Y-125468173D01*
X203258882Y-125221756D01*
X203302974Y-124971154D01*
X203339406Y-124715382D01*
X203368348Y-124453458D01*
X203389971Y-124184397D01*
X203404449Y-123907219D01*
D11*
X191189549Y-86779435D02*
X191210491Y-83621156D01*
D10*
X144935550Y-84474048D02*
X144933170Y-84292778D01*
X160257504Y-90593068D02*
X160182665Y-90372673D01*
X160136394Y-90149785D01*
X160102737Y-89927234D01*
X160069414Y-89646987D01*
X160047132Y-89423557D01*
X160024623Y-89167669D01*
X160001735Y-88876595D01*
X159978319Y-88547609D01*
X159954224Y-88177985D01*
X159941875Y-87977082D01*
X159929300Y-87764997D01*
X159916480Y-87541389D01*
X159903396Y-87305917D01*
X159890030Y-87058242D01*
X159876363Y-86798021D01*
X185007809Y-75605775D02*
X184900467Y-75269731D01*
X184798891Y-74955625D01*
X184701924Y-74662094D01*
X184608409Y-74387777D01*
X184517190Y-74131311D01*
X184427111Y-73891335D01*
X184337014Y-73666487D01*
X184245743Y-73455405D01*
X184152142Y-73256727D01*
X184055055Y-73069092D01*
X183953325Y-72891136D01*
X183845794Y-72721499D01*
X183671095Y-72479662D01*
X183544007Y-72324863D01*
X183407071Y-72173617D01*
X183334549Y-72098900D01*
X177375886Y-76370362D02*
X177257779Y-76769615D01*
X177142705Y-77151048D01*
X177030530Y-77515149D01*
X176921120Y-77862413D01*
X176814342Y-78193329D01*
X176710063Y-78508389D01*
X176608148Y-78808086D01*
X176508465Y-79092910D01*
X176410880Y-79363353D01*
X176315259Y-79619907D01*
X176221469Y-79863063D01*
X176129376Y-80093313D01*
X176038847Y-80311148D01*
X175949749Y-80517060D01*
X175861947Y-80711541D01*
X175775309Y-80895082D01*
X175604989Y-81231310D01*
X175437720Y-81529677D01*
X175272435Y-81794115D01*
X175108066Y-82028558D01*
X174943544Y-82236937D01*
X174777802Y-82423185D01*
X174609771Y-82591235D01*
X174438385Y-82745019D01*
X150299278Y-90906804D02*
X150137853Y-91041905D01*
X149970423Y-91164145D01*
X149800158Y-91269978D01*
X149720609Y-91313498D01*
X159413895Y-83372484D02*
X159266053Y-83104088D01*
X159098447Y-82862236D01*
X158913251Y-82646050D01*
X158712634Y-82454650D01*
X158498770Y-82287157D01*
X158273830Y-82142693D01*
X158039987Y-82020379D01*
X157799411Y-81919335D01*
X157554275Y-81838683D01*
X157306751Y-81777544D01*
X157059011Y-81735040D01*
X156813226Y-81710290D01*
X156571568Y-81702417D01*
X156336210Y-81710542D01*
X156109323Y-81733785D01*
X155893080Y-81771268D01*
X124259238Y-91074136D02*
X124032861Y-91072239D01*
X123818072Y-91084011D01*
X123614523Y-91108874D01*
X123239750Y-91195559D01*
X122905757Y-91327667D01*
X122609759Y-91500573D01*
X122348971Y-91709649D01*
X122120608Y-91950270D01*
X121921884Y-92217809D01*
X121750016Y-92507640D01*
X121602217Y-92815137D01*
X121475704Y-93135673D01*
X121367690Y-93464621D01*
X121275391Y-93797357D01*
X121196021Y-94129252D01*
X121126796Y-94455682D01*
X121064931Y-94772019D01*
X121035888Y-94924958D01*
X159876363Y-86798021D02*
X159863865Y-86558300D01*
X159850736Y-86314501D01*
X159836643Y-86068229D01*
X159821251Y-85821090D01*
X159804228Y-85574691D01*
X159785239Y-85330638D01*
X159763951Y-85090537D01*
X159740031Y-84855994D01*
X159713146Y-84628615D01*
X159682961Y-84410007D01*
X159649144Y-84201776D01*
X159590877Y-83912398D01*
X159522560Y-83655403D01*
X159443069Y-83436210D01*
X159413895Y-83372484D01*
X149720609Y-91313498D02*
X149628255Y-91064058D01*
X149536702Y-90822843D01*
X149445673Y-90589433D01*
X149354895Y-90363404D01*
X149264091Y-90144337D01*
X149172988Y-89931808D01*
X149081309Y-89725397D01*
X148988780Y-89524681D01*
X148895125Y-89329240D01*
X148800070Y-89138651D01*
X148703339Y-88952493D01*
X148604657Y-88770344D01*
X148503750Y-88591783D01*
X148400341Y-88416387D01*
X148294157Y-88243736D01*
X148184922Y-88073407D01*
X148072360Y-87904980D01*
X147956197Y-87738032D01*
X147836158Y-87572141D01*
X147711968Y-87406887D01*
X147583351Y-87241847D01*
X147450033Y-87076600D01*
X147311738Y-86910724D01*
X147168191Y-86743797D01*
X147019117Y-86575399D01*
X146864241Y-86405107D01*
X146703289Y-86232499D01*
X146535984Y-86057155D01*
X146362052Y-85878651D01*
X146181218Y-85696568D01*
X145993206Y-85510482D01*
X145797743Y-85319974D01*
X142395517Y-70504613D02*
X142186684Y-70499102D01*
X141967330Y-70503599D01*
X141758748Y-70516274D01*
X198921504Y-116496070D02*
X199023714Y-116321773D01*
X110485054Y-122798684D02*
X110467429Y-123005904D01*
X110454696Y-123212270D01*
X110447282Y-123417996D01*
X110445615Y-123623301D01*
X110450121Y-123828398D01*
X110461227Y-124033506D01*
X110479360Y-124238840D01*
X110504947Y-124444616D01*
X110538416Y-124651051D01*
X110580193Y-124858361D01*
X110612872Y-124997161D01*
X110612872Y-124997161D02*
X110680183Y-125234439D01*
X110765737Y-125482545D01*
X110868017Y-125739447D01*
X110985508Y-126003113D01*
X111116693Y-126271509D01*
X111260055Y-126542604D01*
X111414077Y-126814366D01*
X111577244Y-127084762D01*
X111748039Y-127351759D01*
X111924946Y-127613327D01*
X112106447Y-127867432D01*
X112291027Y-128112041D01*
X112477169Y-128345124D01*
X112663357Y-128564647D01*
X112848074Y-128768578D01*
X113029804Y-128954886D01*
X113029804Y-128954886D02*
X113200065Y-129118170D01*
X113382797Y-129285401D01*
X113577541Y-129456317D01*
X113783838Y-129630657D01*
X114001231Y-129808161D01*
X114229262Y-129988568D01*
X114467472Y-130171617D01*
X114715403Y-130357047D01*
X114972597Y-130544598D01*
X115238595Y-130734009D01*
X115512941Y-130925019D01*
X115795174Y-131117367D01*
X116084837Y-131310793D01*
X116381473Y-131505036D01*
X116684622Y-131699835D01*
X116993826Y-131894930D01*
X117308628Y-132090059D01*
X117628569Y-132284961D01*
X117953191Y-132479377D01*
X118282036Y-132673045D01*
X118614645Y-132865705D01*
X118950560Y-133057096D01*
X119289324Y-133246956D01*
X119630478Y-133435026D01*
X119973563Y-133621045D01*
X120318122Y-133804751D01*
X120663697Y-133985884D01*
X121009829Y-134164184D01*
X121356059Y-134339389D01*
X121701931Y-134511239D01*
X122046985Y-134679473D01*
X122390764Y-134843831D01*
D11*
X142395398Y-70504649D02*
X142395517Y-70504613D01*
D10*
X117194362Y-114932037D02*
X116920606Y-115083725D01*
X116655177Y-115233358D01*
X116397852Y-115381187D01*
X116148410Y-115527459D01*
X115906625Y-115672426D01*
X115672276Y-115816336D01*
X115445140Y-115959441D01*
X115224993Y-116101988D01*
X115011614Y-116244228D01*
X114804778Y-116386411D01*
X114604263Y-116528786D01*
X114409846Y-116671602D01*
X114221304Y-116815111D01*
X114038415Y-116959561D01*
X113860954Y-117105202D01*
X113688700Y-117252283D01*
X113521430Y-117401055D01*
X113358920Y-117551767D01*
X113200947Y-117704669D01*
X113047290Y-117860010D01*
X112897724Y-118018040D01*
X112752027Y-118179010D01*
X112609975Y-118343167D01*
X112471347Y-118510763D01*
X112335919Y-118682047D01*
X112203468Y-118857268D01*
X112073771Y-119036677D01*
X111946605Y-119220523D01*
X111821748Y-119409055D01*
X111698976Y-119602524D01*
X111578067Y-119801178D01*
X111458798Y-120005269D01*
X162595416Y-89017420D02*
X162361678Y-89296652D01*
X162150361Y-89546570D01*
X161960445Y-89768735D01*
X161790912Y-89964708D01*
X161640743Y-90136051D01*
X161449569Y-90350299D01*
X161296235Y-90517911D01*
X161144710Y-90677955D01*
X161002196Y-90818640D01*
X160975605Y-90841738D01*
X167215470Y-84808706D02*
X166963554Y-84952439D01*
X166699571Y-85120269D01*
X166425054Y-85310439D01*
X166141537Y-85521197D01*
X165850553Y-85750787D01*
X165553635Y-85997454D01*
X165252316Y-86259445D01*
X165100486Y-86395639D01*
X164948131Y-86535005D01*
X164795442Y-86677325D01*
X164642611Y-86822379D01*
X164489830Y-86969948D01*
X164337290Y-87119813D01*
X164185184Y-87271754D01*
X164033702Y-87425552D01*
X163883037Y-87580988D01*
X163733380Y-87737842D01*
X163584923Y-87895895D01*
X163437857Y-88054928D01*
X163292374Y-88214722D01*
X163148666Y-88375056D01*
X163006925Y-88535713D01*
X162867341Y-88696471D01*
X162730108Y-88857114D01*
X162595416Y-89017420D01*
D11*
X191210491Y-83621156D02*
X188777294Y-81176337D01*
D10*
X171886653Y-83507282D02*
X171575294Y-83543918D01*
X171262183Y-83586977D01*
X170948252Y-83636361D01*
X170634428Y-83691970D01*
X170321643Y-83753704D01*
X170010827Y-83821465D01*
X169702908Y-83895154D01*
X169398817Y-83974670D01*
X169099483Y-84059916D01*
X168805837Y-84150791D01*
X168518808Y-84247196D01*
X168239327Y-84349032D01*
X167968322Y-84456201D01*
X167706725Y-84568602D01*
X167455464Y-84686137D01*
X167215470Y-84808706D01*
X199023714Y-116321773D02*
X199163660Y-116083269D01*
X199302866Y-115842442D01*
X199441132Y-115599604D01*
X199578260Y-115355065D01*
X199714049Y-115109137D01*
X199848302Y-114862132D01*
X199980818Y-114614361D01*
X200111399Y-114366137D01*
X200239846Y-114117769D01*
X200365960Y-113869571D01*
X200489541Y-113621854D01*
X200610390Y-113374929D01*
X200728309Y-113129107D01*
X200843098Y-112884701D01*
X200954558Y-112642022D01*
X201062490Y-112401381D01*
X201166695Y-112163090D01*
X201266974Y-111927461D01*
X201363127Y-111694805D01*
X201454956Y-111465434D01*
X201542262Y-111239659D01*
X201624845Y-111017792D01*
X201702506Y-110800144D01*
X201775047Y-110587027D01*
X201842268Y-110378753D01*
X201903970Y-110175633D01*
X201959953Y-109977979D01*
X202053970Y-109600314D01*
X202122726Y-109248250D01*
X202147133Y-109082598D01*
D11*
X132000387Y-94845941D02*
X131886516Y-95103902D01*
D10*
X121035888Y-94924958D02*
X120995060Y-95139024D01*
X120955571Y-95342531D01*
X120879036Y-95721904D01*
X120803136Y-96071155D01*
X120724724Y-96398363D01*
X120640652Y-96711605D01*
X120547775Y-97018960D01*
X120442944Y-97328507D01*
X120323014Y-97648323D01*
X120184836Y-97986487D01*
X120025265Y-98351077D01*
X119936473Y-98545807D01*
X119841152Y-98750172D01*
X119738910Y-98965183D01*
X119629352Y-99191850D01*
X119512086Y-99431182D01*
X119386717Y-99684189D01*
X119252853Y-99951880D01*
X119110101Y-100235267D01*
X118958066Y-100535358D01*
X118796355Y-100853163D01*
X118624576Y-101189692D01*
X118442335Y-101545956D01*
X185716617Y-77560236D02*
X185634033Y-77366289D01*
X185557313Y-77171091D01*
X185467722Y-76934204D01*
X185394383Y-76734867D01*
X185317567Y-76521385D01*
X185238889Y-76297746D01*
X185159961Y-76067939D01*
X185082397Y-75835953D01*
X185007809Y-75605775D01*
X191191929Y-88445722D02*
X191191081Y-88199238D01*
X191189890Y-87957131D01*
X191188711Y-87712913D01*
X191188013Y-87511659D01*
X191187730Y-87301581D01*
X191188043Y-87079356D01*
X191189133Y-86841664D01*
X191189549Y-86779435D01*
X199119035Y-131769217D02*
X199386972Y-131511427D01*
X199640678Y-131262068D01*
X199881083Y-131019821D01*
X200109117Y-130783369D01*
X200325711Y-130551395D01*
X200531795Y-130322581D01*
X200728298Y-130095609D01*
X200916152Y-129869162D01*
X201096286Y-129641923D01*
X201269631Y-129412574D01*
X201437116Y-129179798D01*
X201599673Y-128942276D01*
X201758231Y-128698693D01*
X201913721Y-128447730D01*
X202067072Y-128188069D01*
X202219216Y-127918394D01*
X197717649Y-92375561D02*
X197709066Y-92055400D01*
X197701554Y-91737327D01*
X197694486Y-91421847D01*
X197687237Y-91109468D01*
X197679183Y-90800697D01*
X197669699Y-90496040D01*
X197658159Y-90196006D01*
X197643937Y-89901100D01*
X197626410Y-89611829D01*
X197604952Y-89328702D01*
X197578938Y-89052224D01*
X197547742Y-88782903D01*
X197510740Y-88521246D01*
X197467307Y-88267759D01*
X197416816Y-88022951D01*
X197358645Y-87787327D01*
X197292166Y-87561395D01*
X197216756Y-87345662D01*
X197131788Y-87140634D01*
X197036638Y-86946820D01*
X196930682Y-86764725D01*
X196813292Y-86594857D01*
X196683846Y-86437723D01*
X196541717Y-86293829D01*
X196386280Y-86163684D01*
X196216911Y-86047794D01*
X196032983Y-85946665D01*
X195833873Y-85860805D01*
X195618955Y-85790721D01*
X195387603Y-85736920D01*
X195139194Y-85699909D01*
X194873101Y-85680195D01*
X145797743Y-85319974D02*
X145635632Y-85162820D01*
X145465607Y-84997281D01*
X145299097Y-84834158D01*
X145139504Y-84676612D01*
X144996829Y-84534948D01*
X144935550Y-84474048D01*
X174438385Y-82745019D02*
X174280908Y-82879477D01*
X174101033Y-83023986D01*
X173927187Y-83136047D01*
X173728429Y-83223611D01*
X173473818Y-83294631D01*
X173227594Y-83341821D01*
X173029876Y-83372253D01*
X172800790Y-83403020D01*
X172536470Y-83435118D01*
X172233046Y-83469541D01*
X171886653Y-83507282D01*
D11*
X132044543Y-92589364D02*
X132000387Y-94845941D01*
D10*
X188777294Y-81176337D02*
X188594957Y-80992755D01*
X188419784Y-80815401D01*
X188251617Y-80644106D01*
X188090300Y-80478704D01*
X187935676Y-80319027D01*
X187787586Y-80164907D01*
X187645875Y-80016178D01*
X187380959Y-79734220D01*
X187139671Y-79471815D01*
X186920755Y-79227624D01*
X186722954Y-79000307D01*
X186545012Y-78788526D01*
X186385672Y-78590943D01*
X186243678Y-78406217D01*
X186117773Y-78233011D01*
X185956334Y-77991872D01*
X185824029Y-77769119D01*
X185716617Y-77560236D01*
X115720963Y-109180204D02*
X115714016Y-109447747D01*
X115714580Y-109707287D01*
X115723347Y-109961852D01*
X115741011Y-110214467D01*
X115768264Y-110468159D01*
X115805800Y-110725953D01*
X115854312Y-110990876D01*
X115914493Y-111265955D01*
X115987036Y-111554216D01*
X116072636Y-111858685D01*
X116171984Y-112182388D01*
X116285774Y-112528351D01*
X116414699Y-112899601D01*
X116485054Y-113095655D01*
X116559452Y-113299165D01*
X116637981Y-113510510D01*
X116720728Y-113730068D01*
X116807777Y-113958217D01*
X116899218Y-114195337D01*
X131886516Y-95103902D02*
X131781811Y-95324311D01*
X131672097Y-95528289D01*
X131557915Y-95716279D01*
X131439807Y-95888726D01*
X131256468Y-96119224D01*
X131067342Y-96317246D01*
X130874259Y-96484292D01*
X130679045Y-96621858D01*
X130483531Y-96731444D01*
X130289543Y-96814549D01*
X130036428Y-96886750D01*
X129913463Y-96907305D01*
D11*
X160975605Y-90841738D02*
X160443422Y-90823140D01*
D10*
X116899218Y-114195337D02*
X116974192Y-114388234D01*
X117050799Y-114583049D01*
X117130570Y-114778260D01*
X117194362Y-114932037D01*
X132651100Y-84002286D02*
X132582542Y-84241196D01*
X132519779Y-84498633D01*
X132462443Y-84779135D01*
X132410170Y-85087240D01*
X132362593Y-85427485D01*
X132319346Y-85804410D01*
X132299232Y-86008045D01*
X132280064Y-86222552D01*
X132261795Y-86448497D01*
X132244380Y-86686448D01*
X132227773Y-86936973D01*
X132211928Y-87200638D01*
X132196800Y-87478011D01*
X132182343Y-87769658D01*
X132168511Y-88076149D01*
X132155259Y-88398048D01*
X132142540Y-88735925D01*
X132130310Y-89090345D01*
X132118521Y-89461877D01*
X132107129Y-89851087D01*
X132096088Y-90258543D01*
X132085352Y-90684812D01*
X132074875Y-91130461D01*
X132064612Y-91596058D01*
X132054516Y-92082170D01*
X132044543Y-92589364D01*
X203404449Y-123907219D02*
X203410783Y-123603567D01*
X203406369Y-123304562D01*
X203391336Y-123010204D01*
X203365816Y-122720493D01*
X203329938Y-122435430D01*
X203283831Y-122155013D01*
X203227628Y-121879245D01*
X203161456Y-121608124D01*
X203085448Y-121341651D01*
X202999732Y-121079826D01*
X202904439Y-120822650D01*
X202799699Y-120570122D01*
X202685643Y-120322244D01*
X202562400Y-120079014D01*
X202430101Y-119840433D01*
X202288875Y-119606501D01*
X202138854Y-119377220D01*
X201980166Y-119152587D01*
X201812943Y-118932605D01*
X201637314Y-118717273D01*
X201453409Y-118506591D01*
X201261359Y-118300560D01*
X201061294Y-118099180D01*
X200853345Y-117902450D01*
X200637640Y-117710372D01*
X200414310Y-117522944D01*
X200183486Y-117340169D01*
X199945298Y-117162045D01*
X199699875Y-116988573D01*
X199447348Y-116819753D01*
X199187848Y-116655585D01*
X198921504Y-116496070D01*
X118442335Y-101545956D02*
X118258766Y-101905415D01*
X118083041Y-102251487D01*
X117915011Y-102584732D01*
X117754526Y-102905708D01*
X117601438Y-103214973D01*
X117455599Y-103513087D01*
X117316860Y-103800608D01*
X117185072Y-104078094D01*
X117060086Y-104346105D01*
X116941754Y-104605200D01*
X116829927Y-104855936D01*
X116724456Y-105098873D01*
X116625194Y-105334569D01*
X116531990Y-105563584D01*
X116444697Y-105786476D01*
X116363166Y-106003803D01*
X116287248Y-106216124D01*
X116216794Y-106423999D01*
X116151656Y-106627985D01*
X116091686Y-106828642D01*
X116036733Y-107026528D01*
X115986651Y-107222202D01*
X115900501Y-107609149D01*
X115832047Y-107993953D01*
X115780098Y-108381084D01*
X115743467Y-108775010D01*
X115730523Y-108975919D01*
X115720963Y-109180204D01*
X111458798Y-120005269D02*
X111352502Y-120194505D01*
X111252799Y-120379800D01*
X111159573Y-120561577D01*
X111031628Y-120828583D01*
X110917615Y-121090075D01*
X110817147Y-121347493D01*
X110729838Y-121602274D01*
X110655302Y-121855859D01*
X110593154Y-122109685D01*
X110543008Y-122365193D01*
X110504478Y-122623821D01*
X110485054Y-122798684D01*
X183334549Y-72098900D02*
X183171436Y-71943363D01*
X183006015Y-71802793D01*
X182838600Y-71676867D01*
X182669503Y-71565267D01*
X182327521Y-71383760D01*
X181982580Y-71255711D01*
X181637191Y-71178559D01*
X181293864Y-71149741D01*
X180955109Y-71166697D01*
X180623435Y-71226864D01*
X180301355Y-71327682D01*
X179991377Y-71466588D01*
X179696012Y-71641022D01*
X179417771Y-71848421D01*
X179159163Y-72086225D01*
X178922699Y-72351871D01*
X178710890Y-72642798D01*
X178526245Y-72956446D01*
X129913463Y-96907305D02*
X129705701Y-96938610D01*
X129648530Y-96958434D01*
X141758748Y-70516274D02*
X141404286Y-70565174D01*
X141075807Y-70652134D01*
X140772197Y-70773810D01*
X140492343Y-70926858D01*
X140235132Y-71107931D01*
X139999450Y-71313687D01*
X139784185Y-71540780D01*
X139588223Y-71785866D01*
X139410452Y-72045599D01*
X139249757Y-72316637D01*
X139105027Y-72595633D01*
X138975148Y-72879243D01*
X138859006Y-73164123D01*
X138755490Y-73446929D01*
X138663484Y-73724315D01*
X138581878Y-73992937D01*
X144933170Y-83972070D02*
X144933700Y-83737510D01*
X144935093Y-83479816D01*
X144937339Y-83197736D01*
X144939306Y-82995518D01*
X144941645Y-82781534D01*
X144944355Y-82555415D01*
X144947433Y-82316790D01*
X144950875Y-82065287D01*
X144954681Y-81800536D01*
X144958846Y-81522167D01*
X144963369Y-81229809D01*
X144968247Y-80923090D01*
X144973478Y-80601641D01*
X144979058Y-80265090D01*
X144981979Y-80091036D01*
X144981979Y-80091036D02*
X144992089Y-79523197D01*
X145002556Y-78972161D01*
X145012758Y-78437979D01*
X145022073Y-77920700D01*
X145029878Y-77420375D01*
X145035550Y-76937055D01*
X145038468Y-76470790D01*
X145038008Y-76021631D01*
X145033548Y-75589628D01*
X145024466Y-75174831D01*
X145010140Y-74777291D01*
X144989946Y-74397058D01*
X144963263Y-74034184D01*
X144929468Y-73688717D01*
X144887938Y-73360709D01*
X144838051Y-73050211D01*
X144779185Y-72757271D01*
X144710717Y-72481943D01*
X144632025Y-72224274D01*
X144542485Y-71984317D01*
X144441477Y-71762121D01*
X144328377Y-71557736D01*
X144202563Y-71371215D01*
X144063413Y-71202606D01*
X143910303Y-71051960D01*
X143742612Y-70919328D01*
X143559717Y-70804760D01*
X143360996Y-70708307D01*
X143145825Y-70630018D01*
X142913584Y-70569946D01*
X142663649Y-70528139D01*
X142395398Y-70504649D01*
X199841753Y-101016089D02*
X199645378Y-100559647D01*
X199462210Y-100135265D01*
X199291768Y-99740942D01*
X199133569Y-99374672D01*
X198987132Y-99034453D01*
X198851973Y-98718281D01*
X198727612Y-98424154D01*
X198613566Y-98150067D01*
X198509353Y-97894018D01*
X198414491Y-97654003D01*
X198328498Y-97428018D01*
X198250892Y-97214061D01*
X198181190Y-97010128D01*
X198118912Y-96814216D01*
X198014695Y-96438441D01*
X197934384Y-96070709D01*
X197874124Y-95694994D01*
X197830057Y-95295269D01*
X197812890Y-95081394D01*
X197798327Y-94855507D01*
X197785883Y-94615604D01*
X197775077Y-94359682D01*
X197765428Y-94085737D01*
X197756452Y-93791767D01*
X197747668Y-93475767D01*
X197738595Y-93135735D01*
X197728749Y-92769667D01*
X197717649Y-92375561D01*
X138128704Y-75285065D02*
X138015790Y-75494631D01*
X137900053Y-75687554D01*
X137759169Y-75908436D01*
X137594466Y-76154859D01*
X137472083Y-76332138D01*
X137340095Y-76518980D01*
X137198894Y-76714668D01*
X137048871Y-76918487D01*
X136890420Y-77129722D01*
X136723932Y-77347656D01*
X136549801Y-77571573D01*
X136368419Y-77800758D01*
X136180178Y-78034496D01*
X136083608Y-78152848D01*
X202147133Y-109082598D02*
X202174907Y-108771895D01*
X202180048Y-108442130D01*
X202162495Y-108091859D01*
X202122188Y-107719642D01*
X202059066Y-107324034D01*
X202018931Y-107117008D01*
X201973070Y-106903594D01*
X201921475Y-106683611D01*
X201864138Y-106456880D01*
X201801053Y-106223219D01*
X201732212Y-105982448D01*
X201657607Y-105734387D01*
X201577230Y-105478857D01*
X201491075Y-105215676D01*
X201399133Y-104944664D01*
X201301397Y-104665641D01*
X201197860Y-104378426D01*
X201088514Y-104082840D01*
X200973351Y-103778702D01*
X200852364Y-103465831D01*
X200725546Y-103144048D01*
X200592889Y-102813172D01*
X200454385Y-102473023D01*
X200310027Y-102123421D01*
X200159807Y-101764184D01*
X200003718Y-101395133D01*
X199841753Y-101016089D01*
X128189075Y-94776224D02*
X127986829Y-94442536D01*
X127785166Y-94109855D01*
X127582721Y-93780887D01*
X127378130Y-93458340D01*
X127170030Y-93144922D01*
X126957057Y-92843340D01*
X126737847Y-92556301D01*
X126511036Y-92286513D01*
X126275259Y-92036683D01*
X126029154Y-91809519D01*
X125771356Y-91607729D01*
X125500501Y-91434019D01*
X125215226Y-91291097D01*
X124914166Y-91181671D01*
X124595958Y-91108448D01*
X124259238Y-91074136D01*
X138581878Y-73992937D02*
X138519500Y-74199288D01*
X138453403Y-74405444D01*
X138386266Y-74605098D01*
X138304960Y-74835912D01*
X138231445Y-75034391D01*
X138151568Y-75234482D01*
X138128704Y-75285065D01*
X160443422Y-90823140D02*
X160303220Y-90671159D01*
X160257504Y-90593068D01*
X144933170Y-84292778D02*
X144932987Y-84089070D01*
X144933170Y-83972070D01*
X178526245Y-72956446D02*
X178404951Y-73202701D01*
X178290451Y-73464679D01*
X178181356Y-73742223D01*
X178110944Y-73935822D01*
X178041905Y-74136224D01*
X177973828Y-74343380D01*
X177906302Y-74557245D01*
X177838915Y-74777771D01*
X177771257Y-75004913D01*
X177702914Y-75238624D01*
X177633477Y-75478857D01*
X177562534Y-75725565D01*
X177489673Y-75978703D01*
X177414483Y-76238223D01*
X177375886Y-76370362D01*
X153174032Y-85145676D02*
X153108147Y-85420443D01*
X153040622Y-85688005D01*
X152971465Y-85948470D01*
X152900687Y-86201947D01*
X152828296Y-86448547D01*
X152754302Y-86688379D01*
X152678715Y-86921551D01*
X152601545Y-87148174D01*
X152522800Y-87368357D01*
X152442491Y-87582210D01*
X152360628Y-87789841D01*
X152277219Y-87991360D01*
X152192274Y-88186877D01*
X152105803Y-88376501D01*
X152017816Y-88560342D01*
X151837329Y-88911111D01*
X151650892Y-89240058D01*
X151458580Y-89548061D01*
X151260469Y-89835994D01*
X151056638Y-90104733D01*
X150847162Y-90355153D01*
X150632117Y-90588130D01*
X150411581Y-90804538D01*
X150299278Y-90906804D01*
X194873101Y-85680195D02*
X194603116Y-85685447D01*
X194340604Y-85721157D01*
X194085103Y-85785585D01*
X193836153Y-85876993D01*
X193593293Y-85993644D01*
X193356061Y-86133800D01*
X193123998Y-86295721D01*
X192896642Y-86477672D01*
X192673531Y-86677912D01*
X192454206Y-86894704D01*
X192238204Y-87126311D01*
X192025067Y-87370993D01*
X191814331Y-87627013D01*
X191605537Y-87892634D01*
X191398223Y-88166116D01*
X191191929Y-88445722D01*
X139416187Y-139779951D02*
X139651436Y-139804882D01*
X139952621Y-139830634D01*
X140315602Y-139857099D01*
X140736239Y-139884165D01*
X141210395Y-139911725D01*
X141733930Y-139939668D01*
X142302706Y-139967885D01*
X142912583Y-139996266D01*
X143559422Y-140024703D01*
X144239085Y-140053085D01*
X144947432Y-140081304D01*
X145680325Y-140109250D01*
X146433625Y-140136813D01*
X147203193Y-140163884D01*
X147984889Y-140190354D01*
X148774576Y-140216112D01*
X149568113Y-140241051D01*
X150361363Y-140265060D01*
X151150186Y-140288029D01*
X151930443Y-140309850D01*
X152697995Y-140330414D01*
X153448704Y-140349609D01*
X154178430Y-140367328D01*
X154883035Y-140383461D01*
X155558379Y-140397897D01*
X156200324Y-140410529D01*
X156804731Y-140421246D01*
X157367461Y-140429939D01*
X157884375Y-140436499D01*
X158351333Y-140440815D01*
X158764198Y-140442780D01*
X159118830Y-140442283D01*
X122390764Y-134843831D02*
X122861758Y-135063199D01*
X123341912Y-135279877D01*
X123830703Y-135493712D01*
X124327610Y-135704554D01*
X124832110Y-135912251D01*
X125343682Y-136116654D01*
X125861802Y-136317611D01*
X126385950Y-136514970D01*
X126915603Y-136708582D01*
X127450239Y-136898294D01*
X127989335Y-137083956D01*
X128532371Y-137265418D01*
X129078823Y-137442527D01*
X129628169Y-137615134D01*
X130179888Y-137783087D01*
X130733458Y-137946235D01*
X131288355Y-138104427D01*
X131844059Y-138257512D01*
X132400047Y-138405339D01*
X132955796Y-138547758D01*
X133510786Y-138684617D01*
X134064494Y-138815766D01*
X134616397Y-138941053D01*
X135165974Y-139060327D01*
X135712702Y-139173437D01*
X136256060Y-139280234D01*
X136795525Y-139380564D01*
X137330575Y-139474278D01*
X137860688Y-139561225D01*
X138385343Y-139641253D01*
X138904016Y-139714212D01*
X139416187Y-139779951D01*
X136083608Y-78152848D02*
X135919133Y-78354699D01*
X135759010Y-78553633D01*
X135603173Y-78749817D01*
X135451555Y-78943422D01*
X135304089Y-79134616D01*
X135160711Y-79323567D01*
X135021354Y-79510445D01*
X134885952Y-79695418D01*
X134754439Y-79878655D01*
X134626749Y-80060325D01*
X134502816Y-80240597D01*
X134382574Y-80419639D01*
X134265957Y-80597620D01*
X134152898Y-80774710D01*
X134043332Y-80951077D01*
X133937193Y-81126890D01*
X133834414Y-81302317D01*
X133734930Y-81477528D01*
X133545582Y-81827976D01*
X133368619Y-82179583D01*
X133203514Y-82533700D01*
X133049737Y-82891679D01*
X132906762Y-83254869D01*
X132774059Y-83624621D01*
X132651100Y-84002286D01*
M02*
