M48
; DRILL file {KiCad (6.0.1-0)} date Saturday, January 06, 2024 at 04:49:17 PM
; FORMAT={-:-/ absolute / inch / decimal}
; #@! TF.CreationDate,2024-01-06T16:49:17-08:00
; #@! TF.GenerationSoftware,Kicad,Pcbnew,(6.0.1-0)
; #@! TF.FileFunction,Plated,1,2,PTH
FMAT,2
INCH
; #@! TA.AperFunction,Plated,PTH,ViaDrill
T1C0.0157
; #@! TA.AperFunction,Plated,PTH,ComponentDrill
T2C0.0320
; #@! TA.AperFunction,Plated,PTH,ComponentDrill
T3C0.0394
; #@! TA.AperFunction,Plated,PTH,ComponentDrill
T4C0.0591
; #@! TA.AperFunction,Plated,PTH,ComponentDrill
T5C0.1201
%
G90
G05
T1
X5.05Y-4.69
X5.08Y-4.2
X5.13Y-4.62
X5.52Y-5.22
X5.54Y-4.78
X5.55Y-5.08
X5.58Y-4.65
X5.81Y-4.68
X6.07Y-3.92
X6.17Y-4.8
X6.23Y-4.52
X6.26Y-5.11
X6.26Y-5.31
X6.29Y-4.65
X6.29Y-4.81
X6.81Y-5.16
X6.83Y-3.93
X6.92Y-4.83
X6.94Y-5.23
X6.94Y-5.33
X7.23Y-5.12
X7.24Y-5.31
X7.58Y-3.92
T2
X4.82Y-4.0
X4.82Y-4.1
X4.82Y-4.2
X4.82Y-4.3
X4.82Y-4.4
X4.82Y-4.5
X4.82Y-4.6
X4.82Y-4.7
X4.82Y-4.8
X4.82Y-4.9
X4.82Y-5.0
X4.82Y-5.1
X5.4192Y-4.0
X5.4192Y-4.1
X5.4192Y-4.2
X5.4192Y-4.3
X5.4192Y-4.4
X5.4192Y-4.5
X5.4192Y-4.6
X5.4192Y-4.7
X5.4192Y-4.8
X5.4192Y-4.9
X5.4192Y-5.0
X5.4192Y-5.1
T3
X7.0746Y-4.8716
X7.0746Y-4.97
X7.0746Y-5.0684
X7.6454Y-4.8716
X7.6454Y-5.0684
T5
X5.72Y-4.12
X5.72Y-4.87
X5.97Y-4.02
X5.97Y-4.77
X6.47Y-4.12
X6.47Y-4.87
X6.72Y-4.02
X6.72Y-4.77
X7.22Y-4.12
X7.47Y-4.02
T4
G00X7.3443Y-4.7495
M15
G01X7.3954Y-4.7495
M16
G05
G00X7.3443Y-5.1905
M15
G01X7.3954Y-5.1905
M16
G05
T0
M30
