%TF.GenerationSoftware,KiCad,Pcbnew,(6.0.1-0)*%
%TF.CreationDate,2024-01-06T16:47:37-08:00*%
%TF.ProjectId,pizzapad,70697a7a-6170-4616-942e-6b696361645f,rev?*%
%TF.SameCoordinates,Original*%
%TF.FileFunction,Paste,Top*%
%TF.FilePolarity,Positive*%
%FSLAX46Y46*%
G04 Gerber Fmt 4.6, Leading zero omitted, Abs format (unit mm)*
G04 Created by KiCad (PCBNEW (6.0.1-0)) date 2024-01-06 16:47:37*
%MOMM*%
%LPD*%
G01*
G04 APERTURE LIST*
G04 Aperture macros list*
%AMRoundRect*
0 Rectangle with rounded corners*
0 $1 Rounding radius*
0 $2 $3 $4 $5 $6 $7 $8 $9 X,Y pos of 4 corners*
0 Add a 4 corners polygon primitive as box body*
4,1,4,$2,$3,$4,$5,$6,$7,$8,$9,$2,$3,0*
0 Add four circle primitives for the rounded corners*
1,1,$1+$1,$2,$3*
1,1,$1+$1,$4,$5*
1,1,$1+$1,$6,$7*
1,1,$1+$1,$8,$9*
0 Add four rect primitives between the rounded corners*
20,1,$1+$1,$2,$3,$4,$5,0*
20,1,$1+$1,$4,$5,$6,$7,0*
20,1,$1+$1,$6,$7,$8,$9,0*
20,1,$1+$1,$8,$9,$2,$3,0*%
G04 Aperture macros list end*
%ADD10R,1.200000X0.800000*%
%ADD11R,1.200000X1.000000*%
%ADD12R,1.000000X1.000000*%
%ADD13RoundRect,0.250000X-0.450000X0.350000X-0.450000X-0.350000X0.450000X-0.350000X0.450000X0.350000X0*%
%ADD14RoundRect,0.250000X0.450000X-0.350000X0.450000X0.350000X-0.450000X0.350000X-0.450000X-0.350000X0*%
%ADD15RoundRect,0.250000X-0.350000X-0.450000X0.350000X-0.450000X0.350000X0.450000X-0.350000X0.450000X0*%
%ADD16RoundRect,0.250000X0.337500X0.475000X-0.337500X0.475000X-0.337500X-0.475000X0.337500X-0.475000X0*%
%ADD17R,0.900000X1.700000*%
%ADD18RoundRect,0.250000X-0.475000X0.337500X-0.475000X-0.337500X0.475000X-0.337500X0.475000X0.337500X0*%
G04 APERTURE END LIST*
D10*
%TO.C,LED2*%
X186198000Y-113680000D03*
X186198000Y-112380000D03*
X188198000Y-112380000D03*
X188198000Y-113680000D03*
%TD*%
%TO.C,LED4*%
X167148000Y-131430000D03*
X167148000Y-132730000D03*
X169148000Y-132730000D03*
X169148000Y-131430000D03*
%TD*%
D11*
%TO.C,LED1*%
X169148000Y-113680000D03*
X169148000Y-112380000D03*
X167148000Y-112380000D03*
X167148000Y-113680000D03*
%TD*%
D10*
%TO.C,LED3*%
X148098000Y-131430000D03*
X148098000Y-132730000D03*
X150098000Y-132730000D03*
X150098000Y-131430000D03*
%TD*%
%TO.C,LED0*%
X150098000Y-113680000D03*
X150098000Y-112380000D03*
X148098000Y-112380000D03*
X148098000Y-113680000D03*
%TD*%
D12*
%TO.C,D5*%
X126492000Y-126512000D03*
X126492000Y-129012000D03*
%TD*%
D13*
%TO.C,R0*%
X128270000Y-115078000D03*
X128270000Y-117078000D03*
%TD*%
D14*
%TO.C,R1*%
X132334000Y-117078000D03*
X132334000Y-115078000D03*
%TD*%
D13*
%TO.C,R2*%
X178200000Y-116200000D03*
X178200000Y-118200000D03*
%TD*%
D15*
%TO.C,R3*%
X180356000Y-134874000D03*
X182356000Y-134874000D03*
%TD*%
D12*
%TO.C,D2*%
X126492000Y-104120000D03*
X126492000Y-101620000D03*
%TD*%
%TO.C,D1*%
X130302000Y-104120000D03*
X130302000Y-101620000D03*
%TD*%
D16*
%TO.C,C1*%
X187473500Y-134874000D03*
X185398500Y-134874000D03*
%TD*%
D17*
%TO.C,SW1*%
X116254000Y-122682000D03*
X112854000Y-122682000D03*
%TD*%
D12*
%TO.C,D4*%
X130302000Y-126512000D03*
X130302000Y-129012000D03*
%TD*%
%TO.C,D3*%
X133604000Y-126512000D03*
X133604000Y-129012000D03*
%TD*%
D18*
%TO.C,C0*%
X175260000Y-115802500D03*
X175260000Y-117877500D03*
%TD*%
D12*
%TO.C,D0*%
X133604000Y-104120000D03*
X133604000Y-101620000D03*
%TD*%
M02*
