%TF.GenerationSoftware,KiCad,Pcbnew,(6.0.1-0)*%
%TF.CreationDate,2024-01-06T16:47:38-08:00*%
%TF.ProjectId,pizzapad,70697a7a-6170-4616-942e-6b696361645f,rev?*%
%TF.SameCoordinates,Original*%
%TF.FileFunction,Soldermask,Top*%
%TF.FilePolarity,Negative*%
%FSLAX46Y46*%
G04 Gerber Fmt 4.6, Leading zero omitted, Abs format (unit mm)*
G04 Created by KiCad (PCBNEW (6.0.1-0)) date 2024-01-06 16:47:38*
%MOMM*%
%LPD*%
G01*
G04 APERTURE LIST*
G04 Aperture macros list*
%AMRoundRect*
0 Rectangle with rounded corners*
0 $1 Rounding radius*
0 $2 $3 $4 $5 $6 $7 $8 $9 X,Y pos of 4 corners*
0 Add a 4 corners polygon primitive as box body*
4,1,4,$2,$3,$4,$5,$6,$7,$8,$9,$2,$3,0*
0 Add four circle primitives for the rounded corners*
1,1,$1+$1,$2,$3*
1,1,$1+$1,$4,$5*
1,1,$1+$1,$6,$7*
1,1,$1+$1,$8,$9*
0 Add four rect primitives between the rounded corners*
20,1,$1+$1,$2,$3,$4,$5,0*
20,1,$1+$1,$4,$5,$6,$7,0*
20,1,$1+$1,$6,$7,$8,$9,0*
20,1,$1+$1,$8,$9,$2,$3,0*%
G04 Aperture macros list end*
%ADD10R,1.200000X0.800000*%
%ADD11R,1.200000X1.000000*%
%ADD12R,1.000000X1.000000*%
%ADD13RoundRect,0.250000X-0.450000X0.350000X-0.450000X-0.350000X0.450000X-0.350000X0.450000X0.350000X0*%
%ADD14RoundRect,0.250000X0.450000X-0.350000X0.450000X0.350000X-0.450000X0.350000X-0.450000X-0.350000X0*%
%ADD15RoundRect,0.250000X-0.350000X-0.450000X0.350000X-0.450000X0.350000X0.450000X-0.350000X0.450000X0*%
%ADD16R,2.000000X2.000000*%
%ADD17C,2.000000*%
%ADD18R,3.200000X2.000000*%
%ADD19RoundRect,0.250000X0.337500X0.475000X-0.337500X0.475000X-0.337500X-0.475000X0.337500X-0.475000X0*%
%ADD20R,0.900000X1.700000*%
%ADD21C,3.200000*%
%ADD22RoundRect,0.250000X-0.475000X0.337500X-0.475000X-0.337500X0.475000X-0.337500X0.475000X0.337500X0*%
%ADD23C,4.100000*%
%ADD24C,1.700000*%
%ADD25C,3.600000*%
G04 APERTURE END LIST*
D10*
%TO.C,LED2*%
X186198000Y-113680000D03*
X186198000Y-112380000D03*
X188198000Y-112380000D03*
X188198000Y-113680000D03*
%TD*%
%TO.C,LED4*%
X167148000Y-131430000D03*
X167148000Y-132730000D03*
X169148000Y-132730000D03*
X169148000Y-131430000D03*
%TD*%
D11*
%TO.C,LED1*%
X169148000Y-113680000D03*
X169148000Y-112380000D03*
X167148000Y-112380000D03*
X167148000Y-113680000D03*
%TD*%
D10*
%TO.C,LED3*%
X148098000Y-131430000D03*
X148098000Y-132730000D03*
X150098000Y-132730000D03*
X150098000Y-131430000D03*
%TD*%
%TO.C,LED0*%
X150098000Y-113680000D03*
X150098000Y-112380000D03*
X148098000Y-112380000D03*
X148098000Y-113680000D03*
%TD*%
D12*
%TO.C,D5*%
X126492000Y-126512000D03*
X126492000Y-129012000D03*
%TD*%
D13*
%TO.C,R0*%
X128270000Y-115078000D03*
X128270000Y-117078000D03*
%TD*%
D14*
%TO.C,R1*%
X132334000Y-117078000D03*
X132334000Y-115078000D03*
%TD*%
D13*
%TO.C,R2*%
X178200000Y-116200000D03*
X178200000Y-118200000D03*
%TD*%
D15*
%TO.C,R3*%
X180356000Y-134874000D03*
X182356000Y-134874000D03*
%TD*%
D12*
%TO.C,D2*%
X126492000Y-104120000D03*
X126492000Y-101620000D03*
%TD*%
D16*
%TO.C,RE_3_1*%
X179694000Y-123738000D03*
D17*
X179694000Y-128738000D03*
X179694000Y-126238000D03*
D18*
X187194000Y-131838000D03*
X187194000Y-120638000D03*
D17*
X194194000Y-128738000D03*
X194194000Y-123738000D03*
%TD*%
D12*
%TO.C,D1*%
X130302000Y-104120000D03*
X130302000Y-101620000D03*
%TD*%
D19*
%TO.C,C1*%
X187473500Y-134874000D03*
X185398500Y-134874000D03*
%TD*%
D20*
%TO.C,SW1*%
X116254000Y-122682000D03*
X112854000Y-122682000D03*
%TD*%
D21*
%TO.C,\u2022\u1D25\u20221*%
X139700000Y-90170000D03*
%TD*%
%TO.C,(\u2229_\u2229)0*%
X183388000Y-94488000D03*
%TD*%
%TO.C,(\u25E1\u203F\u25E1\u002A)7*%
X133096000Y-134874000D03*
%TD*%
D12*
%TO.C,D4*%
X130302000Y-126512000D03*
X130302000Y-129012000D03*
%TD*%
%TO.C,D3*%
X133604000Y-126512000D03*
X133604000Y-129012000D03*
%TD*%
D22*
%TO.C,C0*%
X175260000Y-115802500D03*
X175260000Y-117877500D03*
%TD*%
D12*
%TO.C,D0*%
X133604000Y-104120000D03*
X133604000Y-101620000D03*
%TD*%
D23*
%TO.C,S4*%
X168148000Y-126238000D03*
D24*
X173228000Y-126238000D03*
X163068000Y-126238000D03*
D25*
X170688000Y-121158000D03*
X164338000Y-123698000D03*
%TD*%
D24*
%TO.C,S0*%
X144018000Y-107188000D03*
X154178000Y-107188000D03*
D23*
X149098000Y-107188000D03*
D25*
X151638000Y-102108000D03*
X145288000Y-104648000D03*
%TD*%
D24*
%TO.C,S3*%
X144018000Y-126238000D03*
X154178000Y-126238000D03*
D23*
X149098000Y-126238000D03*
D25*
X151638000Y-121158000D03*
X145288000Y-123698000D03*
%TD*%
D23*
%TO.C,S2*%
X187198000Y-107188000D03*
D24*
X192278000Y-107188000D03*
X182118000Y-107188000D03*
D25*
X189738000Y-102108000D03*
X183388000Y-104648000D03*
%TD*%
D24*
%TO.C,S1*%
X173228000Y-107188000D03*
D23*
X168148000Y-107188000D03*
D24*
X163068000Y-107188000D03*
D25*
X170688000Y-102108000D03*
X164338000Y-104648000D03*
%TD*%
M02*
