M48
; DRILL file {KiCad (6.0.1-0)} date Sunday, October 08, 2023 at 08:28:20 PM
; FORMAT={-:-/ absolute / inch / decimal}
; #@! TF.CreationDate,2023-10-08T20:28:20-07:00
; #@! TF.GenerationSoftware,Kicad,Pcbnew,(6.0.1-0)
; #@! TF.FileFunction,Plated,1,2,PTH
FMAT,2
INCH
; #@! TA.AperFunction,Plated,PTH,ViaDrill
T1C0.0157
; #@! TA.AperFunction,Plated,PTH,ComponentDrill
T2C0.0320
; #@! TA.AperFunction,Plated,PTH,ComponentDrill
T3C0.0394
; #@! TA.AperFunction,Plated,PTH,ComponentDrill
T4C0.0591
; #@! TA.AperFunction,Plated,PTH,ComponentDrill
T5C0.1201
%
G90
G05
T1
X5.08Y-4.2
X5.23Y-4.56
X5.54Y-4.78
X5.58Y-4.65
X5.72Y-4.38
X5.73Y-4.45
X5.81Y-4.68
X6.07Y-3.92
X6.16Y-4.59
X6.17Y-4.8
X6.26Y-5.14
X6.26Y-5.31
X6.28Y-4.23
X6.28Y-4.51
X6.29Y-4.81
X6.54Y-4.5
X6.83Y-3.93
X6.92Y-4.83
X6.96Y-5.23
X6.96Y-5.32
X7.2Y-5.01
X7.21Y-5.22
X7.27Y-4.5
X7.51Y-4.48
X7.58Y-3.92
X7.58Y-5.0
X7.75Y-4.56
T2
X4.82Y-4.0
X4.82Y-4.1
X4.82Y-4.2
X4.82Y-4.3
X4.82Y-4.4
X4.82Y-4.5
X4.82Y-4.6
X4.82Y-4.7
X4.82Y-4.8
X4.82Y-4.9
X4.82Y-5.0
X4.82Y-5.1
X5.4192Y-4.0
X5.4192Y-4.1
X5.4192Y-4.2
X5.4192Y-4.3
X5.4192Y-4.4
X5.4192Y-4.5
X5.4192Y-4.6
X5.4192Y-4.7
X5.4192Y-4.8
X5.4192Y-4.9
X5.4192Y-5.0
X5.4192Y-5.1
T3
X7.0746Y-4.8716
X7.0746Y-4.97
X7.0746Y-5.0684
X7.6454Y-4.8716
X7.6454Y-5.0684
T5
X5.72Y-4.12
X5.72Y-4.87
X5.97Y-4.02
X5.97Y-4.77
X6.47Y-4.12
X6.47Y-4.87
X6.72Y-4.02
X6.72Y-4.77
X7.22Y-4.12
X7.47Y-4.02
T4
G00X7.3443Y-4.7495
M15
G01X7.3954Y-4.7495
M16
G05
G00X7.3443Y-5.1905
M15
G01X7.3954Y-5.1905
M16
G05
T0
M30
