%TF.GenerationSoftware,KiCad,Pcbnew,(6.0.1-0)*%
%TF.CreationDate,2024-01-06T16:47:38-08:00*%
%TF.ProjectId,pizzapad,70697a7a-6170-4616-942e-6b696361645f,rev?*%
%TF.SameCoordinates,Original*%
%TF.FileFunction,Soldermask,Bot*%
%TF.FilePolarity,Negative*%
%FSLAX46Y46*%
G04 Gerber Fmt 4.6, Leading zero omitted, Abs format (unit mm)*
G04 Created by KiCad (PCBNEW (6.0.1-0)) date 2024-01-06 16:47:38*
%MOMM*%
%LPD*%
G01*
G04 APERTURE LIST*
G04 Aperture macros list*
%AMRoundRect*
0 Rectangle with rounded corners*
0 $1 Rounding radius*
0 $2 $3 $4 $5 $6 $7 $8 $9 X,Y pos of 4 corners*
0 Add a 4 corners polygon primitive as box body*
4,1,4,$2,$3,$4,$5,$6,$7,$8,$9,$2,$3,0*
0 Add four circle primitives for the rounded corners*
1,1,$1+$1,$2,$3*
1,1,$1+$1,$4,$5*
1,1,$1+$1,$6,$7*
1,1,$1+$1,$8,$9*
0 Add four rect primitives between the rounded corners*
20,1,$1+$1,$2,$3,$4,$5,0*
20,1,$1+$1,$4,$5,$6,$7,0*
20,1,$1+$1,$6,$7,$8,$9,0*
20,1,$1+$1,$8,$9,$2,$3,0*%
G04 Aperture macros list end*
%ADD10C,1.524000*%
%ADD11R,2.000000X2.000000*%
%ADD12C,2.000000*%
%ADD13R,3.200000X2.000000*%
%ADD14C,3.200000*%
%ADD15C,4.100000*%
%ADD16C,1.700000*%
%ADD17C,3.600000*%
%ADD18RoundRect,0.625000X1.125000X0.625000X-1.125000X0.625000X-1.125000X-0.625000X1.125000X-0.625000X0*%
G04 APERTURE END LIST*
D10*
%TO.C,B1*%
X137648000Y-101600000D03*
X137648000Y-104140000D03*
X137648000Y-106680000D03*
X137648000Y-109220000D03*
X137648000Y-111760000D03*
X137648000Y-114300000D03*
X137648000Y-116840000D03*
X137648000Y-119380000D03*
X137648000Y-121920000D03*
X137648000Y-124460000D03*
X137648000Y-127000000D03*
X137648000Y-129540000D03*
X122428000Y-129540000D03*
X122428000Y-127000000D03*
X122428000Y-124460000D03*
X122428000Y-121920000D03*
X122428000Y-119380000D03*
X122428000Y-116840000D03*
X122428000Y-114300000D03*
X122428000Y-111760000D03*
X122428000Y-109220000D03*
X122428000Y-106680000D03*
X122428000Y-104140000D03*
X122428000Y-101600000D03*
%TD*%
D11*
%TO.C,RE_3_1*%
X179694000Y-123738000D03*
D12*
X179694000Y-128738000D03*
X179694000Y-126238000D03*
D13*
X187194000Y-131838000D03*
X187194000Y-120638000D03*
D12*
X194194000Y-128738000D03*
X194194000Y-123738000D03*
%TD*%
D14*
%TO.C,\u2022\u1D25\u20221*%
X139700000Y-90170000D03*
%TD*%
%TO.C,(\u2229_\u2229)0*%
X183388000Y-94488000D03*
%TD*%
%TO.C,(\u25E1\u203F\u25E1\u002A)7*%
X133096000Y-134874000D03*
%TD*%
D15*
%TO.C,S4*%
X168148000Y-126238000D03*
D16*
X173228000Y-126238000D03*
X163068000Y-126238000D03*
D17*
X170688000Y-121158000D03*
X164338000Y-123698000D03*
D18*
X173148000Y-121158000D03*
X161948000Y-123698000D03*
%TD*%
D16*
%TO.C,S0*%
X144018000Y-107188000D03*
X154178000Y-107188000D03*
D15*
X149098000Y-107188000D03*
D17*
X151638000Y-102108000D03*
X145288000Y-104648000D03*
D18*
X154098000Y-102108000D03*
X142898000Y-104648000D03*
%TD*%
D16*
%TO.C,S3*%
X144018000Y-126238000D03*
X154178000Y-126238000D03*
D15*
X149098000Y-126238000D03*
D17*
X151638000Y-121158000D03*
X145288000Y-123698000D03*
D18*
X154098000Y-121158000D03*
X142898000Y-123698000D03*
%TD*%
D15*
%TO.C,S2*%
X187198000Y-107188000D03*
D16*
X192278000Y-107188000D03*
X182118000Y-107188000D03*
D17*
X189738000Y-102108000D03*
X183388000Y-104648000D03*
D18*
X192198000Y-102108000D03*
X180998000Y-104648000D03*
%TD*%
D16*
%TO.C,S1*%
X173228000Y-107188000D03*
D15*
X168148000Y-107188000D03*
D16*
X163068000Y-107188000D03*
D17*
X170688000Y-102108000D03*
X164338000Y-104648000D03*
D18*
X173148000Y-102108000D03*
X161948000Y-104648000D03*
%TD*%
M02*
